SplineFontDB: 3.2
FontName: MFEKSans-Regular
FullName: MFEK Sans Regular
FamilyName: MFEK Sans
Weight: Regular
Copyright: 
Version: 0.1
ItalicAngle: 0
UnderlinePosition: -200
UnderlineWidth: 100
Ascent: 1600
Descent: 400
InvalidEm: 0
LayerCount: 2
Layer: 0 0 "Back" 1
Layer: 1 0 "Fore" 0
XUID: [1021 31 -699969567 16487490]
FSType: 0
OS2Version: 0
OS2_WeightWidthSlopeOnly: 0
OS2_UseTypoMetrics: 1
CreationTime: 1460762150
ModificationTime: 1674821678
PfmFamily: 33
TTFWeight: 400
TTFWidth: 5
LineGap: 0
VLineGap: 0
OS2TypoAscent: 2500
OS2TypoAOffset: 0
OS2TypoDescent: -850
OS2TypoDOffset: 0
OS2TypoLinegap: 0
OS2WinAscent: 2500
OS2WinAOffset: 0
OS2WinDescent: 850
OS2WinDOffset: 0
HheadAscent: 2500
HheadAOffset: 0
HheadDescent: -850
HheadDOffset: 0
OS2CapHeight: 1500
OS2XHeight: 1040
OS2FamilyClass: 2053
OS2Vendor: 'it* '
OS2UnicodeRanges: 00000001.00000000.00000000.00000000
Lookup: 258 0 0 "kerning yeah boi" { "say cheese" [300,0,4] } ['kern' ('DFLT' <'dflt' > 'grek' <'dflt' > 'latn' <'dflt' > ) ]
MarkAttachClasses: 1
DEI: 91125
KernClass2: 30 23 "say cheese"
 73 A Agrave Aacute Acircumflex Atilde Adieresis Aring Amacron Abreve Aogonek
 96 D O Ograve Oacute Ocircumflex Otilde Odieresis Oslash Dcaron Dcroat Omacron Obreve Ohungarumlaut
 81 E AE Egrave Eacute Ecircumflex Edieresis Emacron Ebreve Edotaccent Eogonek Ecaron
 1 F
 39 G Gcircumflex Gbreve Gdotaccent uni0122
 104 J U Ugrave Uacute Ucircumflex Udieresis IJ Jcircumflex Utilde Umacron Ubreve Uring Uhungarumlaut Uogonek
 11 K X uni0136
 23 L Lacute uni013B Lslash
 1 P
 1 Q
 23 R Racute uni0156 Rcaron
 36 S Sacute Scircumflex Scedilla Scaron
 21 T uni0162 Tcaron Tbar
 1 V
 53 W Wcircumflex Wgrave Wacute Wdieresis uni1E86 uni1E88
 30 Y Ycircumflex Ydieresis Ygrave
 26 Z Zacute Zdotaccent Zcaron
 73 a agrave aacute acircumflex atilde adieresis aring amacron abreve aogonek

StartChar: ampersand
Encoding: 38 38 0
Width: 1701
VWidth: 1920
Flags: HMW
LayerCount: 2
Fore
SplineSet
1027.65039062 210 m 6
 526.650390625 734 l 6
 375.589490126 891.995832058 338.650390625 1000 338.650390625 1113 c 0
 338.650390625 1283 466.650390625 1435 873.650390625 1435 c 0
 1210.65039062 1435 1408.65039062 1313.02636719 1408.65039062 1123 c 0
 1408.65039062 875 1014.65039062 697 785.650390625 596 c 0
 641.650390625 533 614.650390625 492 614.650390625 448 c 0
 614.650390625 427 624.591796875 409.764648438 631.650390625 398 c 2
 637.650390625 388 l 2
 648.415039062 370.05859375 680.650390625 355 715.650390625 355 c 4
 867.650390625 355 1113.32226562 420.959960938 1199.65039062 499 c 0
 1290.10742188 580.772460938 1361.65039062 648 1468.65039062 648 c 2
 1473.65039062 648 l 2
 1590.65039062 648 1659.34745143 576.73531748 1599.65039062 487 c 0
 1424.19105793 223.253364715 867.650390625 -35 559.650390625 -35 c 0
 343.650390625 -35 215.822238464 24.9698650494 147.650390625 119 c 2
 89.650390625 199 l 2
 33.0285143448 277.099139697 9.650390625 352 9.650390625 448 c 0
 9.650390625 637 200.650390625 747 675.650390625 862 c 0
 843.331054688 902.596679688 973.650390625 1032 973.650390625 1113 c 0
 973.650390625 1133 950.650390625 1150 913.650390625 1150 c 0
 876.650390625 1150 858.650390625 1132 858.650390625 1103 c 0
 858.650390625 1054 928.415317378 962.818987446 1005.65039062 876 c 6
 1553.65039062 260 l 6
 1660.59555379 139.784269141 1615.65039062 -30 1408.65039062 -30 c 2
 1398.65039062 -30 l 2
 1221.65039062 -30 1142.37691322 90.0065911422 1027.65039062 210 c 6
EndSplineSet
EndChar

StartChar: period
Encoding: 46 46 1
Width: 740
VWidth: 1920
Flags: HMW
LayerCount: 2
Fore
SplineSet
385 -40 m 6
 355 -40 l 6
 188 -40 75 63 75 210 c 6
 75 250 l 6
 75 397 188 500 355 500 c 6
 385 500 l 6
 552 500 665 397 665 250 c 6
 665 210 l 6
 665 63 552 -40 385 -40 c 6
EndSplineSet
EndChar

StartChar: zero
Encoding: 48 48 2
Width: 1350
VWidth: 1920
Flags: HMW
LayerCount: 2
Fore
SplineSet
50 488 m 258
 50 913 l 258
 50 1238.79492188 273.346679688 1435 675 1435 c 256
 1076.65332031 1435 1300 1238.79492188 1300 913 c 258
 1300 488 l 258
 1300 161.891601562 1076.37792969 -35 675 -35 c 256
 273.622070312 -35 50 161.891601562 50 488 c 258
540 508 m 258
 540 359.787109375 571.172851562 305 675 305 c 256
 778.827148438 305 810 359.787109375 810 508 c 258
 810 893 l 258
 810 1040.875 779.051757812 1095 675 1095 c 256
 570.948242188 1095 540 1040.875 540 893 c 258
 540 508 l 258
EndSplineSet
EndChar

StartChar: one
Encoding: 49 49 3
Width: 640
VWidth: 1920
Flags: HMW
LayerCount: 2
Fore
SplineSet
161 1323.24902344 m 260
 218.521484375 1343.55859375 234.943359375 1352.71875 271.745117188 1396 c 256
 310.3828125 1441.44042969 355.3984375 1450 402 1450 c 258
 406 1450 l 258
 503 1450 565 1387 565 1250 c 258
 565 230 l 258
 565 53 472 -30 325 -30 c 258
 315 -30 l 258
 168 -30 75 53 75 230 c 258
 75 1144 l 258
 75 1250.734375 106.552734375 1304.02539062 161 1323.24902344 c 260
EndSplineSet
EndChar

StartChar: two
Encoding: 50 50 4
Width: 1280
VWidth: 1920
Flags: HMW
LayerCount: 2
Fore
SplineSet
50 160 m 262
 50 574.034179688 735 715.631835938 735 993 c 262
 735 998 l 262
 735 1058 688 1085 631 1085 c 260
 561 1085 535 1044.57617188 535 1002 c 262
 535 992 l 262
 535 885 457 822 310 822 c 262
 300 822 l 262
 153 822 65 885 65 1032 c 262
 65 1052 l 262
 65 1275.74121094 262 1435 659 1435 c 260
 986 1435 1215 1303 1215 1043 c 262
 1215 998 l 262
 1215 582.094726562 610 531 610 380 c 262
 610 370 l 261
 990 370 l 262
 1167 370 1250 337 1250 190 c 262
 1250 180 l 262
 1250 33 1167 -2.16762483449e-14 990 0 c 262
 230 0 l 262
 103 0 50 48 50 155 c 262
 50 160 l 262
EndSplineSet
EndChar

StartChar: three
Encoding: 51 51 5
Width: 1300
VWidth: 1920
Flags: HMW
LayerCount: 2
Fore
SplineSet
300 577 m 262
 310 577 l 262
 457 577 520 504 520 407 c 262
 520 397 l 262
 520 357.036132812 561 315 640 315 c 260
 727 315 775 352 775 422 c 262
 775 447 l 262
 775 517 726.918945312 560 630 560 c 262
 610 560 l 262
 503 560 460 633 460 730 c 262
 460 740 l 262
 460 837 502 910 609 910 c 262
 610 910 l 262
 676.885742188 910 720 933 720 993 c 262
 720 1008 l 262
 720 1048 696 1085 629 1085 c 260
 569 1085 545 1064.81445312 545 1032 c 262
 545 1022 l 262
 545 935 467 902 340 902 c 262
 330 902 l 262
 163 902 75 965 75 1082 c 262
 75 1102 l 262
 75 1266 297 1435 644 1435 c 260
 991 1435 1215 1313 1215 1083 c 262
 1215 1058 l 262
 1215 808 967 720 710 720 c 261
 730 770 l 261
 987 770 1265 672 1265 422 c 262
 1265 347 l 262
 1265 107 1027 -35 630 -35 c 260
 278 -35 50 119 50 377 c 262
 50 387 l 262
 50 494 113 577 300 577 c 262
EndSplineSet
EndChar

StartChar: four
Encoding: 52 52 6
Width: 1310
VWidth: 1920
Flags: HMW
LayerCount: 2
Fore
SplineSet
1340 410 m 262
 1340 400 l 262
 1340 283 1277 230 1140 230 c 262
 1120 230 l 261
 1120 200 l 262
 1120 63 1027 -30 880 -30 c 262
 870 -30 l 262
 723 -30 630 63 630 200 c 262
 630 230 l 261
 250 230 l 262
 73 230 -10 343 -10 510 c 262
 -10 512 l 262
 -10 649 34.8217231746 725.897629984 147 860 c 262
 454 1227 l 262
 552.425167245 1345.2589541 662.5078125 1420 840 1420 c 262
 850 1420 l 262
 1027 1420 1120 1287 1120 1140 c 262
 1120 580 l 261
 1140 580 l 262
 1277 580 1340 527 1340 410 c 262
640 580 m 261
 640 1000.83300781 l 261
 305 580 l 261
 640 580 l 261
  Spiro
    640 580 v
    640 1000.83 v
    305 580 v
    0 0 z
  EndSpiro
EndSplineSet
EndChar

StartChar: five
Encoding: 53 53 7
Width: 1300
VWidth: 1920
Flags: HMW
LayerCount: 2
Fore
SplineSet
305 448 m 262
 310 448 l 262
 466.907226562 448 490.698242188 393.818359375 540.643554688 349 c 260
 561.61328125 330.182617188 597.780273438 305 645 305 c 260
 714 305 760 355 760 448 c 262
 760 473 l 262
 760 573 729 605 665 605 c 260
 613.91015625 605 577.573242188 555.986328125 566 542.57421875 c 260
 534.946289062 506.584960938 491.759765625 473 365 473 c 262
 275 473 l 262
 158 473 88.7966139205 567.630327634 110 743 c 262
 158 1140 l 262
 178.886837038 1313.10757364 274 1400 451 1400 c 262
 941 1400 l 262
 1138 1400 1211 1347 1211 1250 c 262
 1211 1245 l 262
 1211 1125 1121 1050 921 1050 c 262
 556 1050 l 261
 492.328125 745.357421875 l 261
 469.328125 745.357421875 l 261
 523.97265625 868.810546875 699.609375 955 860 955 c 260
 1100 955 1250 840 1250 513 c 262
 1250 448 l 262
 1250 121 1045 -35 635 -35 c 260
 301.010742188 -35 108.264648438 98.7353515625 90.5361328125 248 c 260
 74.4317483261 383.590330263 167.916992188 448 305 448 c 262
  Spiro
    305 448 [
    310 448 ]
    428.348 432.322 o
    493.568 394.542 o
    540.644 349 o
    566.495 329.249 o
    601.657 312.212 o
    645 305 o
    705.43 321.375 o
    745.547 369.656 o
    760 448 [
    760 473 ]
    749.613 551.608 o
    718.032 593.025 o
    665 605 o
    619.239 591.819 o
    585.43 564.692 o
    566 542.574 o
    528.303 508.572 o
    466.469 483.021 o
    365 473 [
    275 473 ]
    175.591 503.967 o
    117.32 595.178 o
    110 743 [
    158 1140 ]
    203.841 1284.23 o
    301.135 1371.12 o
    451 1400 [
    941 1400 ]
    1098.44 1382.7 o
    1184.83 1331.93 o
    1211 1250 [
    1211 1245 ]
    1180.32 1141.2 o
    1084.95 1073.84 o
    921 1050 [
    556 1050 v
    492.328 745.357 v
    469.328 745.357 v
    559.137 854.484 o
    699.729 928.134 o
    860 955 o
    1067.6 913.161 o
    1202.32 772.729 o
    1250 513 [
    1250 448 ]
    1181.8 177.659 o
    976.393 17.4499 o
    635 -35 o
    349.579 5.12446 o
    165.222 108.416 o
    90.5361 248 o
    108.468 360.025 o
    184.994 426.323 o
    0 0 z
  EndSpiro
EndSplineSet
EndChar

StartChar: six
Encoding: 54 54 8
Width: 1429
VWidth: 1920
Flags: HMW
LayerCount: 2
Fore
SplineSet
730 640 m 260
 620 640 560 585 560 502 c 262
 560 442 l 261
 470 522 l 261
 470 786 603 890 900 890 c 260
 1227 890 1369 731 1369 457 c 262
 1369 407 l 262
 1369 129 1121 -35 729 -35 c 260
 252 -35 75 167 75 527 c 262
 75 843 l 262
 75 1223 293 1435 720 1435 c 260
 1127 1435 1279 1267.83496094 1279 1124 c 262
 1279 1122 l 262
 1279 995 1161 942 1064 942 c 262
 1054 942 l 262
 907 942 839 985 839 1042 c 262
 839 1044 l 262
 839 1076.91113281 810 1085 740 1085 c 260
 613 1085 560 988 560 838 c 262
 560 462 l 262
 560 372 612 315 719 315 c 260
 838 315 879 377 879 457 c 262
 879 477 l 262
 879 560 840 640 730 640 c 260
EndSplineSet
EndChar

StartChar: seven
Encoding: 55 55 9
Width: 1195
VWidth: 1920
Flags: HMW
LayerCount: 2
Fore
SplineSet
1177 1060 m 262
 939 330 l 262
 870.985001219 121.382566766 807.49609375 -30 610 -30 c 262
 600 -30 l 262
 393 -30 309.87953049 166.796827841 414 350 c 262
 755 950 l 261
 345 950 l 262
 118 950 45 1023 45 1170 c 262
 45 1180 l 262
 45 1327 118 1400 345 1400 c 262
 905 1400 l 262
 1172.37207031 1400 1253.23571384 1293.83223152 1177 1060 c 262
  Spiro
    1177 1060 [
    939 330 ]
    867.443 144.108 o
    767.834 16.8835 o
    610 -30 [
    600 -30 ]
    436.757 27.6989 o
    369.933 170.227 o
    414 350 [
    755 950 v
    345 950 ]
    166.467 974.322 o
    72.2757 1047.73 o
    45 1170 [
    45 1180 ]
    72.2757 1302.27 o
    166.467 1375.68 o
    345 1400 [
    905 1400 ]
    1111.15 1363.89 o
    1199.81 1251.92 o
    0 0 z
  EndSpiro
EndSplineSet
EndChar

StartChar: eight
Encoding: 56 56 10
Width: 1382
VWidth: 1920
Flags: HMW
LayerCount: 2
Fore
SplineSet
691 310 m 256
 780.859375 310 827 356.100585938 827 432 c 258
 827 437 l 258
 827 514.159179688 781.689453125 559.927734375 691 559.927734375 c 256
 600.310546875 559.927734375 555 514.159179688 555 437 c 258
 555 432 l 258
 555 356.100585938 601.140625 310 691 310 c 256
691 910 m 256
 741.428710938 910 777 947.231445312 777 1003 c 258
 777 1008 l 258
 777 1054.95996094 739.329101562 1090 691 1090 c 256
 642.670898438 1090 605 1054.95996094 605 1008 c 258
 605 1003 l 258
 605 947.231445312 640.571289062 910 691 910 c 256
722 760 m 257
 1152.07519531 760 1317 623.61328125 1317 392 c 258
 1317 347 l 258
 1317 99.75 1149.09082031 -35 691 -35 c 256
 282.909179688 -35 65 99.75 65 347 c 258
 65 392 l 258
 65 623.61328125 279.924804688 760 660 760 c 257
 662 720.282226562 l 257
 295.81640625 725.765625 115 837.047851562 115 1058 c 258
 115 1083 l 258
 115 1304.25878906 323.2265625 1435 691 1435 c 256
 1108.7734375 1435 1267 1304.25878906 1267 1083 c 258
 1267 1058 l 258
 1267 837.047851562 1136.18359375 725.765625 720 720.282226562 c 257
 722 760 l 257
EndSplineSet
EndChar

StartChar: nine
Encoding: 57 57 11
Width: 1429
VWidth: 1920
Flags: HMW
LayerCount: 2
Fore
SplineSet
699 760 m 260
 809 760 869 815 869 898 c 262
 869 958 l 261
 959 878 l 261
 959 614 826 510 529 510 c 260
 202 510 60 669 60 943 c 262
 60 993 l 262
 60 1271 308 1435 700 1435 c 260
 1177 1435 1354 1233 1354 873 c 262
 1354 557 l 262
 1354 177 1116 -35 689 -35 c 260
 202 -35 80 132.165039062 80 256 c 262
 80 258 l 262
 80 385 158 458 315 458 c 262
 325 458 l 262
 472 458 520 415 520 358 c 262
 520 356 l 262
 520 323.088867188 589 315 659 315 c 260
 786 315 869 412 869 562 c 262
 869 938 l 262
 869 1028 817 1085 710 1085 c 260
 591 1085 550 1023 550 943 c 262
 550 923 l 262
 550 840 589 760 699 760 c 260
EndSplineSet
EndChar

StartChar: A
Encoding: 65 65 12
Width: 1445
VWidth: 1920
Flags: HMW
AnchorPoint: "bottom" 662.741 0 basechar 0
AnchorPoint: "ogonek" 1167.74 0 basechar 0
AnchorPoint: "top" 711.741 1400 basechar 0
LayerCount: 2
Fore
SplineSet
347.7421875 520 m 261
 977.7421875 520 l 261
 977.7421875 270 l 261
 347.7421875 270 l 261
 347.7421875 520 l 261
660.05078125 978.3828125 m 261
 421.7421875 195 l 262
 375.094788426 41.657772145 302.079101562 -35 200.7421875 -35 c 262
 170.7421875 -35 l 262
 64.537109375 -35 4.514244555 75.8849669531 45.7421875 195 c 262
 390.7421875 1190 l 262
 431.90728514 1308.72252798 530.342773438 1400 667.7421875 1400 c 262
 777.7421875 1400 l 262
 916.819335938 1400 1015.36812317 1306.77207268 1056.7421875 1190 c 262
 1405.7421875 205 l 262
 1445.56485657 92.772478086 1385.38085938 -35 1242.7421875 -35 c 262
 1192.7421875 -35 l 262
 1056.68945312 -35 948.624639154 84.567261571 909.7421875 205 c 262
 660.05078125 978.3828125 l 261
EndSplineSet
EndChar

StartChar: B
Encoding: 66 66 13
Width: 1380
VWidth: 1920
Flags: HMW
AnchorPoint: "bottom" 675 0 basechar 0
AnchorPoint: "top" 644 1400 basechar 0
LayerCount: 2
Fore
SplineSet
560 840 m 257
 710 840 l 258
 786.808958218 840 815 888 815 938 c 258
 815 953 l 258
 815 1003 786.993164062 1050 710 1050 c 258
 560 1050 l 257
 560 840 l 257
850 750 m 257
 1107 750 1365 652 1365 402 c 258
 1365 347 l 258
 1365 67 1106.99511719 0 850 0 c 258
 330 0 l 262
 153 0 70 83 70 260 c 262
 70 1140 l 262
 70 1317 153 1400 330 1400 c 262
 830 1400 l 258
 1086.90527344 1400 1315 1313 1315 1063 c 258
 1315 1038 l 258
 1315 788 1087 700 830 700 c 257
 850 750 l 257
750 590 m 258
 560 590 l 257
 560 350 l 257
 750 350 l 258
 836.808276517 350 865 407 865 457 c 258
 865 482 l 258
 865 532 836.913284355 590 750 590 c 258
EndSplineSet
EndChar

StartChar: C
Encoding: 67 67 14
Width: 1440
VWidth: 1920
Flags: HMW
AnchorPoint: "bottom" 735 0 basechar 0
AnchorPoint: "top" 754 1400 basechar 0
LayerCount: 2
Fore
SplineSet
1381 428 m 260
 1330.69140625 194.735351562 1142 -35 745 -35 c 260
 258 -35 50 238 50 618 c 262
 50 783 l 262
 50 1163 258 1435 745 1435 c 260
 1142 1435 1274.67773438 1236.234375 1343 1063 c 260
 1398.4453125 922.416992188 1317 843 1220 843 c 262
 1170 843 l 262
 1083 843 1033.77376688 899.611900242 1008 963 c 260
 975.896984028 1041.95427891 902 1095 795 1095 c 260
 648 1095 550 1003 550 793 c 262
 550 608 l 262
 550 388 638 305 805 305 c 260
 942 305 985.94510274 343.645252143 1020 458 c 260
 1039.45924047 523.343216864 1103 628 1210 628 c 262
 1240 628 l 262
 1367 628 1404.13378906 535.263671875 1381 428 c 260
EndSplineSet
EndChar

StartChar: D
Encoding: 68 68 15
Width: 1430
VWidth: 1920
Flags: HMW
AnchorPoint: "bottom" 625 0 basechar 0
AnchorPoint: "top" 654 1400 basechar 0
LayerCount: 2
Fore
SplineSet
705 0 m 258
 320 0 l 262
 143 0 70 93 70 260 c 262
 70 1140 l 262
 70 1327 143 1400 320 1400 c 262
 705 1400 l 258
 1118.99902344 1400 1380 1168.79492188 1380 783 c 258
 1380 618 l 258
 1380 231.891601562 1159.19921875 0 705 0 c 258
665 350 m 258
 819.389648438 350 880 439.787109375 880 608 c 258
 880 793 l 258
 880 960.875 819.00390625 1050 665 1050 c 258
 560 1050 l 257
 560 350 l 257
 665 350 l 258
EndSplineSet
EndChar

StartChar: E
Encoding: 69 69 16
Width: 1310
VWidth: 1920
Flags: HMW
AnchorPoint: "bottom" 685 0 basechar 0
AnchorPoint: "ogonek" 1040 0 basechar 0
AnchorPoint: "top" 684 1400 basechar 0
LayerCount: 2
Fore
SplineSet
560 840 m 257
 850 840 l 258
 957 840 990 807 990 720 c 258
 990 710 l 258
 990 623 957 590 850 590 c 258
 560 590 l 257
 560 350 l 257
 1120 350 l 258
 1257 350 1310 277 1310 190 c 262
 1310 160 l 262
 1310 73 1257 -1.67776611483e-14 1120 0 c 258
 330 0 l 258
 153 0 70 83 70 260 c 258
 70 1150 l 258
 70 1327 153 1400 330 1400 c 258
 1100 1400 l 258
 1237 1400 1290 1327 1290 1240 c 262
 1290 1210 l 262
 1290 1123 1236.99902344 1050 1100 1050 c 258
 560 1050 l 257
 560 840 l 257
EndSplineSet
EndChar

StartChar: F
Encoding: 70 70 17
Width: 1220
VWidth: 1920
Flags: HMW
AnchorPoint: "bottom" 645 0 basechar 0
AnchorPoint: "top" 644 1400 basechar 0
LayerCount: 2
Fore
SplineSet
560 790 m 257
 820 790 l 262
 938.518554688 790 1000 758.595703125 1000 670 c 262
 1000 660 l 262
 1000 571.479492188 938.595703125 540 820 540 c 262
 560 540 l 257
 560 190 l 258
 560 31.4794921875 498.595703125 -30 340 -30 c 258
 290 -30 l 258
 131.479492188 -30 70 31.404296875 70 190 c 258
 70 1140 l 258
 70 1317 153 1400 330 1400 c 258
 1060 1400 l 262
 1177 1400 1240 1317 1240 1230 c 262
 1240 1220 l 262
 1240 1133 1176.99902344 1050 1060 1050 c 262
 560 1050 l 257
 560 790 l 257
EndSplineSet
EndChar

StartChar: G
Encoding: 71 71 18
Width: 1485
VWidth: 1920
Flags: HMW
AnchorPoint: "bottom" 745 0 basechar 0
AnchorPoint: "top" 744 1400 basechar 0
LayerCount: 2
Fore
SplineSet
790 625 m 258
 790 650 l 258
 790 727 843 760 980 760 c 258
 1225 760 l 258
 1352 760 1420 687 1420 560 c 258
 1420 130 l 258
 1420 13 1391 -30 1324 -30 c 258
 1315 -30 l 258
 1248 -30 1205.90241576 19.5529376009 1178 130 c 258
 1130 320 l 257
 1320 620 l 257
 1300 230 1052 -35 725 -35 c 256
 248 -35 50 238 50 618 c 258
 50 783 l 258
 50 1163 258 1435 745 1435 c 256
 1142 1435 1307.74635368 1209.25327751 1355 1033 c 256
 1393.9041368 887.889894156 1307 823 1207 823 c 258
 1187 823 l 258
 1091 823 1021.38624839 876.637899485 995 963 c 256
 970.209465212 1044.13933536 922 1095 795 1095 c 256
 648 1095 550 1003 550 793 c 258
 550 608 l 258
 550 388 628 305 805 305 c 256
 942.733864726 305 1034.97265625 413.125976562 1046 615 c 257
 1166 515 l 257
 980 515 l 258
 843 515 790 548 790 625 c 258
  Spiro
    790 625 [
    790 650 ]
    808.776 712.692 o
    869.936 748.616 o
    980 760 [
    1225 760 ]
    1331.91 736.417 o
    1397.71 668.207 o
    1420 560 [
    1420 130 ]
    1410.02 36.5897 o
    1378.62 -14.5506 o
    1324 -30 [
    1315 -30 ]
    1255.96 -13.0966 o
    1210.99 39.5021 o
    1178 130 [
    1130 320 v
    1320 620 v
    1229.67 277.143 o
    1019.89 47.9871 o
    725 -35 o
    338.3 49.6884 o
    118.859 280.105 o
    50 618 [
    50 783 ]
    121.816 1120.64 o
    348.679 1350.57 o
    745 1435 o
    1068.84 1370.07 o
    1264.21 1215.38 o
    1355 1033 o
    1356.17 914.156 o
    1298.38 845.153 o
    1207 823 [
    1187 823 ]
    1100.5 840.071 o
    1035.12 888.383 o
    995 963 o
    960.399 1033.23 o
    897.707 1078.84 o
    795 1095 o
    666.257 1063.43 o
    580.792 964.495 o
    550 793 [
    550 608 ]
    576.723 431.801 o
    660.336 334.605 o
    805 305 o
    926.143 340.439 o
    1009.29 445.046 o
    1046 615 v
    1166 515 v
    980 515 ]
    869.936 526.384 o
    808.776 562.308 o
    0 0 z
  EndSpiro
EndSplineSet
EndChar

StartChar: H
Encoding: 72 72 19
Width: 1420
VWidth: 1920
Flags: HMW
AnchorPoint: "bottom" 705 0 basechar 0
AnchorPoint: "top" 704 1400 basechar 0
LayerCount: 2
Fore
SplineSet
1100 1430 m 262
 1110 1430 l 262
 1267 1430 1350 1337 1350 1170 c 262
 1350 230 l 262
 1350 63 1267 -30 1110 -30 c 262
 1100 -30 l 262
 943 -30 860 63 860 230 c 262
 860 540 l 257
 560 540 l 257
 560 230 l 262
 560 63 477 -30 320 -30 c 262
 310 -30 l 262
 153 -30 70 63 70 230 c 262
 70 1170 l 262
 70 1337 153 1430 310 1430 c 262
 320 1430 l 262
 477 1430 560 1337 560 1170 c 262
 560 890 l 257
 860 890 l 257
 860 1170 l 262
 860 1337 943 1430 1100 1430 c 262
EndSplineSet
EndChar

StartChar: I
Encoding: 73 73 20
Width: 630
VWidth: 1920
Flags: HMW
AnchorPoint: "bottom" 320 0 basechar 0
AnchorPoint: "ogonek" 320 0 basechar 0
AnchorPoint: "top" 319 1400 basechar 0
LayerCount: 2
Fore
SplineSet
310 1430 m 262
 320 1430 l 262
 467 1430 560 1347 560 1170 c 262
 560 230 l 262
 560 53 467 -30 320 -30 c 262
 310 -30 l 262
 163 -30 70 53 70 230 c 262
 70 1170 l 262
 70 1347 163 1430 310 1430 c 262
EndSplineSet
EndChar

StartChar: J
Encoding: 74 74 21
Width: 1240
VWidth: 1920
Flags: HMW
AnchorPoint: "bottom" 577 0 basechar 0
AnchorPoint: "top" 976 1400 basechar 0
LayerCount: 2
Fore
SplineSet
915 1430 m 258
 925 1430 l 258
 1072 1430 1170 1347 1170 1170 c 258
 1170 538 l 258
 1170 152.475585938 1020.64941406 -35 575.575195312 -35 c 256
 179.5703125 -35 20 154.524414062 20 478 c 258
 20 503 l 262
 20 620 93 693 200 693 c 258
 210 693 l 258
 317 693 390 620 390 503 c 262
 390 488 l 258
 390 376.828125 439.043945312 325 532.811523438 325 c 256
 627.5859375 325 670 368.626953125 670 508 c 258
 670 1170 l 258
 670 1347 768 1430 915 1430 c 258
EndSplineSet
EndChar

StartChar: K
Encoding: 75 75 22
Width: 1460
VWidth: 1920
Flags: HMW
AnchorPoint: "bottom" 645 0 basechar 0
AnchorPoint: "top" 644 1400 basechar 0
LayerCount: 2
Fore
SplineSet
310 1430 m 258
 320 1430 l 258
 467 1430 560 1347 560 1170 c 258
 560 230 l 258
 560 53 467 -30 320 -30 c 258
 310 -30 l 258
 163 -30 70 53 70 230 c 258
 70 1170 l 258
 70 1347 163 1430 310 1430 c 258
550 710 m 257
 890 960 l 257
 1340 316 l 258
 1463.43529701 139.350374948 1337 -30 1180 -30 c 258
 1170 -30 l 258
 1013 -30 920.512923367 63.4673820447 848 190 c 266
 550 710 l 257
890 1270 m 258
 951.987748439 1341.37983154 1045 1430 1160 1430 c 258
 1174 1430 l 258
 1337 1430 1381.02990192 1260.96707603 1256 1130 c 258
 540 380 l 257
 230 510 l 257
 890 1270 l 258
EndSplineSet
EndChar

StartChar: L
Encoding: 76 76 23
Width: 1135
VWidth: 1920
Flags: HMW
AnchorPoint: "bottom" 645 0 basechar 0
AnchorPoint: "top" 284 1400 basechar 0
LayerCount: 2
Fore
SplineSet
310 1430 m 258
 320 1430 l 258
 467 1430 560 1347 560 1160 c 258
 560 350 l 257
 900 350 l 258
 1077 350 1150 287 1150 180 c 258
 1150 170 l 258
 1150 63 1077 -2.16762483449e-14 900 0 c 258
 350 0 l 258
 163 0 70 93 70 280 c 258
 70 1160 l 258
 70 1347 163 1430 310 1430 c 258
EndSplineSet
EndChar

StartChar: M
Encoding: 77 77 24
Width: 1840
VWidth: 1920
Flags: HMW
AnchorPoint: "bottom" 865 0 basechar 0
AnchorPoint: "top" 864 1400 basechar 0
LayerCount: 2
Fore
SplineSet
400 830 m 261
 400 190 l 262
 400 43 327 -30 230 -30 c 262
 220 -30 l 262
 123 -30 50 43 50 190 c 262
 50 1150 l 262
 50 1317 153 1410 360 1410 c 262
 380 1410 l 262
 597 1410 698.271429465 1328.25741488 754 1160 c 262
 910 689 l 261
 1079 1140 l 262
 1150.73074199 1331.4234594 1263 1415 1430 1415 c 262
 1490 1415 l 262
 1677 1415 1770 1317 1770 1160 c 262
 1770 230 l 262
 1770 63 1687 -30 1540 -30 c 262
 1530 -30 l 262
 1383 -30 1300 63 1300 230 c 262
 1300 830 l 261
 1074 210 l 262
 1026.39943302 79.4143737614 979 9 862 9 c 262
 860 9 l 262
 746 9 685.271224986 80.5586462243 636 210 c 262
 400 830 l 261
EndSplineSet
EndChar

StartChar: N
Encoding: 78 78 25
Width: 1380
VWidth: 1920
Flags: HMW
AnchorPoint: "bottom" 685 0 basechar 0
AnchorPoint: "top" 694 1400 basechar 0
LayerCount: 2
Fore
SplineSet
1140 1430 m 262
 1150 1430 l 262
 1297 1430 1330 1347 1330 1190 c 262
 1330 170 l 262
 1330 23 1257 -30 1135 -30 c 262
 1031 -30 l 262
 894 -30 788.792870898 49.79858888 733 180 c 262
 420 910.434570312 l 261
 420 230 l 262
 420 63 387 -30 240 -30 c 262
 230 -30 l 262
 83 -30 50 63 50 230 c 262
 50 1150 l 262
 50 1327 153 1420 310 1420 c 262
 420 1420 l 262
 593 1420 710.511463531 1341.91615428 776 1160 c 262
 960 648.87890625 l 261
 960 1190 l 262
 960 1347 993 1430 1140 1430 c 262
EndSplineSet
EndChar

StartChar: O
Encoding: 79 79 26
Width: 1590
VWidth: 1920
Flags: HMW
AnchorPoint: "bottom" 795 0 basechar 0
AnchorPoint: "top" 794 1400 basechar 0
LayerCount: 2
Fore
SplineSet
50 618 m 258
 50 783 l 258
 50 1168.79492188 313.346679688 1435 795 1435 c 256
 1276.65332031 1435 1540 1168.79492188 1540 783 c 258
 1540 618 l 258
 1540 231.891601562 1276.37792969 -35 795 -35 c 256
 313.622070312 -35 50 231.891601562 50 618 c 258
550 608 m 258
 550 409.787109375 631.172851562 305 795 305 c 256
 958.827148438 305 1040 409.787109375 1040 608 c 258
 1040 793 l 258
 1040 990.875 959.051757812 1095 795 1095 c 256
 630.948242188 1095 550 990.875 550 793 c 258
 550 608 l 258
EndSplineSet
EndChar

StartChar: P
Encoding: 80 80 27
Width: 1330
VWidth: 1920
Flags: HMW
AnchorPoint: "bottom" 275 0 basechar 0
AnchorPoint: "top" 624 1400 basechar 0
LayerCount: 2
Fore
SplineSet
560 1050 m 261
 560 750 l 261
 670 750 l 262
 787 750 825 798 825 888 c 262
 825 912 l 262
 825 1002 787 1050 670 1050 c 262
 560 1050 l 261
720 1400 m 262
 1106.87988281 1400 1275 1252 1275 982 c 262
 1275 918 l 262
 1275 648 1107 500 720 500 c 262
 560 500 l 261
 560 230 l 262
 560 63 467 -30 320 -30 c 262
 310 -30 l 262
 163 -30 70 63 70 230 c 262
 70 1110 l 262
 70 1297 173 1400 360 1400 c 262
 720 1400 l 262
EndSplineSet
EndChar

StartChar: Q
Encoding: 81 81 28
Width: 1660
VWidth: 1920
Flags: HMW
AnchorPoint: "bottom" 765 0 basechar 0
AnchorPoint: "top" 764 1400 basechar 0
LayerCount: 2
Fore
SplineSet
1675 216 m 258
 1675 210 l 258
 1675 72.8271484375 1607.91624448 12.1442191428 1473.53417969 -3 c 256
 1317.1824827 -20.6200921319 1160 92.7939453125 1160 358 c 257
 1270 588 l 257
 1270 238 1222 -35 745 -35 c 256
 268 -35 70 258 70 608 c 258
 70 793 l 258
 70 1143 278 1435 765 1435 c 256
 1252 1435 1460 1143 1460 793 c 258
 1460 598 l 258
 1460 484.23828125 1502.45605469 450.012695312 1543 440.303710938 c 256
 1644.77539062 415.931640625 1675 347.688476562 1675 216 c 258
960 608 m 258
 960 793 l 258
 960 963 922 1095 765 1095 c 256
 608 1095 570 963 570 793 c 258
 570 608 l 258
 570 428 608 305 765 305 c 256
 922 305 960 428 960 608 c 258
EndSplineSet
EndChar

StartChar: R
Encoding: 82 82 29
Width: 1370
VWidth: 1920
Flags: HMW
AnchorPoint: "bottom" 675 0 basechar 0
AnchorPoint: "top" 674 1400 basechar 0
LayerCount: 2
Fore
SplineSet
560 1050 m 261
 560 740 l 261
 660 740 l 262
 787 740 815 803 815 893 c 262
 815 897 l 262
 815 977 787 1050 660 1050 c 262
 560 1050 l 261
760 1400 m 262
 1166.99707031 1400 1315 1212 1315 982 c 262
 1315 958 l 262
 1315 718 1087 580 760 580 c 261
 760 640 l 261
 1117 640 1325 612 1325 372 c 262
 1325 358 l 262
 1325 304.202148438 1338.24511719 260.283203125 1348.37011719 228 c 260
 1356.67871094 201.5078125 1373 155.665039062 1373 103 c 262
 1373 98 l 262
 1373 12 1317 -30 1170 -30 c 262
 1140 -30 l 262
 987.829101562 -30 885.456152221 0.812359970103 844.77734375 139 c 260
 828.989250442 192.632823498 815 240.670898438 815 328 c 262
 815 372 l 262
 815 452 787 490 680 490 c 262
 560 490 l 261
 560 240 l 262
 560 63 477 -30 320 -30 c 262
 310 -30 l 262
 153 -30 70 63 70 240 c 262
 70 1090 l 262
 70 1297 173 1400 380 1400 c 262
 760 1400 l 262
EndSplineSet
EndChar

StartChar: S
Encoding: 83 83 30
Width: 1359
VWidth: 1920
Flags: HMW
AnchorPoint: "bottom" 644 0 basechar 0
AnchorPoint: "top" 653 1400 basechar 0
LayerCount: 2
Fore
SplineSet
199 528 m 262
 209 528 l 262
 301.7734375 528 389 468 389 391 c 258
 389 390 l 258
 389 336.4140625 458.641601562 285 679 285 c 256
 847.124023438 285 889 326.604492188 889 368 c 256
 889 411.729492188 858.109375 425.2265625 657 464.35546875 c 256
 354.51953125 523.208007812 69 614.966796875 69 973 c 256
 69 1243 267 1435 679 1435 c 256
 1093 1435 1249 1236 1249 1061 c 258
 1249 1059 l 258
 1249 992 1204.14453125 913 1079 913 c 258
 1069 913 l 258
 953.85546875 913 899 972 899 1029 c 258
 899 1031 l 258
 899 1076 844 1135 669 1135 c 256
 547 1135 499 1083 499 1043 c 256
 499 991.723632812 546.307617188 969.385742188 677 942.26171875 c 256
 1047.10253906 865.451171875 1329 756.510742188 1329 428 c 256
 1329 120.7265625 1088.34179688 -35 649.27734375 -35 c 256
 260.790039062 -35 20 133.553710938 20 360 c 258
 20 361 l 258
 20 468 106.296875 528 199 528 c 262
EndSplineSet
EndChar

StartChar: T
Encoding: 84 84 31
Width: 1350
VWidth: 1920
Flags: HMW
AnchorPoint: "bottom" 625 0 basechar 0
AnchorPoint: "top" 674 1400 basechar 0
LayerCount: 2
Fore
SplineSet
250 1400 m 262
 1100 1400 l 262
 1277 1400 1350 1337 1350 1230 c 262
 1350 1220 l 262
 1350 1113 1277 1050 1100 1050 c 262
 920 1050 l 261
 920 230 l 262
 920 53 827 -30 680 -30 c 262
 670 -30 l 262
 523 -30 430 53 430 230 c 262
 430 1050 l 261
 250 1050 l 262
 73 1050 -6.55186037544e-15 1113 0 1220 c 262
 0 1230 l 262
 -6.55186037544e-15 1337 73 1400 250 1400 c 262
EndSplineSet
EndChar

StartChar: U
Encoding: 85 85 32
Width: 1371
VWidth: 1920
Flags: HMW
AnchorPoint: "bottom" 700.069 0 basechar 0
AnchorPoint: "ogonek" 795.069 0 basechar 0
AnchorPoint: "top" 699.069 1400 basechar 0
LayerCount: 2
Fore
SplineSet
950.06933594 588 m 258
 950.069335938 1170 l 258
 950.069335937 1347 1017.06933594 1430 1134.06933594 1430 c 258
 1136.06933594 1430 l 258
 1253.06933594 1430 1320.06933594 1347 1320.06933594 1170 c 258
 1320.06933594 498 l 258
 1316.52246094 178.043756138 1192.06933594 -35 695.069335938 -35 c 256
 138.069335938 -35 60.069335938 208.009967088 60.069335938 588 c 258
 60.0693359375 1170 l 258
 60.0693359373 1347 158.069335938 1430 305.069335938 1430 c 258
 315.069335938 1430 l 258
 462.069335938 1430 560.069335937 1347 560.069335938 1170 c 258
 560.069335938 658 l 258
 560.069335938 408.067794141 598.069335938 305 765.069335938 305 c 256
 892.069335938 305 950.06933594 378.011928147 950.06933594 588 c 258
EndSplineSet
EndChar

StartChar: V
Encoding: 86 86 33
Width: 1445
VWidth: 1920
Flags: HMW
AnchorPoint: "bottom" 782.265 0 basechar 0
AnchorPoint: "top" 781.265 1400 basechar 0
LayerCount: 2
Fore
SplineSet
785.264648438 422 m 257
 1008.26464844 1155 l 258
 1068.99120468 1354.60791806 1124.26464844 1435 1254.26464844 1435 c 258
 1264.26464844 1435 l 258
 1404.26464844 1435 1443.71824099 1332.40056415 1382.26464844 1155 c 258
 1072.26464844 260 l 258
 1011.03179599 83.2148292179 917.236328125 -2.32648209458e-14 727.264648438 0 c 258
 717.264648438 0 l 258
 527.23046875 0 433.93535023 83.6154776602 371.264648438 260 c 258
 53.2646484375 1155 l 258
 -3.0785866703 1313.70264336 92.2646484375 1435 262.264648438 1435 c 258
 272.264648438 1435 l 258
 432.264648438 1435 496.96157007 1317.44981544 549.264648438 1155 c 258
 785.264648438 422 l 257
EndSplineSet
EndChar

StartChar: W
Encoding: 87 87 34
Width: 1834
VWidth: 1920
Flags: HMW
AnchorPoint: "bottom" 932.613 0 basechar 0
AnchorPoint: "top" 931.613 1400 basechar 0
LayerCount: 2
Fore
SplineSet
577.544921875 690.13671875 m 257
 726.61328125 1220 l 258
 764.922504186 1356.17008098 835.61328125 1430 932.61328125 1430 c 258
 992.61328125 1430 l 258
 1099.61328125 1430 1165.33338345 1337.11104811 1199.61328125 1220 c 258
 1365.32128906 653.888671875 l 257
 1466.61328125 1170 l 258
 1501.78532887 1349.21152321 1570.61328125 1430 1677.61328125 1430 c 258
 1682.61328125 1430 l 258
 1809.61328125 1430 1881.35825462 1336.46738743 1839.61328125 1160 c 258
 1619.61328125 230 l 258
 1579.97904363 62.4552682409 1489.64160156 -30 1332.61328125 -30 c 258
 1322.61328125 -30 l 258
 1165.64746094 -30 1074.18261315 66.0256814796 1025.61328125 230 c 258
 900.915039062 650.9921875 l 257
 763.61328125 230 l 258
 713.959522629 77.7525357829 649.641601562 -30 502.61328125 -30 c 258
 467.61328125 -30 l 258
 320.61328125 -30 261.217088817 61.4481641424 222.61328125 230 c 258
 9.61328125 1160 l 258
 -28.3651653964 1325.82138677 85.61328125 1430 232.61328125 1430 c 258
 237.61328125 1430 l 258
 394.61328125 1430 467.368329376 1329.7868589 496.61328125 1160 c 258
 577.544921875 690.13671875 l 257
EndSplineSet
EndChar

StartChar: X
Encoding: 88 88 35
Width: 1433
VWidth: 1920
Flags: HMW
AnchorPoint: "bottom" 732 0 basechar 0
AnchorPoint: "top" 731 1400 basechar 0
LayerCount: 2
Fore
SplineSet
1154 1430 m 262
 1159 1430 l 258
 1310 1430 1387.66285382 1293.56824985 1264 1140 c 258
 958 760 l 257
 1275 380 l 258
 1444.3503823 175.896933387 1374 -30 1197 -30 c 258
 1172 -30 l 258
 1005 -30 895.602751036 99.8723793892 787 230 c 258
 656 383 l 257
 557 250 l 262
 450.12328535 106.418151025 319 -30 172 -30 c 258
 167 -30 l 258
 20 -30 -35.8121835536 147.891651143 79 282 c 258
 436 699 l 257
 183 1041 l 258
 32.3152261999 1240.80911398 130 1430 307 1430 c 258
 332 1430 l 258
 465 1430 581.52753753 1316.78253608 681 1170 c 258
 753 1069 l 257
 840 1200 l 262
 916.83099344 1315.68804759 1007 1430 1154 1430 c 262
EndSplineSet
EndChar

StartChar: Y
Encoding: 89 89 36
Width: 1490
VWidth: 1920
Flags: HMW
AnchorPoint: "bottom" 750.039 0 basechar 0
AnchorPoint: "top" 779.039 1400 basechar 0
LayerCount: 2
Fore
SplineSet
1235.0390625 1430 m 258
 1250.0390625 1430 l 258
 1397.0390625 1430 1446.84903805 1317.53979631 1359.0390625 1170 c 258
 990.0390625 550 l 257
 990.0390625 240 l 258
 990.0390625 63 897.0390625 -30 750.0390625 -30 c 258
 740.0390625 -30 l 258
 593.0390625 -30 500.0390625 63 500.0390625 240 c 258
 500.0390625 550 l 257
 154.0390625 1132 l 258
 55.37347137 1297.96350878 188.0390625 1430 345.0390625 1430 c 258
 360.0390625 1430 l 258
 497.09765625 1430 589.070705397 1372.5436843 677.0390625 1200 c 258
 830.0390625 899.901367188 l 257
 983.0390625 1200 l 258
 1066.81396858 1364.31852796 1133.9296875 1430 1235.0390625 1430 c 258
  Spiro
    1235.04 1430 [
    1250.04 1430 ]
    1363.07 1395.45 o
    1402.47 1302.87 o
    1359.04 1170 [
    990.039 550 v
    990.039 240 ]
    960.541 91.4534 o
    877.488 0.605697 o
    750.039 -30 [
    740.039 -30 ]
    612.59 0.605697 o
    529.537 91.4534 o
    500.039 240 [
    500.039 550 v
    154.039 1132 ]
    124.785 1282.89 o
    203.935 1389.7 o
    345.039 1430 [
    360.039 1430 ]
    483.479 1408.76 o
    586.309 1336.21 o
    677.039 1200 [
    830.039 899.901 v
    983.039 1200 ]
    1063.06 1332.56 o
    1143.47 1406.93 o
    0 0 z
  EndSpiro
EndSplineSet
EndChar

StartChar: Z
Encoding: 90 90 37
Width: 1270
VWidth: 1920
Flags: HMW
AnchorPoint: "bottom" 637.66 0 basechar 0
AnchorPoint: "top" 696.66 1400 basechar 0
LayerCount: 2
Fore
SplineSet
84.66015625 280 m 258
 638.731445312 1050 l 257
 292.66015625 1050 l 258
 145.66015625 1050 62.66015625 1123 62.66015625 1220 c 258
 62.66015625 1230 l 258
 62.66015625 1327 145.66015625 1400 292.66015625 1400 c 258
 1002.66015625 1400 l 258
 1189.66015625 1400 1239.24320675 1242.45765223 1136.66015625 1100 c 258
 596.588867188 350 l 257
 1012.66015625 350 l 258
 1169.66015625 350 1252.66015625 297 1252.66015625 180 c 258
 1252.66015625 170 l 258
 1252.66015625 53 1169.66015625 0 1012.66015625 0 c 258
 182.66015625 0 l 258
 35.66015625 0 -19.1341918561 135.755658849 84.66015625 280 c 258
  Spiro
    84.6602 280 [
    638.731 1050 v
    292.66 1050 ]
    167.799 1072.48 o
    89.5699 1132.89 o
    62.6602 1220 [
    62.6602 1230 ]
    89.5699 1317.11 o
    167.799 1377.52 o
    292.66 1400 [
    1002.66 1400 ]
    1143.21 1353.97 o
    1189.06 1240.96 o
    1136.66 1100 [
    596.589 350 v
    1012.66 350 ]
    1144.55 331.962 o
    1225.38 275.998 o
    1252.66 180 [
    1252.66 170 ]
    1225.38 74.0015 o
    1144.55 18.0375 o
    1012.66 0 [
    182.66 0 ]
    68.9322 40.462 o
    31.2756 143.423 o
    0 0 z
  EndSpiro
EndSplineSet
EndChar

StartChar: a
Encoding: 97 97 38
Width: 1290
VWidth: 1920
Flags: HMW
AnchorPoint: "bottom" 631.04 0 basechar 0
AnchorPoint: "ogonek" 1036.04 0 basechar 0
AnchorPoint: "top" 660.04 1050 basechar 0
LayerCount: 2
Fore
SplineSet
516.040039062 320 m 260
 516.040039062 256.396484375 548.221679688 235 596.040039062 235 c 260
 680.040039062 235 734.040039062 292 734.040039062 438 c 261
 864.040039062 328 l 261
 864.040039062 125 693.040039062 -35 412.040039062 -35 c 260
 172.776367188 -35 26.0400390625 55.109375 26.0400390625 270 c 260
 26.0400390625 461.0078125 144.599609375 575.212890625 485.040039062 615 c 260
 669.09765625 636.510742188 734.040039062 675 734.040039062 718 c 261
 774.040039062 538 l 261
 774.040039062 475 706.123046875 453.532226562 642.040039062 440 c 260
 564.118164062 423.545898438 516.040039062 400.081054688 516.040039062 320 c 260
734.040039062 258 m 262
 734.040039062 738 l 262
 734.040039062 778 714.040039062 805 659.040039062 805 c 260
 612.293945312 805 591.375 786.749023438 574.17578125 762 c 260
 521.74568413 686.555078849 480.903320312 648 344.040039062 648 c 262
 334.040039062 648 l 262
 186.973632812 648 125.500385925 753.16126495 163.893554688 862 c 260
 205.846679688 980.930664062 368.421875 1085 684.040039062 1085 c 260
 1044.04003906 1085 1214.04003906 961 1214.04003906 693 c 262
 1214.04003906 278 l 262
 1214.04003906 243.612304688 1214.80566406 181.635742188 1221.45800781 157 c 260
 1249.390625 53.5576171875 1171.65039062 -30 1025.04003906 -30 c 262
 1021.04003906 -30 l 262
 877.723632812 -30 781.771484375 32.3681640625 758.376953125 97 c 260
 745.823673193 131.680820075 734.040039062 162.8359375 734.040039062 258 c 262
EndSplineSet
EndChar

StartChar: b
Encoding: 98 98 39
Width: 1315
VWidth: 1920
Flags: HMW
LayerCount: 2
Fore
SplineSet
290 1480 m 258
 300 1480 l 258
 447 1480 540 1397 540 1230 c 258
 540 335 l 257
 313 65 l 258
 267.563853966 10.9570069201 227 -25 170 -25 c 258
 159 -25 l 258
 92 -25 50 28 50 185 c 258
 50 1230 l 258
 50 1397 143 1480 290 1480 c 258
480 633 m 257
 480 923 617 1085 874 1085 c 256
 1141 1085 1290 943 1290 603 c 258
 1290 447 l 258
 1290 127 1101 -35 784 -35 c 256
 497 -35 290 127 290 417 c 257
 540 487 l 257
 540 347 587 305 664 305 c 256
 751 305 800 357 800 467 c 258
 800 583 l 258
 800 693 751 745 664 745 c 256
 587 745 540 673 540 563 c 257
 480 633 l 257
EndSplineSet
EndChar

StartChar: c
Encoding: 99 99 40
Width: 1130
VWidth: 1920
Flags: HMW
AnchorPoint: "bottom" 640.393 0 basechar 0
AnchorPoint: "top" 634.393 1050 basechar 0
LayerCount: 2
Fore
SplineSet
1086.98046875 270 m 256
 1018.66297397 110.526843681 884.887695312 -35 580.392578125 -35 c 256
 200.392578125 -35 25.392578125 151 25.392578125 448 c 258
 25.392578125 603 l 258
 25.392578125 900 205.392578125 1085 585.392578125 1085 c 256
 904.963867188 1085 1032.92055231 933.840509722 1078.03417969 791 c 256
 1122.53346817 650.104633819 1048.43457031 583 961.392578125 583 c 258
 946.392578125 583 l 258
 849.434570312 583 808.614824806 617.277385488 784.982419814 689.999965035 c 256
 770.960217189 733.149646421 727.427734375 795 640.392578125 795 c 256
 556.392578125 795 515.392578125 733 515.392578125 583 c 258
 515.392578125 468 l 258
 515.392578125 325 566.392578125 255 655.392578125 255 c 256
 722.223632812 255 777.501926513 301.545558992 794.940943068 361.00001102 c 256
 815.733786586 431.888590866 863.439453125 468 950.392578125 468 c 258
 960.392578125 468 l 262
 1057.44140625 468 1140.46685561 394.852981815 1086.98046875 270 c 256
EndSplineSet
EndChar

StartChar: d
Encoding: 100 100 41
Width: 1315
VWidth: 1920
Flags: HMW
LayerCount: 2
Fore
SplineSet
835 417 m 257
 835 127 698 -35 441 -35 c 256
 174 -35 25 107 25 447 c 258
 25 603 l 258
 25 943 174 1085 441 1085 c 256
 698 1085 835 923 835 633 c 257
 775 563 l 257
 775 673 728 745 651 745 c 256
 564 745 515 693 515 583 c 258
 515 467 l 258
 515 357 564 305 651 305 c 256
 728 305 775 377 775 487 c 257
 835 417 l 257
1265 1220 m 262
 1265 230 l 262
 1265 63 1177 -30 1030 -30 c 262
 1025 -30 l 262
 878 -30 790 63 790 230 c 262
 790 240 l 257
 775 252 l 257
 775 1220 l 262
 775 1387 868 1480 1015 1480 c 262
 1025 1480 l 262
 1172 1480 1265 1387 1265 1220 c 262
EndSplineSet
EndChar

StartChar: e
Encoding: 101 101 42
Width: 1258
VWidth: 1920
Flags: HMW
AnchorPoint: "bottom" 633 0 basechar 0
AnchorPoint: "ogonek" 839 60 basechar 0
AnchorPoint: "top" 644 1050 basechar 0
LayerCount: 2
Fore
SplineSet
1184 199.15234375 m 260
 1110.66990586 74.8731629057 932.131835938 -35 631 -35 c 260
 262 -35 25 138 25 448 c 262
 25 603 l 262
 25 903 262 1085 639 1085 c 260
 976 1085 1172.48144531 907.353515625 1215 724 c 260
 1221.95894899 693.990801164 1225 656.6171875 1225 643 c 260
 1225.00390625 478 1140 435 983 435 c 262
 299 435 l 261
 299 605 l 261
 759 605 l 261
 754 747 707 805 634 805 c 260
 567 805 515 753 515 633 c 262
 515 418 l 262
 515 268 562 245 639 245 c 260
 701.272460938 245 740.553710938 262.696289062 761.6484375 282 c 260
 812.442382812 328.481445312 876.044921875 388 1003 388 c 262
 1014 388 l 262
 1146.0625 388 1247.81004438 307.29703031 1184 199.15234375 c 260
EndSplineSet
EndChar

StartChar: f
Encoding: 102 102 43
Width: 770
VWidth: 1920
Flags: HMW
LayerCount: 2
Fore
SplineSet
580 810 m 258
 190 810 l 258
 43 810 -20 830 -20 927 c 258
 -20 937 l 258
 -20 1034 43 1050 190 1050 c 258
 580 1050 l 258
 727 1050 790 1034 790 937 c 258
 790 927 l 258
 790 830 727 810 580 810 c 258
130 1188 m 262
 130 1425.14550781 359.596679688 1481.34570312 678 1435.16601562 c 260
 756.223708273 1423.82082488 790 1397.046875 790 1310 c 262
 790 1300 l 262
 790 1213.15625 749.431110694 1189.40176321 674.000005336 1165.88955969 c 260
 637.241811668 1154.43187089 615 1133.49511719 615 1068 c 262
 615 180 l 262
 615 53 522 -30 395 -30 c 262
 350 -30 l 262
 223 -30 130 53 130 180 c 262
 130 1188 l 262
EndSplineSet
EndChar

StartChar: g
Encoding: 103 103 44
Width: 1270
VWidth: 1920
Flags: HMW
AnchorPoint: "top" 595 1100 basechar 0
LayerCount: 2
Fore
SplineSet
1261 1140 m 256
 1224.74804688 1029.17382812 1094 1070 755 970 c 261
 725 1000 l 257
 784 1000 817.393050184 1047.89936584 841 1141 c 256
 872.225061731 1264.14479725 971 1300 1078 1300 c 258
 1088 1300 l 258
 1215 1300 1289.90488219 1228.36537525 1261 1140 c 256
823 340 m 258
 1143 340 1285 242 1285 25 c 256
 1285 -212 1083 -360 693 -360 c 258
 468 -360 l 258
 138 -360 -15 -292 -15 -135 c 256
 -15 -18 118 90 428 90 c 257
 618 50 l 257
 498 50 445 -8 445 -65 c 256
 445 -132 488 -160 608 -160 c 258
 623 -160 l 258
 743 -160 825 -132 825 -75 c 256
 825 -28 793 0 713 0 c 258
 418 0 l 258
 178 0 6 118 6 305 c 256
 6 512 200 595 440 595 c 257
 420 495 l 257
 360 495 316 462 316 415 c 256
 316 363 518 340 648 340 c 258
 823 340 l 258
765 738 m 258
 765 753 l 258
 765 795 742 835 670 835 c 256
 602 835 575 798 575 753 c 258
 575 738 l 258
 575 703 602 655 670 655 c 256
 742 655 765 695 765 738 c 258
1235 738 m 258
 1235 548 1037 405 670 405 c 256
 303 405 105 548 105 738 c 258
 105 753 l 258
 105 943 303 1085 670 1085 c 256
 1037 1085 1235 943 1235 753 c 258
 1235 738 l 258
EndSplineSet
EndChar

StartChar: h
Encoding: 104 104 45
Width: 1255
VWidth: 1920
Flags: HMW
AnchorPoint: "bottom" 629 0 basechar 0
AnchorPoint: "top" 820 1050 basechar 0
LayerCount: 2
Fore
SplineSet
290 1480 m 262
 300 1480 l 262
 447 1480 540 1397 540 1220 c 262
 540 230 l 262
 540 53 446.595703125 -30 300 -30 c 262
 290 -30 l 262
 143 -30 50 53 50 230 c 262
 50 1220 l 262
 50 1397 143 1480 290 1480 c 262
490 703 m 257
 490 943 648 1085 865 1085 c 256
 1092 1085 1210 972.995117188 1210 663 c 258
 1210 230 l 262
 1210 53 1117 -30 970 -30 c 262
 960 -30 l 262
 813 -30 720 53 720 230 c 262
 720 613 l 258
 720 713 702 755 645 755 c 256
 588 755 540 683 540 473 c 257
 490 703 l 257
EndSplineSet
EndChar

StartChar: i
Encoding: 105 105 46
Width: 590
VWidth: 1920
Flags: HMW
AnchorPoint: "bottom" 296 0 basechar 0
AnchorPoint: "ogonek" 296 0 basechar 0
LayerCount: 2
Fore
SplineSet
490 1365 m 258
 490 1345 l 258
 490 1230.76660156 420.072265625 1160 300 1160 c 258
 290 1160 l 258
 169.927734375 1160 100 1230.76660156 100 1345 c 258
 100 1365 l 258
 100 1479.23339844 169.927734375 1550 290 1550 c 258
 300 1550 l 258
 420.072265625 1550 490 1479.23339844 490 1365 c 258
540 820 m 262
 540 230 l 262
 540 53 447 -30 300 -30 c 262
 290 -30 l 262
 143 -30 50 53 50 230 c 262
 50 820 l 262
 50 997 143 1080 290 1080 c 262
 300 1080 l 262
 447 1080 540 997 540 820 c 262
EndSplineSet
EndChar

StartChar: j
Encoding: 106 106 47
Width: 590
VWidth: 1920
Flags: HMW
LayerCount: 2
Fore
SplineSet
490 1365 m 258
 490 1345 l 258
 490 1230.76660156 420.072265625 1160 300 1160 c 258
 290 1160 l 258
 169.927734375 1160 100 1230.76660156 100 1345 c 258
 100 1365 l 258
 100 1479.23339844 169.927734375 1550 290 1550 c 258
 300 1550 l 258
 420.072265625 1550 490 1479.23339844 490 1365 c 258
540 2 m 262
 540 -355.388671875 257.946289062 -382.411132812 1 -346.072265625 c 260
 -96.9423828125 -332.220703125 -170 -287.040039062 -170 -210 c 262
 -170 -200 l 262
 -170 -123.059570312 -127.002513022 -73.2267415465 -50.0000119725 -75.2153783005 c 260
 -9.888042186 -76.839181161 50 -55.2080078125 50 72 c 262
 50 820 l 262
 50 997 143 1080 290 1080 c 262
 300 1080 l 262
 447 1080 540 997 540 820 c 262
 540 2 l 262
EndSplineSet
EndChar

StartChar: k
Encoding: 107 107 48
Width: 1340
VWidth: 1920
Flags: HMW
LayerCount: 2
Fore
SplineSet
290 1480 m 262
 300 1480 l 262
 447 1480 540 1397 540 1220 c 262
 540 230 l 262
 540 63 447 -30 300 -30 c 262
 290 -30 l 262
 143 -30 50 63 50 230 c 262
 50 1220 l 262
 50 1397 143 1480 290 1480 c 262
270 463 m 261
 641 900 l 262
 744.803621528 1022.27003398 813 1080 941 1080 c 262
 945 1080 l 262
 1112 1080 1183.77701764 903.328334547 1083 800 c 262
 530 233 l 261
 270 463 l 261
480 653 m 261
 890 713 l 261
 1222 317 l 262
 1369.26975424 141.340895547 1252 -30 1075 -30 c 262
 1065 -30 l 262
 887 -30 791.315203904 63.6297635497 714 210 c 262
 480 653 l 261
EndSplineSet
EndChar

StartChar: l
Encoding: 108 108 49
Width: 590
VWidth: 1920
Flags: HMW
LayerCount: 2
Fore
SplineSet
290 1480 m 262
 300 1480 l 262
 447 1480 540 1397 540 1220 c 262
 540 230 l 262
 540 53 446.595703125 -30 300 -30 c 262
 290 -30 l 262
 143 -30 50 53 50 230 c 262
 50 1220 l 262
 50 1397 143 1480 290 1480 c 262
EndSplineSet
EndChar

StartChar: m
Encoding: 109 109 50
Width: 1625
VWidth: 1920
Flags: HMW
LayerCount: 2
Fore
SplineSet
940 703 m 257
 940 943 1088 1085 1285 1085 c 256
 1492 1085 1580 972.995117188 1580 663 c 258
 1580 230 l 258
 1580 53 1502 -30 1355 -30 c 258
 1335 -30 l 258
 1188 -30 1110 53 1110 230 c 258
 1110 613 l 258
 1110 713 1102 755 1065 755 c 256
 1028 755 1010 683 1010 473 c 257
 940 703 l 257
270 1080 m 262
 290 1080 l 262
 437 1080 510 997 510 820 c 258
 510 687 l 257
 520 660 l 257
 520 230 l 258
 520 53 432 -30 295 -30 c 258
 275 -30 l 258
 128 -30 50 53 50 230 c 258
 50 820 l 258
 50 997 123 1080 270 1080 c 262
470 703 m 257
 470 943 568 1085 755 1085 c 256
 942 1085 1010 972.995117188 1010 663 c 258
 1010 230 l 258
 1010 53 967 -30 820 -30 c 258
 810 -30 l 258
 663 -30 620 53 620 230 c 258
 620 613 l 258
 620 713 612 755 575 755 c 256
 538 755 520 683 520 473 c 257
 470 703 l 257
EndSplineSet
EndChar

StartChar: n
Encoding: 110 110 51
Width: 1255
VWidth: 1920
Flags: HMW
AnchorPoint: "bottom" 629 0 basechar 0
AnchorPoint: "top" 630 1050 basechar 0
LayerCount: 2
Fore
SplineSet
285 1080 m 262
 295 1080 l 262
 442 1080 530 997 530 820 c 262
 530 687 l 261
 540 660 l 261
 540 230 l 262
 540 53 447 -30 300 -30 c 262
 290 -30 l 262
 143 -30 50 53 50 230 c 262
 50 820 l 262
 50 997 138 1080 285 1080 c 262
490 703 m 261
 490 943 648 1085 865 1085 c 260
 1092 1085 1210 972.995117188 1210 663 c 262
 1210 230 l 262
 1210 53 1117 -30 970 -30 c 262
 960 -30 l 262
 813 -30 720 53 720 230 c 262
 720 613 l 262
 720 713 702 755 645 755 c 260
 588 755 540 683 540 473 c 261
 490 703 l 261
EndSplineSet
EndChar

StartChar: o
Encoding: 111 111 52
Width: 1280
VWidth: 1920
Flags: HMW
AnchorPoint: "bottom" 639 0 basechar 0
AnchorPoint: "top" 640 1050 basechar 0
LayerCount: 2
Fore
SplineSet
25 448 m 258
 25 603 l 258
 25 893 263 1085 640 1085 c 256
 1017 1085 1255 893 1255 603 c 258
 1255 448 l 258
 1255 158 1017 -35 640 -35 c 256
 263 -35 25 158 25 448 c 258
520 418 m 258
 520 298 553 245 640 245 c 256
 727 245 760 298 760 418 c 258
 760 633 l 258
 760 753 727 805 640 805 c 256
 553 805 520 753 520 633 c 258
 520 418 l 258
EndSplineSet
EndChar

StartChar: p
Encoding: 112 112 53
Width: 1315
VWidth: 1920
Flags: HMW
LayerCount: 2
Fore
SplineSet
480 633 m 257
 480 923 617 1085 874 1085 c 256
 1141 1085 1290 943 1290 603 c 258
 1290 447 l 258
 1290 107 1141 -35 874 -35 c 256
 617 -35 480 127 480 417 c 257
 540 487 l 257
 540 377 587 305 664 305 c 256
 751 305 800 357 800 467 c 258
 800 583 l 258
 800 693 751 745 664 745 c 256
 587 745 540 673 540 563 c 257
 480 633 l 257
50 -130 m 262
 50 820 l 258
 50 987 138 1080 285 1080 c 258
 290 1080 l 258
 437 1080 525 987 525 820 c 258
 525 810 l 257
 540 798 l 257
 540 -130 l 262
 540 -297 447 -390 300 -390 c 262
 290 -390 l 262
 143 -390 50 -297 50 -130 c 262
EndSplineSet
EndChar

StartChar: q
Encoding: 113 113 54
Width: 1315
VWidth: 1920
Flags: HMW
LayerCount: 2
Fore
SplineSet
1025 -390 m 262
 1015 -390 l 262
 868 -390 775 -307 775 -140 c 262
 775 715 l 257
 1002 985 l 258
 1047.43652344 1039.04296875 1088 1075 1145 1075 c 258
 1156 1075 l 258
 1223 1075 1265 1022 1265 865 c 258
 1265 -140 l 262
 1265 -307 1172 -390 1025 -390 c 262
835 417 m 257
 835 127 698 -35 441 -35 c 256
 174 -35 25 107 25 447 c 258
 25 603 l 258
 25 923 214 1085 531 1085 c 256
 818 1085 1025 923 1025 633 c 257
 775 563 l 257
 775 703 728 745 651 745 c 256
 564 745 515 693 515 583 c 258
 515 467 l 258
 515 357 564 305 651 305 c 256
 728 305 775 377 775 487 c 257
 835 417 l 257
EndSplineSet
EndChar

StartChar: r
Encoding: 114 114 55
Width: 935
VWidth: 1920
Flags: HMW
AnchorPoint: "bottom" 324 0 basechar 0
AnchorPoint: "top" 475 1050 basechar 0
LayerCount: 2
Fore
SplineSet
290 1080 m 258
 305 1080 l 258
 453.283203125 1080 525 996.576171875 525 820 c 258
 525 724 l 257
 560 715 l 257
 560 230 l 258
 560 51.716796875 466.576171875 -30 320 -30 c 258
 310 -30 l 258
 163.513671875 -30 70 53.5029296875 70 230 c 258
 70 820 l 258
 70 996.486328125 143.502929688 1080 290 1080 c 258
500 623 m 257
 500 808.681640625 521.539056168 1052.33015093 771 1074.02832031 c 260
 871.305664062 1082.75292969 965 1037.26171875 965 910 c 258
 965 880 l 258
 965 713.345703125 900.764648438 672.184570312 788 674.64453125 c 256
 623.021484375 678.244140625 560 579.54296875 560 383 c 257
 500 623 l 257
EndSplineSet
EndChar

StartChar: s
Encoding: 115 115 56
Width: 1159
VWidth: 1920
Flags: HMW
AnchorPoint: "bottom" 561 0 basechar 0
AnchorPoint: "top" 522 1050 basechar 0
LayerCount: 2
Fore
SplineSet
194 388 m 258
 204 388 l 258
 312.209960938 388 382 359.157226562 382 293 c 258
 382 292 l 258
 382 267.220703125 427.640625 225 531 225 c 256
 615.350585938 225 649 231.254882812 649 272 c 256
 649 310.760742188 612.853515625 327.543945312 494 354 c 256
 162.216796875 427.852539062 49 535.921875 49 738 c 256
 49 974.629882812 230.877929688 1085 561 1085 c 256
 882.229492188 1085 1050 959.663085938 1050 837 c 262
 1050 822 l 262
 1050 725.344726562 1002.39453125 688 905 688 c 262
 896 688 l 262
 808.645507812 688 714 705.314453125 714 787 c 262
 714 788 l 262
 714 822.921875 646.8046875 840 566 840 c 256
 494.936523438 840 459 828.40625 459 795 c 256
 459 764.490234375 495.02734375 747.342773438 644 713 c 256
 1021.7578125 625.915039062 1129 525.236328125 1129 302 c 256
 1129 58.8525390625 940.815429688 -35 570 -35 c 256
 199.919921875 -35 17 86.31640625 17 235 c 258
 17 240 l 258
 17 346.619140625 96.5537109375 388 194 388 c 258
EndSplineSet
EndChar

StartChar: t
Encoding: 116 116 57
Width: 815
VWidth: 1920
Flags: HMW
AnchorPoint: "bottom" 559 0 basechar 0
LayerCount: 2
Fore
SplineSet
555 810 m 258
 215 810 l 258
 38 810 -45 828 -45 925 c 258
 -45 935 l 258
 -45 1032 38 1050 215 1050 c 258
 555 1050 l 258
 732 1050 815 1032 815 935 c 258
 815 925 l 258
 815 828 732 810 555 810 c 258
840 190 m 262
 840 180 l 262
 840 82.9619140625 786.659516648 1.97326155979 630 -8.30859375 c 260
 288.971249258 -30.6909446384 115 44.3720703125 115 352 c 262
 115 1070 l 262
 115 1247 208 1340 355 1340 c 262
 360 1340 l 262
 507 1340 600 1247 600 1070 c 262
 600 422 l 262
 600 314.506835938 679.959160285 325.195600703 711.000036522 325.901419727 c 260
 786.983676192 327.629164072 840 286.951171875 840 190 c 262
EndSplineSet
EndChar

StartChar: u
Encoding: 117 117 58
Width: 1255
VWidth: 1920
Flags: HMW
AnchorPoint: "bottom" 568 0 basechar 0
AnchorPoint: "ogonek" 934 0 basechar 0
AnchorPoint: "top" 619 1050 basechar 0
LayerCount: 2
Fore
SplineSet
975 -30 m 262
 955 -30 l 262
 808 -30 725 53 725 230 c 262
 725 363 l 261
 715 390 l 261
 715 820 l 262
 715 997 803 1080 950 1080 c 262
 960 1080 l 262
 1107 1080 1205 997 1205 820 c 262
 1205 230 l 262
 1205 53 1122 -30 975 -30 c 262
765 347 m 261
 765 107 607 -35 390 -35 c 260
 163 -35 45 77.0048828125 45 387 c 262
 45 820 l 262
 45 997 138 1080 285 1080 c 262
 295 1080 l 262
 442 1080 535 997 535 820 c 262
 535 437 l 262
 535 337 553 295 610 295 c 260
 667 295 715 367 715 577 c 261
 765 347 l 261
EndSplineSet
EndChar

StartChar: v
Encoding: 118 118 59
Width: 1218
VWidth: 1920
Flags: HMW
LayerCount: 2
Fore
SplineSet
668.650390625 338 m 257
 762.650390625 820 l 258
 795.403651135 987.947569851 843.650390625 1080 990.650390625 1080 c 258
 1000.65039062 1080 l 258
 1157.65039062 1080 1214.45335512 982.952854448 1168.65039062 820 c 258
 1002.65039062 230 l 258
 951.492578836 48.1740424376 837.650390625 -30 690.650390625 -30 c 258
 566.650390625 -30 l 258
 419.650390625 -30 308.167111403 53.2432412928 247.650390625 230 c 258
 70.650390625 750 l 258
 7.44988399475 935.673804789 119.650390625 1080 286.650390625 1080 c 262
 296.650390625 1080 l 258
 463.650390625 1080 541.897130115 987.947569851 574.650390625 820 c 258
 668.650390625 338 l 257
EndSplineSet
EndChar

StartChar: w
Encoding: 119 119 60
Width: 1530
VWidth: 1920
Flags: HMW
LayerCount: 2
Fore
SplineSet
1122.26464844 468 m 257
 1163.26464844 820 l 258
 1183.38603612 992.749474709 1220.26464844 1080 1337.26464844 1080 c 258
 1357.26464844 1080 l 258
 1474.26464844 1080 1512.73227524 990.588419069 1485.26464844 820 c 258
 1390.26464844 230 l 258
 1362.79702164 59.4115809306 1259.26464844 -30 1112.26464844 -30 c 258
 1077.26464844 -30 l 258
 930.264648438 -30 830.062933469 60.2896116985 794.264648438 230 c 258
 767.264648438 358 l 257
 746.264648438 230 l 258
 718.079773808 58.2064784549 619.264648438 -30 472.264648438 -30 c 258
 427.264648438 -30 l 258
 280.264648438 -30 178.227394051 58.7149452953 149.264648438 230 c 258
 56.2646484375 780 l 258
 22.6878757808 978.57231141 110.264648438 1080 267.264648438 1080 c 262
 268.264648438 1080 l 262
 415.264648438 1080 493.193102885 992.245281508 517.264648438 820 c 258
 562.264648438 498 l 257
 629.264648438 820 l 258
 664.42157832 988.963155554 690.264648438 1080 837.264648438 1080 c 258
 842.264648438 1080 l 258
 989.264648438 1080 1015.64077509 989.272269692 1050.26464844 820 c 258
 1122.26464844 468 l 257
EndSplineSet
EndChar

StartChar: x
Encoding: 120 120 61
Width: 1277
VWidth: 1920
Flags: HMW
LayerCount: 2
Fore
SplineSet
210.868164062 -30 m 258
 205.868164062 -30 l 258
 38.8681640625 -30 4.09674805826 111.796269065 142.868164062 290 c 258
 325.868164062 525 l 257
 139.868164062 790 l 258
 35.3350665492 938.931563662 163.868164062 1090 340.868164062 1090 c 262
 355.868164062 1090 l 262
 532.926757812 1090 614.418675918 1011.12372037 658.868164062 900 c 258
 668.868164062 875 l 257
 705.868164062 920 l 258
 789.809616638 1022.09095583 843.758789062 1080 950.868164062 1080 c 258
 965.868164062 1080 l 258
 1142.86816406 1080 1173.8507793 918.91897039 1073.86816406 820 c 258
 885.868164062 634 l 257
 1110.86816406 310 l 258
 1224.90264063 145.790353738 1147.86816406 -40 980.868164062 -40 c 258
 940.868164062 -40 l 258
 792.809570312 -40 685.79735128 43.6341159394 599.868164062 180 c 258
 553.868164062 253 l 257
 534.868164062 220 l 258
 449.38211207 71.5242254834 357.977539062 -30 210.868164062 -30 c 258
EndSplineSet
EndChar

StartChar: y
Encoding: 121 121 62
Width: 1209
VWidth: 1920
Flags: HMW
AnchorPoint: "top" 616.894 1050 basechar 0
LayerCount: 2
Fore
SplineSet
660.893554688 338 m 257
 753.893554688 820 l 258
 784.453926329 978.388162701 854.865234375 1080 981.893554688 1080 c 258
 1001.89355469 1080 l 258
 1158.89355469 1080 1198.39564092 960.346415212 1147.89355469 790 c 258
 954.893554688 139 l 262
 795.919032907 -397.230122694 526.577148438 -405.973632812 233.893554688 -373.859375 c 260
 53.14453125 -354.02734375 -47.1064453125 -267.043945312 -47.1064453125 -180 c 258
 -47.1064453125 -165 l 258
 -47.1064453125 -68.0888671875 36.5126953125 -11.6572265625 113.893554688 -34.4189453125 c 256
 159.951171875 -47.966796875 270.670898438 -104.548828125 323.893554688 -10 c 257
 55.8935546875 790 l 258
 -0.473432073888 958.259661974 99.8935546875 1080 266.893554688 1080 c 258
 306.893554688 1080 l 258
 453.893554688 1080 530.74541893 978.116341174 562.893554688 820 c 258
 660.893554688 338 l 257
EndSplineSet
EndChar

StartChar: z
Encoding: 122 122 63
Width: 1130
VWidth: 1920
Flags: HMW
AnchorPoint: "top" 575.001 1050 basechar 0
LayerCount: 2
Fore
SplineSet
142.000976562 310 m 262
 439.000976562 700 l 261
 352.000976562 700 l 262
 173.481445312 700 92.0009765625 771.404296875 92.0009765625 870 c 262
 92.0009765625 880 l 262
 92.0009765625 978.520507812 173.405273438 1050 352.000976562 1050 c 262
 872.000976562 1050 l 262
 1069.00097656 1050 1080.67954815 885.220046292 986.000976562 760 c 262
 676.000976562 350 l 257
 862.000976562 350 l 258
 1039.00097656 350 1122.00097656 277 1122.00097656 180 c 258
 1122.00097656 170 l 258
 1122.00097656 73.015625 1039.00097656 -2.16762483449e-14 862.000976562 0 c 258
 242.000976562 0 l 258
 56.0009765625 0 36.4607114306 171.411773059 142.000976562 310 c 262
EndSplineSet
EndChar

StartChar: comma
Encoding: 44 44 65
Width: 740
VWidth: 1920
Flags: HMW
LayerCount: 2
Fore
SplineSet
173 -310 m 14
 165 -310 l 22
 128 -310 109.251024618 -270.383039049 155 -200 c 14
 285 0 l 261
 275 0 l 6
 166.479492188 0 75 101.404296875 75 210 c 6
 75 250 l 6
 75 397 178 500 355 500 c 6
 385 500 l 6
 562 500 665 397 665 250 c 6
 665 220 l 6
 665 63 557.095637328 -38.0949333373 476 -100 c 6
 306 -230 l 22
 239.93799681 -280.518002439 211 -310 173 -310 c 14
EndSplineSet
EndChar

StartChar: exclam
Encoding: 33 33 67
Width: 740
VWidth: 1920
Flags: HMW
LayerCount: 2
Fore
SplineSet
385 -40 m 6
 355 -40 l 6
 178 -40 75 63 75 210 c 6
 75 250 l 6
 75 397 178 500 355 500 c 6
 385 500 l 6
 562 500 665 397 665 250 c 6
 665 210 l 6
 665 63 562 -40 385 -40 c 6
65 1180 m 6
 65 1210 l 6
 65 1367 198 1480 355 1480 c 6
 385 1480 l 6
 542 1480 675 1367 675 1210 c 6
 675 1180 l 6
 675 1073 658.217335668 995.54333917 604 860 c 6
 525 660 l 6
 488.36208674 567.245789214 452 530 375 530 c 6
 365 530 l 6
 288 530 251.63791326 567.245789214 215 660 c 6
 136 860 l 6
 81.7826643319 995.54333917 65 1073 65 1180 c 6
EndSplineSet
EndChar

StartChar: quotesingle
Encoding: 39 39 70
Width: 610
VWidth: 1920
Flags: HMW
LayerCount: 2
Fore
SplineSet
310 800 m 6
 290 800 l 2
 223 800 187.547305818 841.589475589 163 910 c 6
 102 1080 l 2
 74.3031920354 1157.29341758 60 1223 60 1260 c 2
 60 1270 l 2
 60 1347 113 1450 300 1450 c 2
 310 1450 l 2
 507 1450 560 1347 560 1270 c 2
 560 1260 l 2
 560 1223 538.091864224 1155.22966056 508 1080 c 2
 437 910 l 6
 409.515470118 844.191970706 377 800 310 800 c 6
EndSplineSet
EndChar

StartChar: question
Encoding: 63 63 71
Width: 1320
VWidth: 1920
Flags: HMW
LayerCount: 2
Fore
SplineSet
645 -40 m 6
 615 -40 l 6
 438 -40 335 53 335 200 c 6
 335 210 l 6
 335 357 438 450 615 450 c 6
 645 450 l 6
 822 450 925 357 925 210 c 6
 925 200 l 6
 925 53 822 -40 645 -40 c 6
650 510 m 2
 640 510 l 2
 532.912109375 510 442.299621171 560.99772753 483.740234375 689 c 0
 524.424145367 814.66496143 725 878.14453125 725 983 c 258
 725 998 l 258
 725 1048 696 1085 639 1085 c 256
 579 1085 555 1044.77148438 555 1012 c 258
 555 1010 l 2
 555 953 507 902 340 902 c 2
 330 902 l 2
 163 902 75 965 75 1072 c 2
 75 1082 l 258
 75 1276 262 1435 659 1435 c 256
 1056 1435 1285 1323 1285 1103 c 258
 1285 1078 l 258
 1285 754.727539062 952.382025452 751.932532486 847.556640625 632 c 0
 765.077148438 537.633789062 716.930664062 510 650 510 c 2
EndSplineSet
EndChar

StartChar: parenleft
Encoding: 40 40 72
Width: 785
VWidth: 2048
Flags: HMW
LayerCount: 2
Fore
SplineSet
20 838 m 262
 20 1243 255.669921875 1483.81640625 589.315429688 1588 c 4
 692.324458281 1620.16542869 780 1567.13964844 780 1490 c 6
 780 1470 l 6
 780 1393.21679688 729.785674513 1364.88942527 640.721679688 1306 c 4
 559.626953125 1252.37988281 495 1109 495 808 c 262
 495 442 l 262
 495 141 579.626953125 -22.3798828125 660.721679688 -76 c 4
 749.785674513 -134.88942527 780 -143.216796875 780 -220 c 6
 780 -240 l 6
 780 -317.139648438 692.324458281 -370.165428685 589.315429688 -338 c 4
 255.669921875 -233.81640625 20 7 20 412 c 262
 20 838 l 262
EndSplineSet
EndChar

StartChar: parenright
Encoding: 41 41 73
Width: 785
VWidth: 2048
Flags: HMW
LayerCount: 2
Fore
SplineSet
765 412 m 258
 765 7 529.330078125 -233.81640625 195.684570312 -338 c 0
 92.67578125 -370.165039062 5 -317.139648438 5 -240 c 2
 5 -220 l 2
 5 -143.216796875 55.2138671875 -114.889648438 144.278320312 -56 c 0
 225.373046875 -2.3798828125 290 141 290 442 c 258
 290 808 l 258
 290 1109 205.373046875 1272.37988281 124.278320312 1326 c 0
 35.2138671875 1384.88964844 5 1393.21679688 5 1470 c 2
 5 1490 l 2
 5 1567.13964844 92.67578125 1620.16503906 195.684570312 1588 c 0
 529.330078125 1483.81640625 765 1243 765 838 c 258
 765 412 l 258
EndSplineSet
EndChar

StartChar: asterisk
Encoding: 42 42 74
Width: 1287
VWidth: 2048
Flags: HMW
LayerCount: 2
Back
SplineSet
678 920 m 261
 608 920 l 261
 474 1190 l 6
 423.229373954 1292.29902263 412 1318 412 1385 c 6
 412 1390 l 6
 412 1507 521 1570 628 1570 c 6
 658 1570 l 6
 765 1570 874 1507 874 1390 c 6
 874 1385 l 6
 874 1318 862.770626046 1292.29902263 812 1190 c 6
 678 920 l 261
EndSplineSet
Fore
SplineSet
654 886 m 257
 632 953 l 257
 847 1164 l 2
 929 1244 950 1262 1014 1283 c 2
 1018 1285 l 2
 1129 1321 1223 1237 1256 1135 c 2
 1266 1106 l 2
 1299 1004 1272 881 1161 845 c 2
 1156 844 l 2
 1092 823 1065 825 952 842 c 2
 654 886 l 257
613 901 m 257
 670 942 l 257
 937 802 l 2
 1038 749 1063 735 1102 681 c 2
 1105 677 l 2
 1174 582 1123 467 1036 404 c 2
 1012 387 l 2
 925 324 800 310 731 405 c 2
 728 409 l 2
 689 463 683 491 664 604 c 2
 613 901 l 257
615 941 m 257
 672 900 l 257
 621 603 l 2
 602 490 596 462 557 408 c 2
 554 404 l 2
 485 309 360 323 273 386 c 2
 249 403 l 2
 162 466 111 581 180 676 c 2
 183 680 l 2
 222 734 247 748 348 801 c 2
 615 941 l 257
653 953 m 257
 631 886 l 257
 333 842 l 2
 220 825 193 823 129 844 c 2
 124 845 l 2
 13 881 -14 1004 19 1106 c 2
 29 1135 l 2
 62 1237 156 1321 267 1285 c 2
 271 1283 l 2
 335 1262 356 1244 438 1164 c 2
 653 953 l 257
678 920 m 257
 608 920 l 257
 474 1190 l 2
 423 1292 412 1318 412 1385 c 2
 412 1390 l 2
 412 1507 521 1570 628 1570 c 2
 658 1570 l 2
 765 1570 874 1507 874 1390 c 2
 874 1385 l 2
 874 1318 863 1292 812 1190 c 2
 678 920 l 257
EndSplineSet
EndChar

StartChar: at
Encoding: 64 64 75
Width: 1990
VWidth: 1920
Flags: HMW
LayerCount: 2
Fore
SplineSet
1165 472 m 257
 1165 182 1068 40 801 40 c 256
 584 40 415 157 415 497 c 258
 415 528 l 258
 415 848 594 985 831 985 c 256
 1088 985 1225 843 1225 553 c 257
 1075 533 l 257
 1075 633 1043 695 966 695 c 256
 899 695 855 653 855 553 c 258
 855 472 l 258
 855 372 899 330 966 330 c 256
 1043 330 1075 392 1075 492 c 257
 1165 472 l 257
1292 -284.827148438 m 256
 1213.25585938 -328.194335938 1134.91626673 -360 985 -360 c 256
 428 -360 100 13 100 493 c 258
 100 583 l 258
 100 1093 488 1435 1025 1435 c 256
 1632 1435 1890 1024 1890 633 c 258
 1890 543 l 258
 1890 183 1717 40 1490 40 c 256
 1283 40 1075 185 1075 405 c 258
 1075 775 l 257
 1232 905 l 258
 1297.43900904 959.185166723 1328 985 1395 985 c 262
 1406 985 l 262
 1463 985 1515 952 1515 825 c 262
 1515 535 l 258
 1515 340.000296147 1543 280 1610 280 c 256
 1667 280 1710 343 1710 543 c 258
 1710 633 l 258
 1710 973 1472 1295 1025 1295 c 256
 618 1295 290 1013 290 593 c 258
 290 483 l 258
 290 103 548 -220 985 -220 c 256
 1087.12312814 -220 1172.51357297 -191.077452199 1237 -154.412109375 c 256
 1292.15103318 -123.054634139 1329.55664062 -146.669921875 1338 -172 c 258
 1340 -178 l 258
 1351.61650391 -212.849511719 1341.94801246 -257.31900873 1292 -284.827148438 c 256
EndSplineSet
EndChar

StartChar: dollar
Encoding: 36 36 76
Width: 1219
VWidth: 1920
Flags: HMW
LayerCount: 2
Fore
SplineSet
199 528 m 6
 229 528 l 6
 331.7734375 528 389 467 389 400 c 2
 389 390 l 2
 389 306.4140625 468.641601562 285 609 285 c 256
 717.124023438 285 749 316.604492188 749 368 c 256
 749 411.729492188 688.109375 435.2265625 587 464.35546875 c 256
 290.890623337 549.662516416 69 614.966796875 69 973 c 256
 69 1243 247 1435 609 1435 c 256
 973 1435 1109 1236 1109 1061 c 2
 1109 1051 l 2
 1109 964 1054.14453125 923 949 923 c 2
 929 923 l 2
 823.85546875 923 759 964 759 1021 c 2
 759 1031 l 2
 759 1076 714 1135 599 1135 c 256
 527 1135 499 1083 499 1043 c 256
 499 991.723632812 546.459238462 960.106307986 677 932.26171875 c 256
 1037.10253906 855.451171875 1189 756.510742188 1189 428 c 256
 1189 110.7265625 1018.34179688 -35 579.27734375 -35 c 256
 190.790039062 -35 30 122.553710938 30 339 c 2
 30 349 l 2
 30 436 86.296875 528 199 528 c 6
590 1590 m 2
 650 1590 l 2
 657 1590 660 1587 660 1580 c 2
 660 -180 l 2
 660 -187 657 -190 650 -190 c 2
 590 -190 l 2
 583 -190 580 -187 580 -180 c 2
 580 1580 l 2
 580 1587 583 1590 590 1590 c 2
  Spiro
    590 1590 [
    650 1590 ]
    655.699 1588.97 o
    658.965 1585.7 o
    660 1580 [
    660 -180 ]
    658.965 -185.699 o
    655.699 -188.965 o
    650 -190 [
    590 -190 ]
    584.301 -188.965 o
    581.035 -185.699 o
    580 -180 [
    580 1580 ]
    581.035 1585.7 o
    584.301 1588.97 o
    0 0 z
  EndSpiro
EndSplineSet
EndChar

StartChar: numbersign
Encoding: 35 35 77
Width: 1610
VWidth: 1920
Flags: HMW
LayerCount: 2
Fore
SplineSet
160 690 m 2
 1370 690 l 2
 1477 690 1560 647 1560 540 c 2
 1560 530 l 2
 1560 423 1478 380 1370 380 c 2
 160 380 l 2
 53 380 -30 423 -30 530 c 2
 -30 540 l 2
 -30 647 53 690 160 690 c 2
240 1100 m 2
 1450 1100 l 2
 1557 1100 1640 1057 1640 950 c 2
 1640 940 l 2
 1640 833 1557 790 1450 790 c 2
 240 790 l 2
 133 790 50 833 50 940 c 2
 50 950 l 2
 50 1057 133 1100 240 1100 c 2
1230 1430 m 2
 1260 1430 l 2
 1420 1430 1445.1069655 1291.76301011 1421 1190 c 2
 1177 160 l 2
 1152.8930345 58.2369898861 1090 -30 930 -30 c 2
 900 -30 l 2
 740 -30 702.893034497 58.2369898861 727 160 c 2
 971 1190 l 2
 995.106965503 1291.76301011 1070 1430 1230 1430 c 2
660 1430 m 2
 690 1430 l 2
 847 1430 875.106965503 1291.76301011 851 1190 c 2
 607 160 l 2
 582.893034497 58.2369898861 517 -30 360 -30 c 2
 330 -30 l 2
 173 -30 132.893034497 58.2369898861 157 160 c 2
 401 1190 l 2
 425.106965503 1291.76301011 503 1430 660 1430 c 2
EndSplineSet
EndChar

StartChar: slash
Encoding: 47 47 78
Width: 1040
VWidth: 2048
Flags: HMW
LayerCount: 2
Fore
SplineSet
913 1190 m 6
 462 110 l 6
 405.105513595 -26.2440029211 332 -130 225 -130 c 6
 215 -130 l 6
 108 -130 45.105513595 -26.2440029211 102 110 c 6
 553 1190 l 6
 609.894486405 1326.24400292 684 1430 790 1430 c 6
 800 1430 l 6
 907 1430 969.894486405 1326.24400292 913 1190 c 6
EndSplineSet
EndChar

StartChar: percent
Encoding: 37 37 79
Width: 1855
VWidth: 2048
Flags: HMW
LayerCount: 2
Fore
SplineSet
50 1083 m 262
 50 1118 l 262
 50 1308 208 1435 485 1435 c 260
 762 1435 930 1308 930 1118 c 262
 930 1083 l 262
 930 893 762 765 485 765 c 260
 208 765 50 893 50 1083 c 262
425 1093 m 262
 425 1013 448 985 485 985 c 260
 522 985 555 1013 555 1093 c 262
 555 1108 l 262
 555 1188 522 1215 485 1215 c 260
 448 1215 425 1188 425 1108 c 262
 425 1093 l 262
925 283 m 262
 925 318 l 262
 925 508 1083 635 1360 635 c 260
 1637 635 1805 508 1805 318 c 262
 1805 283 l 262
 1805 93 1637 -35 1360 -35 c 260
 1083 -35 925 93 925 283 c 262
1300 293 m 262
 1300 213 1323 185 1360 185 c 260
 1397 185 1430 213 1430 293 c 262
 1430 308 l 262
 1430 388 1397 415 1360 415 c 260
 1323 415 1300 388 1300 308 c 262
 1300 293 l 262
1536 1140 m 6
 582 160 l 6
 476.232011036 51.3494452993 397 -30 320 -30 c 6
 310 -30 l 6
 183 -30 163.250080916 100.005324212 319 260 c 6
 1273 1240 l 6
 1378.76757812 1348.65039062 1458 1430 1535 1430 c 6
 1545 1430 l 6
 1672 1430 1691.74963718 1299.9943862 1536 1140 c 6
EndSplineSet
EndChar

StartChar: hyphen
Encoding: 45 45 80
Width: 570
VWidth: 1920
Flags: HMW
LayerCount: 2
Fore
SplineSet
10 595 m 14
 10 630 l 22
 10 737 93 790 200 790 c 14
 370 790 l 22
 477 790 560 737 560 630 c 14
 560 595 l 22
 560 488 477 435 370 435 c 14
 200 435 l 22
 93 435 10 488 10 595 c 14
EndSplineSet
EndChar

StartChar: underscore
Encoding: 95 95 81
Width: 900
VWidth: 1920
Flags: HMW
LayerCount: 2
Fore
SplineSet
-30 -195 m 10
 -30 -160 l 18
 -30 -53 53 0 160 0 c 10
 740 0 l 18
 847 0 930 -53 930 -160 c 10
 930 -195 l 18
 930 -302 847 -355 740 -355 c 10
 160 -355 l 18
 53 -355 -30 -302 -30 -195 c 10
EndSplineSet
EndChar

StartChar: plus
Encoding: 43 43 82
Width: 1040
VWidth: 1920
Flags: HMW
LayerCount: 2
Fore
SplineSet
15 675 m 14
 15 710 l 22
 15 817 98 870 205 870 c 14
 835 870 l 22
 942 870 1025 817 1025 710 c 14
 1025 675 l 22
 1025 568 942 515 835 515 c 14
 205 515 l 22
 98 515 15 568 15 675 c 14
505 1220 m 14
 535 1220 l 22
 642 1220 695 1137 695 1030 c 14
 695 330 l 22
 695 223 642 140 535 140 c 14
 505 140 l 22
 398 140 345 223 345 330 c 14
 345 1030 l 22
 345 1137 398 1220 505 1220 c 14
EndSplineSet
EndChar

StartChar: equal
Encoding: 61 61 83
Width: 1180
VWidth: 1920
Flags: HMW
LayerCount: 2
Fore
SplineSet
120 245 m 10
 120 280 l 18
 120 387 203 440 310 440 c 10
 870 440 l 18
 977 440 1060 387 1060 280 c 10
 1060 245 l 18
 1060 138 977 85 870 85 c 10
 310 85 l 18
 203 85 120 138 120 245 c 10
120 715 m 14
 120 750 l 22
 120 857 203 910 310 910 c 14
 870 910 l 22
 977 910 1060 857 1060 750 c 14
 1060 715 l 22
 1060 608 977 555 870 555 c 14
 310 555 l 22
 203 555 120 608 120 715 c 14
EndSplineSet
EndChar

StartChar: less
Encoding: 60 60 84
Width: 1010
VWidth: 1920
Flags: HMW
LayerCount: 2
Fore
SplineSet
650 179 m 6
 230 374 l 6
 98.8012629826 434.853882276 40 483 40 590 c 6
 40 610 l 6
 40 717 98.8012629826 765.146117724 230 826 c 6
 650 1021 l 6
 805.856104079 1093.36176261 890 997 890 890 c 6
 890 880 l 6
 890 773 845.296424666 733.440720887 700 689 c 6
 409.01953125 600 l 261
 700 511 l 6
 845.296424666 466.559279113 890 427 890 320 c 6
 890 310 l 6
 890 203 805.856104079 106.638237392 650 179 c 6
EndSplineSet
EndChar

StartChar: greater
Encoding: 62 62 85
Width: 1010
VWidth: 1920
Flags: HMW
LayerCount: 2
Fore
SplineSet
360 1021 m 2
 780 826 l 2
 911.19921875 765.146484375 970 717 970 610 c 2
 970 590 l 2
 970 483 911.19921875 434.853515625 780 374 c 2
 360 179 l 2
 204.143554688 106.638671875 120 203 120 310 c 2
 120 320 l 2
 120 427 164.703125 466.559570312 310 511 c 2
 600.98046875 600 l 257
 310 689 l 2
 164.703125 733.440429688 120 773 120 880 c 2
 120 890 l 2
 120 997 204.143554688 1093.36132812 360 1021 c 2
EndSplineSet
EndChar

StartChar: backslash
Encoding: 92 92 86
Width: 1040
VWidth: 2048
Flags: HMW
LayerCount: 2
Fore
SplineSet
938 110 m 2
 994.89453125 -26.244140625 932 -130 825 -130 c 2
 815 -130 l 2
 709 -130 634.89453125 -26.244140625 578 110 c 2
 127 1190 l 2
 70.10546875 1326.24414062 133 1430 240 1430 c 2
 250 1430 l 2
 357 1430 430.10546875 1326.24414062 487 1190 c 2
 938 110 l 2
EndSplineSet
EndChar

StartChar: bracketleft
Encoding: 91 91 87
Width: 760
VWidth: 1920
Flags: HMW
LayerCount: 2
Fore
SplineSet
470 1350 m 261
 470 -110 l 261
 550 -110 l 6
 657 -110 740 -133 740 -220 c 6
 740 -250 l 6
 740 -337 657 -360 550 -360 c 6
 280 -360 l 6
 123 -360 70 -307 70 -150 c 6
 70 1390 l 6
 70 1547 123 1600 280 1600 c 6
 550 1600 l 6
 657 1600 740 1577 740 1490 c 6
 740 1460 l 6
 740 1373 657 1350 550 1350 c 6
 470 1350 l 261
EndSplineSet
EndChar

StartChar: braceleft
Encoding: 123 123 88
Width: 775
VWidth: 2048
Flags: HMW
LayerCount: 2
Fore
SplineSet
155 1278 m 262
 155 1505 276.99308536 1589.86915731 565 1600 c 4
 671.9337853 1603.76146996 705 1547 705 1480 c 6
 705 1470 l 6
 705 1403 681.973632812 1370.65136719 614 1360 c 4
 565.429631401 1352.38909546 530 1312 530 1138 c 262
 530 956 l 262
 530 771 442 668 286 620 c 261
 442 572 530 469 530 284 c 262
 530 112 l 262
 530 -61 565.221914542 -102.463719288 612 -110 c 4
 681.96875 -121.272460938 705 -153 705 -220 c 6
 705 -240 l 6
 705 -307 671.92859244 -363.93410789 563 -360 c 4
 276.972220043 -349.669708195 155 -265 155 -38 c 262
 155 284 l 262
 155 397 129.750976562 450.965820312 82 472 c 4
 23.3046875 497.854492188 -20 519 -20 616 c 6
 -20 624 l 6
 -20 721 23.333984375 742.7890625 80 767 c 4
 132.46484375 789.416015625 155 842 155 956 c 262
 155 1278 l 262
EndSplineSet
EndChar

StartChar: bracketright
Encoding: 93 93 89
Width: 750
VWidth: 1920
Flags: HMW
LayerCount: 2
Fore
SplineSet
290 -110 m 257
 290 1350 l 257
 210 1350 l 2
 103 1350 20 1373 20 1460 c 2
 20 1490 l 2
 20 1577 103 1600 210 1600 c 2
 480 1600 l 2
 637 1600 690 1547 690 1390 c 2
 690 -150 l 2
 690 -307 637 -360 480 -360 c 2
 210 -360 l 2
 103 -360 20 -337 20 -250 c 2
 20 -220 l 2
 20 -133 103 -110 210 -110 c 2
 290 -110 l 257
EndSplineSet
EndChar

StartChar: braceright
Encoding: 125 125 90
Width: 775
VWidth: 2048
Flags: HMW
LayerCount: 2
Fore
SplineSet
620 -38 m 258
 620 -265 498.006835938 -349.869140625 210 -360 c 0
 103.06640625 -363.76171875 70 -307 70 -240 c 2
 70 -230 l 2
 70 -163 93.0263671875 -130.651367188 161 -120 c 0
 209.5703125 -112.388671875 245 -72 245 102 c 258
 245 284 l 258
 245 469 333 572 489 620 c 257
 333 668 245 771 245 956 c 258
 245 1128 l 258
 245 1301 209.778320312 1342.46386719 163 1350 c 0
 93.03125 1361.27246094 70 1393 70 1460 c 2
 70 1480 l 2
 70 1547 103.071289062 1603.93457031 212 1600 c 0
 498.02734375 1589.66992188 620 1505 620 1278 c 258
 620 956 l 258
 620 843 645.249023438 789.034179688 693 768 c 0
 751.6953125 742.145507812 795 721 795 624 c 2
 795 616 l 2
 795 519 751.666015625 497.2109375 695 473 c 0
 642.53515625 450.583984375 620 398 620 284 c 258
 620 -38 l 258
EndSplineSet
EndChar

StartChar: bar
Encoding: 124 124 91
Width: 515
VWidth: 1920
Flags: HMW
LayerCount: 2
Fore
SplineSet
248 1630 m 14
 268 1630 l 22
 375 1630 438 1507 438 1390 c 14
 438 -150 l 22
 438 -257 375 -390 268 -390 c 14
 248 -390 l 22
 141 -390 78 -257 78 -150 c 14
 78 1390 l 22
 78 1507 141 1630 248 1630 c 14
EndSplineSet
EndChar

StartChar: asciitilde
Encoding: 126 126 92
Width: 1330
VWidth: 2048
Flags: HMW
LayerCount: 2
Fore
SplineSet
422 519 m 256
 379.913085938 519 366.174804688 499.250976562 360.083984375 477 c 0
 339.29296875 401.049804688 276.9140625 368 200 368 c 2
 180 368 l 6
 72.9111328125 368 1.6155127452 464.894713422 30.0888671875 567 c 0
 60.3250502816 675.426780066 151.4453125 879 422 879 c 256
 711 879 807 682 909 682 c 256
 950.872070312 682 963.198242188 701.389648438 970.895507812 743 c 0
 981.436523438 799.982421875 1054.10644531 843 1131 843 c 2
 1150 843 l 2
 1257.109375 843 1338.80847621 746.020380343 1309.890625 643 c 0
 1279.59649222 535.076591097 1179.28125 332 909 332 c 256
 620 332 524 519 422 519 c 256
EndSplineSet
EndChar

StartChar: asciicircum
Encoding: 94 94 93
Width: 820
VWidth: 1920
Flags: HMW
LayerCount: 2
Fore
SplineSet
410 991.481445312 m 257
 387 890 l 2
 353.261929707 741.139646288 277 700 170 700 c 6
 160 700 l 6
 53 700 -28.9880055342 755.782178514 27 890 c 2
 173 1240 l 2
 222.815416772 1359.17563821 293 1430 400 1430 c 2
 420 1430 l 2
 527 1430 597.184583228 1359.17563821 647 1240 c 2
 793 890 l 2
 848.953637917 755.864566638 772.494140625 700 660 700 c 2
 650 700 l 2
 539.571289062 700 466.76494922 741.021050097 433 890 c 2
 410 991.481445312 l 257
EndSplineSet
EndChar

StartChar: figuredash
Encoding: 8210 8210 108
Width: 1150
VWidth: 2048
Flags: HMW
LayerCount: 2
Fore
SplineSet
10 595 m 10
 10 630 l 18
 10 737 93 790 200 790 c 10
 950 790 l 18
 1057 790 1140 737 1140 630 c 10
 1140 595 l 18
 1140 488 1057 435 950 435 c 10
 200 435 l 18
 93 435 10 488 10 595 c 10
EndSplineSet
EndChar

StartChar: endash
Encoding: 8211 8211 109
Width: 1100
VWidth: 2048
Flags: HMW
LayerCount: 2
Fore
SplineSet
10 595 m 10
 10 630 l 18
 10 737 93 790 200 790 c 10
 900 790 l 18
 1007 790 1090 737 1090 630 c 10
 1090 595 l 18
 1090 488 1007 435 900 435 c 10
 200 435 l 18
 93 435 10 488 10 595 c 10
EndSplineSet
EndChar

StartChar: emdash
Encoding: 8212 8212 110
Width: 2200
VWidth: 2048
Flags: HMW
LayerCount: 2
Fore
SplineSet
10 595 m 10
 10 630 l 18
 10 737 93 790 200 790 c 10
 2000 790 l 18
 2107 790 2190 737 2190 630 c 10
 2190 595 l 18
 2190 488 2107 435 2000 435 c 10
 200 435 l 18
 93 435 10 488 10 595 c 10
EndSplineSet
EndChar

StartChar: uni2015
Encoding: 8213 8213 111
Width: 2360
VWidth: 2048
Flags: HMW
LayerCount: 2
Fore
SplineSet
10 595 m 10
 10 630 l 18
 10 737 93 790 200 790 c 10
 2160 790 l 18
 2267 790 2350 737 2350 630 c 10
 2350 595 l 18
 2350 488 2267 435 2160 435 c 10
 200 435 l 18
 93 435 10 488 10 595 c 10
EndSplineSet
EndChar

StartChar: quoteleft
Encoding: 8216 8216 114
Width: 740
VWidth: 1920
Flags: HMW
LayerCount: 2
Fore
SplineSet
567 1435 m 10
 575 1435 l 18
 612 1435 630.749023438 1395.3828125 585 1325 c 10
 455 1125 l 257
 465 1125 l 2
 573.520507812 1125 665 1023.59570312 665 915 c 2
 665 875 l 2
 665 728 562 625 385 625 c 2
 355 625 l 2
 178 625 75 728 75 875 c 2
 75 905 l 2
 75 1062 182.904296875 1163.09472656 264 1225 c 2
 434 1355 l 18
 500.061523438 1405.51757812 529 1435 567 1435 c 10
EndSplineSet
EndChar

StartChar: quotereversed
Encoding: 8219 8219 117
Width: 740
VWidth: 1920
Flags: HMW
LayerCount: 2
Fore
SplineSet
567 630 m 18
 529 630 500.061523438 659.482421875 434 710 c 10
 264 840 l 2
 182.904296875 901.905273438 75 1003 75 1160 c 2
 75 1190 l 2
 75 1337 178 1440 355 1440 c 2
 385 1440 l 2
 562 1440 665 1337 665 1190 c 2
 665 1150 l 2
 665 1041.40429688 573.520507812 940 465 940 c 2
 455 940 l 257
 585 740 l 18
 630.749023438 669.6171875 612 630 575 630 c 10
 567 630 l 18
EndSplineSet
EndChar

StartChar: bullet
Encoding: 8226 8226 120
Width: 890
VWidth: 2048
InSpiro: 1
Flags: HMW
LayerCount: 2
Fore
SplineSet
100 698 m 258
 100 793 l 258
 100 983 243 1100 440 1100 c 256
 637 1100 790 983 790 793 c 258
 790 698 l 258
 790 508 637 390 440 390 c 256
 243 390 100 508 100 698 c 258
EndSplineSet
EndChar

StartChar: dagger
Encoding: 8224 8224 124
Width: 1330
VWidth: 1920
Flags: HMW
LayerCount: 2
Fore
SplineSet
40 905 m 14
 40 940 l 22
 40 1017 123 1050 230 1050 c 14
 1100 1050 l 22
 1207 1050 1290 997 1290 940 c 14
 1290 905 l 22
 1290 848 1207 795 1100 795 c 14
 230 795 l 22
 123 795 40 828 40 905 c 14
630 1430 m 14
 700 1430 l 22
 857 1430 910 1317 910 1160 c 14
 910 240 l 22
 910 83 857 -30 700 -30 c 14
 630 -30 l 22
 473 -30 420 83 420 240 c 14
 420 1160 l 22
 420 1317 473 1430 630 1430 c 14
EndSplineSet
EndChar

StartChar: daggerdbl
Encoding: 8225 8225 125
Width: 1330
VWidth: 1920
Flags: HMW
LayerCount: 2
Fore
SplineSet
40 110 m 10
 40 145 l 18
 40 222 123 255 230 255 c 10
 1100 255 l 18
 1207 255 1290 202 1290 145 c 10
 1290 110 l 18
 1290 53 1207 0 1100 0 c 10
 230 0 l 18
 123 0 40 33 40 110 c 10
40 905 m 10
 40 940 l 18
 40 1017 123 1050 230 1050 c 10
 1100 1050 l 18
 1207 1050 1290 997 1290 940 c 10
 1290 905 l 18
 1290 848 1207 795 1100 795 c 10
 230 795 l 18
 123 795 40 828 40 905 c 10
630 1430 m 10
 700 1430 l 18
 857 1430 910 1317 910 1160 c 10
 910 -120 l 18
 910 -277 857 -390 700 -390 c 10
 630 -390 l 18
 473 -390 420 -277 420 -120 c 10
 420 1160 l 18
 420 1317 473 1430 630 1430 c 10
EndSplineSet
EndChar

StartChar: perthousand
Encoding: 8240 8240 126
Width: 2785
VWidth: 2048
Flags: HMW
LayerCount: 2
Fore
SplineSet
1855 283 m 262
 1855 318 l 262
 1855 508 2013 635 2290 635 c 260
 2567 635 2735 508 2735 318 c 262
 2735 283 l 262
 2735 93 2567 -35 2290 -35 c 260
 2013 -35 1855 93 1855 283 c 262
2230 293 m 262
 2230 213 2253 185 2290 185 c 260
 2327 185 2360 213 2360 293 c 262
 2360 308 l 262
 2360 388 2327 415 2290 415 c 260
 2253 415 2230 388 2230 308 c 262
 2230 293 l 262
50 1083 m 262
 50 1118 l 262
 50 1308 208 1435 485 1435 c 260
 762 1435 930 1308 930 1118 c 262
 930 1083 l 262
 930 893 762 765 485 765 c 260
 208 765 50 893 50 1083 c 262
425 1093 m 262
 425 1013 448 985 485 985 c 260
 522 985 555 1013 555 1093 c 262
 555 1108 l 262
 555 1188 522 1215 485 1215 c 260
 448 1215 425 1188 425 1108 c 262
 425 1093 l 262
925 283 m 262
 925 318 l 262
 925 508 1083 635 1360 635 c 260
 1637 635 1805 508 1805 318 c 262
 1805 283 l 262
 1805 93 1637 -35 1360 -35 c 260
 1083 -35 925 93 925 283 c 262
1300 293 m 262
 1300 213 1323 185 1360 185 c 260
 1397 185 1430 213 1430 293 c 262
 1430 308 l 262
 1430 388 1397 415 1360 415 c 260
 1323 415 1300 388 1300 308 c 262
 1300 293 l 262
1536 1140 m 6
 582 160 l 6
 476.232011036 51.3494452993 397 -30 320 -30 c 6
 310 -30 l 6
 183 -30 163.250080916 100.005324212 319 260 c 6
 1273 1240 l 6
 1378.76757812 1348.65039062 1458 1430 1535 1430 c 6
 1545 1430 l 6
 1672 1430 1691.74963718 1299.9943862 1536 1140 c 6
EndSplineSet
EndChar

StartChar: uni2031
Encoding: 8241 8241 127
Width: 3715
VWidth: 2048
Flags: HMW
LayerCount: 2
Fore
SplineSet
2785 283 m 262
 2785 318 l 262
 2785 508 2943 635 3220 635 c 260
 3497 635 3665 508 3665 318 c 262
 3665 283 l 262
 3665 93 3497 -35 3220 -35 c 260
 2943 -35 2785 93 2785 283 c 262
3160 293 m 262
 3160 213 3183 185 3220 185 c 260
 3257 185 3290 213 3290 293 c 262
 3290 308 l 262
 3290 388 3257 415 3220 415 c 260
 3183 415 3160 388 3160 308 c 262
 3160 293 l 262
1855 283 m 258
 1855 318 l 258
 1855 508 2013 635 2290 635 c 256
 2567 635 2735 508 2735 318 c 258
 2735 283 l 258
 2735 93 2567 -35 2290 -35 c 256
 2013 -35 1855 93 1855 283 c 258
2230 293 m 258
 2230 213 2253 185 2290 185 c 256
 2327 185 2360 213 2360 293 c 258
 2360 308 l 258
 2360 388 2327 415 2290 415 c 256
 2253 415 2230 388 2230 308 c 258
 2230 293 l 258
50 1083 m 258
 50 1118 l 258
 50 1308 208 1435 485 1435 c 256
 762 1435 930 1308 930 1118 c 258
 930 1083 l 258
 930 893 762 765 485 765 c 256
 208 765 50 893 50 1083 c 258
425 1093 m 258
 425 1013 448 985 485 985 c 256
 522 985 555 1013 555 1093 c 258
 555 1108 l 258
 555 1188 522 1215 485 1215 c 256
 448 1215 425 1188 425 1108 c 258
 425 1093 l 258
925 283 m 258
 925 318 l 258
 925 508 1083 635 1360 635 c 256
 1637 635 1805 508 1805 318 c 258
 1805 283 l 258
 1805 93 1637 -35 1360 -35 c 256
 1083 -35 925 93 925 283 c 258
1300 293 m 258
 1300 213 1323 185 1360 185 c 256
 1397 185 1430 213 1430 293 c 258
 1430 308 l 258
 1430 388 1397 415 1360 415 c 256
 1323 415 1300 388 1300 308 c 258
 1300 293 l 258
1536 1140 m 2
 582 160 l 2
 476.232011036 51.3494452993 397 -30 320 -30 c 2
 310 -30 l 2
 183 -30 163.250080916 100.005324212 319 260 c 2
 1273 1240 l 2
 1378.76757812 1348.65039062 1458 1430 1535 1430 c 2
 1545 1430 l 2
 1672 1430 1691.74963718 1299.9943862 1536 1140 c 2
EndSplineSet
EndChar

StartChar: fraction
Encoding: 8260 8260 128
Width: 930
VWidth: 1920
Flags: HMW
LayerCount: 2
Fore
SplineSet
828.538085938 1291.625 m 14
 839.461914062 1281.625 l 18
 898.909179688 1227.20507812 884.023187722 1140.89121831 839.122070312 1067.96484375 c 10
 312.122070312 212.03515625 l 22
 250.414417403 111.812362946 131.85546875 102.765625 80.4619140625 149.375 c 14
 70.5380859375 158.375 l 22
 12.8876953125 210.659179688 42.5639723133 303.565800582 90.8779296875 382.03515625 c 10
 617.877929688 1237.96484375 l 18
 662.779047097 1310.89121831 774.531425457 1341.0643173 828.538085938 1291.625 c 14
EndSplineSet
EndChar

StartChar: uni2074
Encoding: 8308 8308 129
Width: 784
VWidth: 1920
Flags: HMW
LayerCount: 2
Fore
SplineSet
802 863.5 m 258
 802 857.5 l 258
 802 787.299804688 764.200195312 755.5 682 755.5 c 258
 670 755.5 l 257
 670 737.5 l 258
 670 655.299804688 614.200195312 599.5 526 599.5 c 258
 520 599.5 l 258
 431.799804688 599.5 376 655.299804688 376 737.5 c 258
 376 755.5 l 257
 148 755.5 l 258
 41.7998046875 755.5 -8 823.299804688 -8 923.5 c 258
 -8 924.700195312 l 258
 -8 1006.90039062 18.892578125 1053.0390625 86.2001953125 1133.5 c 258
 270.400390625 1353.70019531 l 258
 329.455078125 1424.65527344 395.504882812 1469.5 502 1469.5 c 258
 508 1469.5 l 258
 614.200195312 1469.5 670 1389.70019531 670 1301.5 c 258
 670 965.5 l 257
 682 965.5 l 258
 764.200195312 965.5 802 933.700195312 802 863.5 c 258
382 965.5 m 257
 382 1218 l 257
 181 965.5 l 257
 382 965.5 l 257
  Spiro
    382 965.5 v
    382 1218 v
    181 965.5 v
    0 0 z
  EndSpiro
EndSplineSet
EndChar

StartChar: uni2073
Encoding: 8307 8307 130
Width: 773
VWidth: 1920
Flags: HMW
LayerCount: 2
Fore
SplineSet
176.599609375 976.200195312 m 258
 182.599609375 976.200195312 l 258
 270.799804688 976.200195312 308.599609375 932.400390625 308.599609375 874.200195312 c 258
 308.599609375 868.200195312 l 258
 308.599609375 844.221679688 333.19921875 819 380.599609375 819 c 256
 432.799804688 819 461.599609375 841.200195312 461.599609375 883.200195312 c 258
 461.599609375 898.200195312 l 258
 461.599609375 940.200195312 432.750976562 966 374.599609375 966 c 258
 362.599609375 966 l 258
 298.399414062 966 272.599609375 1009.79980469 272.599609375 1068 c 258
 272.599609375 1074 l 258
 272.599609375 1132.20019531 297.799804688 1176 362 1176 c 258
 362.599609375 1176 l 258
 402.731445312 1176 428.599609375 1189.79980469 428.599609375 1225.79980469 c 258
 428.599609375 1234.79980469 l 258
 428.599609375 1258.79980469 414.19921875 1281 374 1281 c 256
 338 1281 323.599609375 1268.88867188 323.599609375 1249.20019531 c 258
 323.599609375 1243.20019531 l 258
 323.599609375 1191 276.799804688 1171.20019531 200.599609375 1171.20019531 c 258
 194.599609375 1171.20019531 l 258
 94.3994140625 1171.20019531 41.599609375 1209 41.599609375 1279.20019531 c 258
 41.599609375 1291.20019531 l 258
 41.599609375 1389.59960938 174.799804688 1491 383 1491 c 256
 591.19921875 1491 725.599609375 1417.79980469 725.599609375 1279.79980469 c 258
 725.599609375 1264.79980469 l 258
 725.599609375 1114.79980469 576.799804688 1062 422.599609375 1062 c 257
 434.599609375 1092 l 257
 588.799804688 1092 755.599609375 1033.20019531 755.599609375 883.200195312 c 258
 755.599609375 838.200195312 l 258
 755.599609375 694.200195312 612.799804688 609 374.599609375 609 c 256
 163.399414062 609 26.599609375 701.400390625 26.599609375 856.200195312 c 258
 26.599609375 862.200195312 l 258
 26.599609375 926.400390625 64.3994140625 976.200195312 176.599609375 976.200195312 c 258
EndSplineSet
EndChar

StartChar: uni2072
Encoding: 8306 8306 131
Width: 762
VWidth: 1920
Flags: HMW
LayerCount: 2
Fore
SplineSet
33.400390625 733 m 258
 33.400390625 981.420898438 444.400390625 1066.37890625 444.400390625 1232.79980469 c 258
 444.400390625 1235.79980469 l 258
 444.400390625 1271.79980469 416.200195312 1288 382 1288 c 256
 340 1288 324.400390625 1263.74609375 324.400390625 1238.20019531 c 258
 324.400390625 1232.20019531 l 258
 324.400390625 1168 277.600585938 1130.20019531 189.400390625 1130.20019531 c 258
 183.400390625 1130.20019531 l 258
 95.2001953125 1130.20019531 42.400390625 1168 42.400390625 1256.20019531 c 258
 42.400390625 1268.20019531 l 258
 42.400390625 1402.44433594 160.600585938 1498 398.80078125 1498 c 256
 595 1498 732.400390625 1418.79980469 732.400390625 1262.79980469 c 258
 732.400390625 1235.79980469 l 258
 732.400390625 986.256835938 369.400390625 955.599609375 369.400390625 865 c 258
 369.400390625 859 l 257
 597.400390625 859 l 258
 703.600585938 859 753.400390625 839.200195312 753.400390625 751 c 258
 753.400390625 745 l 258
 753.400390625 656.799804688 703.600585938 637 597.400390625 637 c 258
 141.400390625 637 l 258
 65.2001953125 637 33.400390625 665.799804688 33.400390625 730 c 258
 33.400390625 733 l 258
EndSplineSet
EndChar

StartChar: uni2070
Encoding: 8304 8304 132
Width: 800
VWidth: 1920
Flags: HMW
LayerCount: 2
Fore
SplineSet
25 923 m 262
 25 1178 l 262
 25 1374 159 1491 400 1491 c 260
 641 1491 775 1374 775 1178 c 262
 775 923 l 262
 775 727 641 609 400 609 c 260
 159 609 25 727 25 923 c 262
319 935 m 262
 319 846 338 813 400 813 c 260
 462 813 481 846 481 935 c 262
 481 1166 l 262
 481 1255 462 1287 400 1287 c 260
 338 1287 319 1255 319 1166 c 262
 319 935 l 262
EndSplineSet
EndChar

StartChar: uni2075
Encoding: 8309 8309 133
Width: 769
VWidth: 1920
Flags: HMW
LayerCount: 2
Fore
SplineSet
177.400390625 891.799804688 m 258
 180.400390625 891.799804688 l 258
 274.544921875 891.799804688 288.819335938 859.291015625 318.786132812 832.400390625 c 256
 331.368164062 821.109375 353.068359375 806 381.400390625 806 c 256
 422.799804688 806 450.400390625 836 450.400390625 891.799804688 c 258
 450.400390625 906.799804688 l 258
 450.400390625 966.799804688 431.799804688 986 393.400390625 986 c 256
 362.74609375 986 340.944335938 956.591796875 334 948.544921875 c 256
 315.368164062 926.951171875 289.456054688 906.799804688 213.400390625 906.799804688 c 258
 159.400390625 906.799804688 l 258
 89.2001953125 906.799804688 47.677734375 963.578125 60.400390625 1068.79980469 c 258
 89.2001953125 1307 l 258
 101.732421875 1410.86425781 158.799804688 1463 265 1463 c 258
 559 1463 l 258
 677.200195312 1463 721 1431.20019531 721 1373 c 258
 721 1370 l 258
 721 1298 667 1253 547 1253 c 258
 328 1253 l 257
 289.796875 1070.21484375 l 257
 275.997070312 1070.21484375 l 257
 308.784179688 1144.28613281 414.166015625 1196 510.400390625 1196 c 256
 654.400390625 1196 744.400390625 1127 744.400390625 930.799804688 c 258
 744.400390625 891.799804688 l 258
 744.400390625 695.599609375 621.400390625 602 375.400390625 602 c 256
 175.006835938 602 59.359375 682.241210938 48.7216796875 771.799804688 c 256
 39.0595703125 853.154296875 95.150390625 891.799804688 177.400390625 891.799804688 c 258
  Spiro
    177.4 891.8 [
    180.4 891.8 ]
    251.409 882.393 o
    290.541 859.725 o
    318.787 832.4 o
    334.297 820.549 o
    355.394 810.327 o
    381.4 806 o
    417.658 815.825 o
    441.728 844.794 o
    450.4 891.8 [
    450.4 906.8 ]
    444.168 953.965 o
    425.219 978.815 o
    393.4 986 o
    365.944 978.091 o
    345.658 961.815 o
    334 948.544 o
    311.382 928.143 o
    274.282 912.813 o
    213.4 906.8 [
    159.4 906.8 ]
    99.7548 925.38 o
    64.7922 980.107 o
    60.4002 1068.8 [
    89.2002 1307 ]
    116.705 1393.54 o
    175.081 1445.67 o
    265 1463 [
    559 1463 ]
    653.464 1452.62 o
    705.298 1422.16 o
    721 1373 [
    721 1370 ]
    702.592 1307.72 o
    645.37 1267.3 o
    547 1253 [
    328 1253 v
    289.797 1070.21 v
    275.997 1070.21 v
    329.882 1135.69 o
    414.238 1179.88 o
    510.4 1196 o
    634.96 1170.9 o
    715.792 1086.64 o
    744.4 930.8 [
    744.4 891.8 ]
    703.48 729.595 o
    580.236 633.47 o
    375.4 602 o
    204.148 626.075 o
    93.5334 688.05 o
    48.7219 771.8 o
    59.481 839.015 o
    105.397 878.794 o
    0 0 z
  EndSpiro
EndSplineSet
EndChar

StartChar: uni2076
Encoding: 8310 8310 134
Width: 843
VWidth: 1920
Flags: HMW
LayerCount: 2
Fore
SplineSet
430 1014 m 256
 364 1014 328 981 328 931.200195312 c 258
 328 895.200195312 l 257
 274 943.200195312 l 257
 274 1101.59960938 353.799804688 1164 532 1164 c 256
 728.200195312 1164 813.400390625 1068.59960938 813.400390625 904.200195312 c 258
 813.400390625 874.200195312 l 258
 813.400390625 707.400390625 664.600585938 609 429.400390625 609 c 256
 143.200195312 609 37 730.200195312 37 946.200195312 c 258
 37 1135.79980469 l 258
 37 1363.79980469 167.799804688 1491 424 1491 c 256
 668.200195312 1491 759.400390625 1390.70117188 759.400390625 1304.40039062 c 258
 759.400390625 1303.20019531 l 258
 759.400390625 1227 688.600585938 1195.20019531 630.400390625 1195.20019531 c 258
 624.400390625 1195.20019531 l 258
 536.200195312 1195.20019531 495.400390625 1221 495.400390625 1255.20019531 c 258
 495.400390625 1256.40039062 l 258
 495.400390625 1276.14648438 478 1281 436 1281 c 256
 359.799804688 1281 328 1222.79980469 328 1132.79980469 c 258
 328 907.200195312 l 258
 328 853.200195312 359.200195312 819 423.400390625 819 c 256
 494.799804688 819 519.400390625 856.200195312 519.400390625 904.200195312 c 258
 519.400390625 916.200195312 l 258
 519.400390625 966 496 1014 430 1014 c 256
EndSplineSet
EndChar

StartChar: uni2077
Encoding: 8311 8311 135
Width: 719
VWidth: 1920
Flags: HMW
LayerCount: 2
Fore
SplineSet
698.19921875 1266 m 258
 555.399414062 828 l 258
 514.590820312 702.829101562 476.497070312 612 358 612 c 258
 352 612 l 258
 227.799804688 612 177.927734375 730.078125 240.399414062 840 c 258
 445 1200 l 257
 199 1200 l 258
 62.7998046875 1200 19 1243.79980469 19 1332 c 258
 19 1338 l 258
 19 1426.20019531 62.7998046875 1470 199 1470 c 258
 535 1470 l 258
 695.422851562 1470 743.94140625 1406.29980469 698.19921875 1266 c 258
  Spiro
    698.2 1266 [
    555.4 828 ]
    512.465 716.465 o
    452.7 640.13 o
    358 612 [
    352 612 ]
    254.054 646.619 o
    213.959 732.136 o
    240.4 840 [
    445 1200 v
    199 1200 ]
    91.8798 1214.59 o
    35.365 1258.64 o
    18.9996 1332 [
    18.9996 1338 ]
    35.365 1411.36 o
    91.8798 1455.41 o
    199 1470 [
    535 1470 ]
    658.69 1448.33 o
    711.886 1381.15 o
    0 0 z
  EndSpiro
EndSplineSet
EndChar

StartChar: uni2078
Encoding: 8312 8312 136
Width: 816
VWidth: 1920
Flags: HMW
LayerCount: 2
Fore
SplineSet
408 816 m 256
 462 816 490 843 490 889 c 258
 490 892 l 258
 490 938 462 966 408 966 c 256
 354 966 326 938 326 892 c 258
 326 889 l 258
 326 843 354 816 408 816 c 256
408 1176 m 256
 438 1176 460 1199 460 1232 c 258
 460 1235 l 258
 460 1263 437 1284 408 1284 c 256
 379 1284 356 1263 356 1235 c 258
 356 1232 l 258
 356 1199 378 1176 408 1176 c 256
427 1086 m 257
 685 1086 784 1004 784 865 c 258
 784 838 l 258
 784 690 683 609 408 609 c 256
 163 609 32 690 32 838 c 258
 32 865 l 258
 32 1004 161 1086 389 1086 c 257
 391 1062 l 257
 171 1065 62 1132 62 1265 c 258
 62 1280 l 258
 62 1413 187 1491 408 1491 c 256
 659 1491 754 1413 754 1280 c 258
 754 1265 l 258
 754 1132 675 1065 425 1062 c 257
 427 1086 l 257
EndSplineSet
EndChar

StartChar: uni2079
Encoding: 8313 8313 137
Width: 843
VWidth: 1920
Flags: HMW
LayerCount: 2
Fore
SplineSet
413.400390625 1086 m 256
 479.400390625 1086 515.400390625 1119 515.400390625 1168.79980469 c 258
 515.400390625 1204.79980469 l 257
 569.400390625 1156.79980469 l 257
 569.400390625 998.400390625 489.600585938 936 311.400390625 936 c 256
 115.200195312 936 30 1031.40039062 30 1195.79980469 c 258
 30 1225.79980469 l 258
 30 1392.59960938 178.799804688 1491 414 1491 c 256
 700.200195312 1491 806.400390625 1369.79980469 806.400390625 1153.79980469 c 258
 806.400390625 964.200195312 l 258
 806.400390625 736.200195312 663.600585938 609 407.400390625 609 c 256
 115.200195312 609 42 709.298828125 42 783.599609375 c 258
 42 784.799804688 l 258
 42 861 88.7998046875 904.799804688 183 904.799804688 c 258
 189 904.799804688 l 258
 277.200195312 904.799804688 306 879 306 844.799804688 c 258
 306 843.599609375 l 258
 306 823.853515625 347.400390625 819 389.400390625 819 c 256
 465.600585938 819 515.400390625 877.200195312 515.400390625 967.200195312 c 258
 515.400390625 1192.79980469 l 258
 515.400390625 1246.79980469 484.200195312 1281 420 1281 c 256
 348.600585938 1281 324 1243.79980469 324 1195.79980469 c 258
 324 1183.79980469 l 258
 324 1134 347.400390625 1086 413.400390625 1086 c 256
EndSplineSet
EndChar

StartChar: uni00B9
Encoding: 185 185 138
Width: 368
VWidth: 1920
Flags: HMW
LayerCount: 2
Fore
SplineSet
104 1441 m 4
 139.005859375 1451 144.726138836 1457.66953805 155 1474 c 4
 171.293630855 1499.89897941 199 1510 243 1510 c 2
 245 1510 l 2
 299 1510 331 1458 331 1404 c 2
 331 796 l 2
 331 672 279 610 195 610 c 2
 173 610 l 2
 89 610 37 672 37 796 c 2
 37 1278 l 2
 37 1382 51.115234375 1425.89257812 104 1441 c 4
EndSplineSet
EndChar

StartChar: cent
Encoding: 162 162 154
Width: 1130
VWidth: 1920
Flags: HMW
LayerCount: 2
Fore
SplineSet
655.392578125 1240 m 258
 665.392578125 1240 l 258
 682.392578125 1240 700.392578125 1227 700.392578125 1190 c 258
 700.392578125 -140 l 258
 700.392578125 -177 682.392578125 -190 665.392578125 -190 c 258
 655.392578125 -190 l 258
 638.392578125 -190 620.392578125 -177 620.392578125 -140 c 258
 620.392578125 1190 l 258
 620.392578125 1227 638.392578125 1240 655.392578125 1240 c 258
EndSplineSet
Refer: 40 99 N 1 0 0 1 0 0 2
EndChar

StartChar: uni203D
Encoding: 8253 8253 157
Width: 1640
VWidth: 1920
Flags: HMW
LayerCount: 2
Fore
SplineSet
605 870 m 2
 605 880 l 2
 605 987 688 1070 815 1070 c 2
 825 1070 l 2
 952 1070 1015 987 1015 880 c 2
 1015 870 l 2
 1015 803 1004.49996274 773.773486483 969 680 c 2
 916 540 l 2
 915.182617188 533.096679688 882 500 875 500 c 2
 865 500 l 2
 728 500 702.507177365 545.383545936 668 640 c 2
 650 690 l 2
 622.210403572 767.193323411 605 803 605 870 c 2
905 -40 m 2
 875 -40 l 2
 698 -40 595 53 595 200 c 2
 595 210 l 2
 595 357 698 450 875 450 c 2
 905 450 l 2
 1082 450 1185 357 1185 210 c 2
 1185 200 l 2
 1185 53 1082 -40 905 -40 c 2
880 500 m 2
 870 500 l 2
 862.912109375 500 729.69140625 532.961914062 728.740234375 539 c 0
 685.885742188 810.931640625 1045 848.14453125 1045 983 c 258
 1045 998 l 258
 1045 1048 1006 1085 819 1085 c 256
 649 1085 565 1054.77148438 565 1012 c 258
 565 1007 l 2
 565 960 522 902 365 902 c 2
 355 902 l 2
 218 902 95 975 95 1082 c 2
 95 1092 l 258
 95 1286 312 1435 859 1435 c 256
 1336 1435 1605 1323 1605 1103 c 258
 1605 1078 l 258
 1605 754.727539062 1198.25683594 734.637695312 1110.55664062 628 c 0
 1033.19433594 533.931640625 996.930664062 500 880 500 c 2
EndSplineSet
EndChar

StartChar: ordfeminine
Encoding: 170 170 159
Width: 948
VWidth: 1920
Flags: HMW
LayerCount: 2
Fore
SplineSet
389 892 m 0
 389 854 408 821 457 821 c 256
 507 821 530 865 530 933 c 257
 608 827 l 257
 608 705 486 609 317 609 c 256
 143 609 25 693 25 852 c 0
 25 1047 197 1115 401 1139 c 256
 511 1152 530 1175 530 1201 c 257
 554 1023 l 257
 554 985 502.717773438 973.237304688 465 964 c 256
 416 952 389 930 389 892 c 0
530 779 m 258
 530 1221 l 258
 530 1245 508 1271 469 1271 c 256
 438 1271 420.534179688 1261.41503906 413 1242 c 0
 394.87890625 1195.30371094 361 1177 257 1177 c 2
 247 1177 l 2
 143 1177 100.572977595 1241.02767234 136 1322 c 0
 161.613542942 1380.5425489 273 1489 510 1489 c 256
 796 1489 888 1375 888 1214 c 258
 888 869 l 258
 888 802 891.993164062 739.76171875 902 708 c 0
 925 635 874 614 770 614 c 2
 740 614 l 2
 636 614 591 632 569 664 c 0
 549.705078125 692.065429688 530 722 530 779 c 258
EndSplineSet
EndChar

StartChar: exclamdown
Encoding: 161 161 160
Width: 740
VWidth: 1920
Flags: HMW
LayerCount: 2
Fore
SplineSet
355 1090 m 2
 385 1090 l 2
 562 1090 665 987 665 840 c 2
 665 800 l 2
 665 653 562 550 385 550 c 2
 355 550 l 2
 178 550 75 653 75 800 c 2
 75 840 l 2
 75 987 178 1090 355 1090 c 2
675 -130 m 2
 675 -160 l 2
 675 -317 542 -430 385 -430 c 2
 355 -430 l 2
 198 -430 65 -317 65 -160 c 2
 65 -130 l 2
 65 -23 81.7822265625 54.45703125 136 190 c 2
 215 390 l 2
 251.637695312 482.75390625 288 520 365 520 c 2
 375 520 l 2
 452 520 488.362304688 482.75390625 525 390 c 2
 604 190 l 2
 658.217773438 54.45703125 675 -23 675 -130 c 2
EndSplineSet
EndChar

StartChar: AE
Encoding: 198 198 161
Width: 2268
VWidth: 1920
Flags: HMW
LayerCount: 2
Fore
SplineSet
488 570 m 257
 1158 570 l 257
 1158 320 l 257
 488 320 l 257
 488 570 l 257
1303 1400 m 1
 490 160 l 2
 394.633300958 14.5452560741 335 -30 238 -30 c 2
 228 -30 l 2
 121 -30 18.6544763233 66.5137779795 146 260 c 2
 791 1240 l 2
 863.261410788 1349.73029046 947 1400 1104 1400 c 2
 1303 1400 l 1
EndSplineSet
Refer: 16 69 N 1 0 0 1 958 0 2
EndChar

StartChar: questiondown
Encoding: 191 191 162
Width: 1320
VWidth: 1920
Flags: HMW
LayerCount: 2
Fore
SplineSet
675 1090 m 2
 705 1090 l 2
 882 1090 985 997 985 850 c 2
 985 840 l 2
 985 693 882 600 705 600 c 2
 675 600 l 2
 498 600 395 693 395 840 c 2
 395 850 l 2
 395 997 498 1090 675 1090 c 2
670 540 m 2
 680 540 l 2
 787.087890625 540 877.700195312 489.001953125 836.259765625 361 c 0
 795.576171875 235.334960938 595 171.85546875 595 67 c 258
 595 52 l 258
 595 2 624 -35 681 -35 c 256
 741 -35 765 5.228515625 765 38 c 258
 765 40 l 2
 765 97 813 148 980 148 c 2
 990 148 l 2
 1157 148 1245 85 1245 -22 c 2
 1245 -32 l 258
 1245 -226 1058 -385 661 -385 c 256
 264 -385 35 -273 35 -53 c 258
 35 -28 l 258
 35 295.272460938 367.618164062 298.067382812 472.443359375 418 c 0
 554.922851562 512.366210938 603.069335938 540 670 540 c 2
EndSplineSet
EndChar

StartChar: yen
Encoding: 165 165 163
Width: 1490
VWidth: 1920
Flags: HMW
LayerCount: 2
Fore
SplineSet
145.0390625 335 m 14
 145.0390625 340 l 22
 145.0390625 377 178.0390625 400 255.0390625 400 c 10
 1225.0390625 400 l 18
 1302.0390625 400 1335.0390625 377 1335.0390625 340 c 10
 1335.0390625 335 l 18
 1335.0390625 298 1302.0390625 275 1225.0390625 275 c 10
 255.0390625 275 l 18
 178.0390625 275 145.0390625 298 145.0390625 335 c 14
145.0390625 605 m 14
 145.0390625 610 l 22
 145.0390625 647 178.0390625 670 255.0390625 670 c 10
 1225.0390625 670 l 18
 1302.0390625 670 1335.0390625 647 1335.0390625 610 c 10
 1335.0390625 605 l 18
 1335.0390625 568 1302.0390625 545 1225.0390625 545 c 10
 255.0390625 545 l 18
 178.0390625 545 145.0390625 568 145.0390625 605 c 14
EndSplineSet
Refer: 36 89 N 1 0 0 1 0 0 2
EndChar

StartChar: gravecomb
Encoding: 768 768 164
Width: 0
Flags: HMW
AnchorPoint: "top" -563 1000 mark 0
LayerCount: 2
Fore
SplineSet
-484 1054 m 6
 -494 1054 l 6
 -581 1054 -691.172851562 1121.06933594 -806 1204 c 6
 -842 1230 l 6
 -990.747070312 1339.20703125 -876 1430 -719 1430 c 6
 -709 1430 l 6
 -552 1430 -484.502929688 1389.53515625 -457 1290 c 6
 -436 1214 l 6
 -405.9296875 1105.17382812 -427 1054 -484 1054 c 6
EndSplineSet
EndChar

StartChar: acutecomb
Encoding: 769 769 165
Width: 0
Flags: HMW
AnchorPoint: "top" -548 1000 mark 0
LayerCount: 2
Fore
SplineSet
-623 1054 m 6
 -680 1054 -701.0703125 1105.17382812 -671 1214 c 6
 -650 1290 l 6
 -622.497070312 1389.53515625 -555 1430 -398 1430 c 6
 -388 1430 l 6
 -231 1430 -116.252929688 1339.20703125 -265 1230 c 6
 -301 1204 l 6
 -415.827148438 1121.06933594 -526 1054 -613 1054 c 6
 -623 1054 l 6
EndSplineSet
EndChar

StartChar: uni0302
Encoding: 770 770 166
Width: 0
VWidth: 1920
Flags: HMW
AnchorPoint: "top" -559 1000.48 mark 0
LayerCount: 2
Fore
SplineSet
-560 1191.48144531 m 261
 -566 1180 l 6
 -610.113168792 1095.58617751 -668 1070 -755 1070 c 6
 -760 1070 l 6
 -877 1070 -911.766213973 1148.71049628 -839 1260 c 6
 -819 1290 l 6
 -767.509915865 1367.2351262 -697 1400 -590 1400 c 6
 -530 1400 l 6
 -423 1400 -348.477463942 1367.21619591 -297 1290 c 6
 -277 1260 l 6
 -202.886644547 1151.74453698 -227.505859375 1070 -350 1070 c 6
 -355 1070 l 6
 -445.428710938 1070 -505.198705933 1101.59600806 -553 1180 c 6
 -560 1191.48144531 l 261
EndSplineSet
EndChar

StartChar: tildecomb
Encoding: 771 771 167
Width: 0
Flags: HMW
AnchorPoint: "top" -578 1000 mark 0
LayerCount: 2
Fore
SplineSet
-648 1189 m 256
 -670.086914062 1189 -690.625324921 1178.67398163 -699.916015625 1147 c 0
 -710.46875 1111.0234375 -728.0859375 1078 -805 1078 c 6
 -815 1078 l 6
 -892.088867188 1078 -920.092897153 1110.99833019 -919.911132812 1217 c 0
 -919.673773621 1355.42357934 -808.5546875 1429 -718 1429 c 256
 -589 1429 -533 1322 -481 1322 c 256
 -459.127929688 1322 -441.044469688 1332.92789687 -429.104492188 1363 c 0
 -418.397460938 1389.96679688 -400.893554688 1433 -324 1433 c 2
 -315 1433 l 2
 -247.890625 1433 -209.881043698 1410.00251968 -210.109375 1303 c 0
 -210.403680393 1165.0801514 -320.71875 1082 -411 1082 c 256
 -540 1082 -596 1189 -648 1189 c 256
EndSplineSet
EndChar

StartChar: uni0304
Encoding: 772 772 168
Width: 0
VWidth: 1920
Flags: HMW
AnchorPoint: "top" -560 1000 mark 0
LayerCount: 2
Fore
SplineSet
-860 1210 m 14
 -860 1215 l 22
 -860 1302 -807 1330 -700 1330 c 10
 -420 1330 l 22
 -313 1330 -260 1302 -260 1215 c 14
 -260 1210 l 22
 -260 1123 -313 1095 -420 1095 c 14
 -700 1095 l 18
 -807 1095 -860 1123 -860 1210 c 14
EndSplineSet
EndChar

StartChar: uni0306
Encoding: 774 774 169
Width: 0
VWidth: 1920
Flags: HMW
AnchorPoint: "top" -560 1000 mark 0
LayerCount: 2
Fore
SplineSet
-560 1365 m 4
 -505 1365 -496.010742188 1390.01464844 -490 1407 c 4
 -476.5546875 1444.99316406 -432 1478 -345 1478 c 6
 -340 1478 l 6
 -263 1478 -194.099875027 1434.00037454 -207 1354 c 4
 -225.090490887 1241.81147085 -297 1095 -560 1095 c 4
 -823 1095 -885.384557824 1232.90123398 -913 1347 c 4
 -931.347718208 1422.80729628 -857 1478 -780 1478 c 6
 -775 1478 l 6
 -688 1478 -643.5 1444.9921875 -630 1405 c 4
 -623.59765625 1386.03417969 -613 1365 -560 1365 c 4
EndSplineSet
EndChar

StartChar: uni0307
Encoding: 775 775 170
Width: 0
Flags: HMW
AnchorPoint: "top" -548 950 mark 0
LayerCount: 2
Fore
SplineSet
-545 1000 m 6
 -555 1000 l 6
 -702 1000 -795 1093 -795 1210 c 6
 -795 1230 l 6
 -795 1347 -702 1440 -555 1440 c 6
 -545 1440 l 6
 -398 1440 -305 1347 -305 1230 c 6
 -305 1210 l 6
 -305 1093 -398 1000 -545 1000 c 6
EndSplineSet
EndChar

StartChar: uni0308
Encoding: 776 776 171
Width: 0
Flags: HMW
AnchorPoint: "top" -548 950 mark 0
LayerCount: 2
Fore
SplineSet
-775 1000 m 2
 -785 1000 l 2
 -902 1000 -975 1083 -975 1210 c 6
 -975 1230 l 6
 -975 1357 -902 1440 -785 1440 c 2
 -775 1440 l 2
 -658 1440 -585 1357 -585 1230 c 6
 -585 1210 l 6
 -585 1083 -658 1000 -775 1000 c 2
-325 1000 m 2
 -335 1000 l 2
 -452 1000 -525 1083 -525 1210 c 6
 -525 1230 l 6
 -525 1357 -452 1440 -335 1440 c 2
 -325 1440 l 2
 -208 1440 -135 1357 -135 1230 c 6
 -135 1210 l 6
 -135 1083 -208 1000 -325 1000 c 2
EndSplineSet
EndChar

StartChar: uni030A
Encoding: 778 778 172
Width: 0
Flags: HMW
AnchorPoint: "top" -554 1000 mark 0
LayerCount: 2
Fore
SplineSet
-360 1312 m 0
 -360 1208 -450 1122 -554 1122 c 0
 -660 1122 -750 1206 -750 1312 c 0
 -750 1414 -660 1502 -554 1502 c 0
 -448 1502 -360 1420 -360 1312 c 0
-454 1312 m 0
 -454 1368 -500 1407 -554 1407 c 0
 -608 1407 -654 1362 -654 1312 c 0
 -654 1258 -608 1217 -554 1217 c 0
 -502 1217 -454 1262 -454 1312 c 0
EndSplineSet
EndChar

StartChar: uni030B
Encoding: 779 779 173
Width: 0
Flags: HMW
AnchorPoint: "top" -618 1000 mark 0
LayerCount: 2
Fore
SplineSet
-407 1054 m 2
 -464 1054 -485.0703125 1105.17382812 -455 1214 c 2
 -434 1290 l 2
 -406.497070312 1389.53515625 -339 1430 -182 1430 c 2
 -172 1430 l 2
 -15 1430 99.7470703125 1339.20703125 -49 1230 c 2
 -85 1204 l 2
 -199.827148438 1121.06933594 -310 1054 -397 1054 c 2
 -407 1054 l 2
-917 1054 m 6
 -974 1054 -995.0703125 1105.17382812 -965 1214 c 6
 -944 1290 l 6
 -916.497070312 1389.53515625 -849 1430 -692 1430 c 6
 -682 1430 l 6
 -525 1430 -410.252929688 1339.20703125 -559 1230 c 6
 -595 1204 l 6
 -709.827148438 1121.06933594 -820 1054 -907 1054 c 6
 -917 1054 l 6
EndSplineSet
EndChar

StartChar: uni030C
Encoding: 780 780 174
Width: 0
Flags: HMW
AnchorPoint: "top" -554 1000 mark 0
LayerCount: 2
Fore
SplineSet
-554 1329 m 257
 -548 1340.48144531 l 2
 -503.88671875 1424.89550781 -446 1450.48144531 -359 1450.48144531 c 2
 -354 1450.48144531 l 2
 -237 1450.48144531 -202.233398438 1371.77050781 -275 1260.48144531 c 2
 -295 1230.48144531 l 2
 -346.490234375 1153.24609375 -417 1120.48144531 -524 1120.48144531 c 2
 -584 1120.48144531 l 2
 -691 1120.48144531 -765.522460938 1153.265625 -817 1230.48144531 c 2
 -837 1260.48144531 l 2
 -911.11328125 1368.73730469 -886.494140625 1450.48144531 -764 1450.48144531 c 2
 -759 1450.48144531 l 2
 -668.571289062 1450.48144531 -608.801757812 1418.88574219 -561 1340.48144531 c 2
 -554 1329 l 257
EndSplineSet
EndChar

StartChar: uni030F
Encoding: 783 783 175
Width: 0
Flags: HMW
AnchorPoint: "top" -508 1000 mark 0
LayerCount: 2
Fore
SplineSet
-194 1054 m 2
 -204 1054 l 2
 -291 1054 -401.172851562 1121.06933594 -516 1204 c 2
 -552 1230 l 2
 -700.747070312 1339.20703125 -586 1430 -429 1430 c 2
 -419 1430 l 2
 -262 1430 -194.502929688 1389.53515625 -167 1290 c 2
 -146 1214 l 2
 -115.9296875 1105.17382812 -137 1054 -194 1054 c 2
-684 1054 m 6
 -694 1054 l 6
 -781 1054 -891.172851562 1121.06933594 -1006 1204 c 6
 -1042 1230 l 6
 -1190.74707031 1339.20703125 -1076 1430 -919 1430 c 6
 -909 1430 l 6
 -752 1430 -684.502929688 1389.53515625 -657 1290 c 6
 -636 1214 l 6
 -605.9296875 1105.17382812 -627 1054 -684 1054 c 6
EndSplineSet
EndChar

StartChar: uni0311
Encoding: 785 785 176
Width: 0
Flags: HMW
AnchorPoint: "top" -604 1000 mark 0
LayerCount: 2
Fore
SplineSet
-604 1245 m 0
 -659 1245 -667.989257812 1219.98535156 -674 1203 c 0
 -687.4453125 1165.00683594 -732 1132 -819 1132 c 2
 -824 1132 l 2
 -901 1132 -969.900390625 1176 -957 1256 c 0
 -938.909179688 1368.18847656 -867 1515 -604 1515 c 0
 -341 1515 -278.615234375 1377.09863281 -251 1263 c 0
 -232.65234375 1187.19238281 -307 1132 -384 1132 c 2
 -389 1132 l 2
 -476 1132 -520.5 1165.0078125 -534 1205 c 0
 -540.40234375 1223.96582031 -551 1245 -604 1245 c 0
EndSplineSet
EndChar

StartChar: dotbelowcomb
Encoding: 803 803 177
Width: 0
Flags: HMW
AnchorPoint: "bottom" -551 0 mark 0
LayerCount: 2
Fore
SplineSet
-545 -490 m 6
 -555 -490 l 6
 -702 -490 -795 -397 -795 -280 c 6
 -795 -260 l 6
 -795 -143 -702 -50 -555 -50 c 6
 -545 -50 l 6
 -398 -50 -305 -143 -305 -260 c 6
 -305 -280 l 6
 -305 -397 -398 -490 -545 -490 c 6
EndSplineSet
EndChar

StartChar: uni0326
Encoding: 806 806 178
Width: 0
Flags: HMW
AnchorPoint: "bottom" -561 0 mark 0
LayerCount: 2
Fore
SplineSet
-720 -703 m 14
 -726 -703 l 22
 -756 -703 -771 -671 -734 -615 c 14
 -630 -455 l 261
 -638 -455 l 6
 -725 -455 -798 -374 -798 -287 c 6
 -798 -255 l 6
 -798 -137 -716 -55 -574 -55 c 6
 -550 -55 l 6
 -408 -55 -326 -137 -326 -255 c 6
 -326 -279 l 6
 -326 -405 -412 -485 -477 -535 c 6
 -613 -639 l 22
 -666 -679 -690 -703 -720 -703 c 14
EndSplineSet
EndChar

StartChar: uni0327
Encoding: 807 807 179
Width: 1200
Flags: HMW
AnchorPoint: "bottom" -531 0 mark 0
LayerCount: 2
Fore
SplineSet
-633 -650 m 0
 -772.012695312 -650 -817.317382812 -635.611328125 -881 -618.872070312 c 0
 -958.223632812 -598.57421875 -984.981445312 -543.81640625 -976 -454 c 2
 -975 -444 l 2
 -966.053710938 -354.53515625 -883.392578125 -312.186523438 -816 -321.975585938 c 0
 -768.807617188 -328.830078125 -730.182617188 -339 -671 -339 c 0
 -627 -339 -593 -319 -593 -297 c 0
 -593 -280.534179688 -607.094515217 -240.659505831 -760 -240.073242188 c 0
 -793.030180338 -239.946599288 -809.9453125 -233.109375 -814 -225 c 2
 -815 -223 l 2
 -823.434570312 -206.130859375 -815.025486521 -184.29237402 -788 -145 c 2
 -647 60 l 1
 -305 60 l 1
 -472 -172 l 1
 -456 -167 -440 -164 -425 -164 c 0
 -339 -164 -249 -182 -249 -362 c 0
 -249 -590 -429 -650 -633 -650 c 0
EndSplineSet
EndChar

StartChar: uni0328
Encoding: 808 808 180
Width: 1200
Flags: HMW
AnchorPoint: "ogonek" -551 0 mark 0
LayerCount: 2
Fore
SplineSet
-334 -370 m 2
 -334 -380 l 2
 -334 -487 -378 -540 -485 -540 c 2
 -495 -540 l 2
 -633 -540 -911 -488 -911 -280 c 0
 -911 -62 -687 -2 -527 70 c 1
 -465 0 l 1
 -569 -44 -601 -96 -601 -150 c 0
 -601 -192 -574.989257812 -200 -485 -200 c 2
 -484 -200 l 2
 -377 -200 -334 -264.059570312 -334 -370 c 2
EndSplineSet
EndChar

StartChar: uni0312
Encoding: 786 786 181
Width: 0
Flags: HMW
AnchorPoint: "top" -604 900 mark 0
LayerCount: 2
Fore
SplineSet
-439 1628 m 14
 -433 1628 l 22
 -403 1628 -388 1596 -425 1540 c 14
 -529 1380 l 261
 -521 1380 l 6
 -434 1380 -361 1299 -361 1212 c 6
 -361 1180 l 6
 -361 1062 -443 980 -585 980 c 6
 -609 980 l 6
 -751 980 -833 1062 -833 1180 c 6
 -833 1204 l 6
 -833 1330 -747 1410 -682 1460 c 6
 -546 1564 l 22
 -493 1604 -469 1628 -439 1628 c 14
EndSplineSet
EndChar

StartChar: sterling
Encoding: 163 163 182
Width: 1420
VWidth: 1920
Flags: HMW
LayerCount: 2
Fore
SplineSet
10 685 m 10
 10 700 l 18
 10 807 93 850 200 850 c 10
 890 850 l 18
 997 850 1080 807 1080 700 c 10
 1080 685 l 18
 1080 578 997 535 890 535 c 10
 200 535 l 18
 93 535 10 578 10 685 c 10
154 392 m 0
 243.516601562 440.288085938 318 495 318 614.35546875 c 0
 318 792.5078125 130 794.966796875 130 1043 c 0
 130 1273 378 1435 715 1435 c 0
 1059.171875 1435 1242.43341306 1267.7373285 1289.68945312 1121 c 0
 1335.39354632 979.081707064 1227.04394531 913 1090 913 c 6
 1080 913 l 6
 973.072265625 913 879.74609375 963.041015625 848.927734375 1031 c 0
 833.942382812 1064.04589844 789.612304688 1095 735 1095 c 0
 658 1095 610 1063 610 993 c 0
 610 871.723632812 778 850 778 644.35546875 c 0
 778 472.653320312 647.922851562 411.385742188 528.950195312 355 c 1
 1110 355 l 2
 1267 355 1360 297 1360 180 c 2
 1360 175 l 2
 1360 58 1267 -1.92269547466e-14 1110 0 c 2
 280 0 l 2
 123 0 40 83 40 180 c 2
 40 205 l 2
 40 289.28125 54.2413366895 338.18702204 154 392 c 0
EndSplineSet
EndChar

StartChar: currency
Encoding: 164 164 183
Width: 1112
Flags: HMW
LayerCount: 2
Fore
SplineSet
1023 1182 m 14
 1039 1167 l 22
 1115 1091 1086 1002 1010 926 c 14
 954 870 l 22
 949 865 945 865 940 870 c 14
 712 1098 l 22
 707 1103 707 1107 712 1112 c 14
 768 1168 l 22
 844 1244 947 1258 1023 1182 c 14
160 546 m 14
 388 318 l 22
 393 313 393 309 388 304 c 14
 332 248 l 22
 256 172 167 143 91 219 c 14
 76 235 l 22
 0 311 14 414 90 490 c 14
 146 546 l 22
 151 551 155 551 160 546 c 14
68 1173 m 14
 84 1190 l 22
 160 1266 256 1244 332 1168 c 14
 388 1112 l 22
 393 1107 393 1103 388 1098 c 14
 160 869 l 22
 155 864 151 864 146 869 c 14
 89 926 l 22
 13 1002 -8 1097 68 1173 c 14
711 318 m 14
 870 476 l 22
 875 481 949 551 954 546 c 14
 1010 490 l 22
 1086 414 1108 318 1032 242 c 14
 1015 226 l 22
 939 150 844 171 768 247 c 14
 711 304 l 22
 706 309 706 313 711 318 c 14
63 710 m 0
 63 979 284 1200 553 1200 c 0
 822 1200 1043 979 1043 710 c 0
 1043 441 822 220 553 220 c 0
 284 220 63 441 63 710 c 0
423 710 m 0
 423 621 464 570 553 570 c 0
 642 570 683 621 683 710 c 0
 683 799 642 850 553 850 c 0
 464 850 423 799 423 710 c 0
EndSplineSet
EndChar

StartChar: brokenbar
Encoding: 166 166 184
Width: 515
VWidth: 1920
Flags: HMW
LayerCount: 2
Fore
SplineSet
248 460 m 10
 268 460 l 18
 375 460 438 337 438 220 c 10
 438 -150 l 18
 438 -257 375 -390 268 -390 c 10
 248 -390 l 18
 141 -390 78 -257 78 -150 c 10
 78 220 l 18
 78 337 141 460 248 460 c 10
248 1630 m 14
 268 1630 l 22
 375 1630 438 1507 438 1390 c 14
 438 1020 l 22
 438 913 375 780 268 780 c 14
 248 780 l 22
 141 780 78 913 78 1020 c 14
 78 1390 l 22
 78 1507 141 1630 248 1630 c 14
EndSplineSet
EndChar

StartChar: section
Encoding: 167 167 185
Width: 1186
VWidth: 1920
Flags: HMW
LayerCount: 2
Fore
SplineSet
533 850 m 257
 458 850 395 786 395 668 c 256
 395 531 458.229492188 474.002929688 640 371 c 256
 880 235 1025 187 1025 -43 c 256
 1025 -265 850 -400 573 -400 c 256
 375 -400 260.282226562 -323.026367188 200 -207 c 0
 129.357421875 -71.0341796875 178 2 285 2 c 6
 294 2 l 6
 381 2 410.6640625 -51.326171875 433 -108 c 0
 448.5390625 -147.427734375 478 -165 521 -165 c 256
 569 -165 605 -140 605 -100 c 256
 605 -62 555 -39 440 12 c 256
 144.400390625 143.091796875 25 306 25 563 c 256
 25 835 280 930 544 930 c 257
 533 850 l 257
653 185 m 257
 728 185 791 249 791 367 c 256
 791 504 727.770507812 560.997070312 546 664 c 256
 306 800 161 848 161 1078 c 256
 161 1300 336 1435 613 1435 c 256
 811 1435 925.717412061 1358.02590052 986 1242 c 0
 1056.6424392 1106.03449316 1008 1033 901 1033 c 2
 892 1033 l 2
 805 1033 775.3359375 1086.32617188 753 1143 c 0
 737.4609375 1182.42773438 708 1200 665 1200 c 256
 617 1200 581 1175 581 1135 c 256
 581 1097 631 1074 746 1023 c 256
 1041.59960938 891.908203125 1161 729 1161 472 c 256
 1161 200 906 105 642 105 c 257
 653 185 l 257
EndSplineSet
EndChar

StartChar: copyright
Encoding: 169 169 186
Width: 1484
Flags: HMW
LayerCount: 2
Fore
SplineSet
1133 507 m 256
 1103 367 989 229 751 229 c 256
 459 229 334 393 334 621 c 258
 334 720 l 258
 334 948 459 1111 751 1111 c 256
 989 1111 1069 992 1110 888 c 256
 1143 804 1094 756 1036 756 c 258
 1006 756 l 258
 954 756 924 790 909 828 c 256
 890 875 845 907 781 907 c 256
 693 907 634 852 634 726 c 258
 634 615 l 258
 634 483 687 433 787 433 c 256
 869 433 896 456 916 525 c 256
 928 564 966 627 1030 627 c 258
 1048 627 l 258
 1124 627 1147 571 1133 507 c 256
1439 668 m 0
 1439 284 1125 -28 741 -28 c 0
 357 -28 45 284 45 668 c 0
 45 1052 357 1366 741 1366 c 0
 1125 1366 1439 1052 1439 668 c 0
1353 668 m 0
 1353 1006 1079 1280 741 1280 c 0
 403 1280 131 1006 131 668 c 0
 131 330 403 58 741 58 c 0
 1079 58 1353 330 1353 668 c 0
EndSplineSet
EndChar

StartChar: registered
Encoding: 174 174 188
Width: 1484
Flags: HMW
LayerCount: 2
Fore
SplineSet
662 890 m 261
 662 704 l 261
 722 704 l 262
 798 704 815 742 815 796 c 262
 815 798 l 262
 815 846 798 890 722 890 c 262
 662 890 l 261
782 1100 m 262
 1026 1100 1115 987 1115 849 c 262
 1115 835 l 262
 1115 691 978 608 782 608 c 261
 782 644 l 261
 996 644 1121 627 1121 483 c 262
 1121 475 l 262
 1121 443 1129 416 1135 397 c 260
 1140 381 1149 354 1149 322 c 262
 1149 319 l 262
 1149 267 1116 242 1028 242 c 262
 1010 242 l 262
 919 242 856 260 832 343 c 260
 823 375 815 405 815 457 c 262
 815 483 l 262
 815 531 798 554 734 554 c 262
 662 554 l 261
 662 404 l 262
 662 298 612 242 518 242 c 262
 512 242 l 262
 418 242 368 298 368 404 c 262
 368 914 l 262
 368 1038 430 1100 554 1100 c 262
 782 1100 l 262
1439 668 m 0
 1439 284 1125 -28 741 -28 c 0
 357 -28 45 284 45 668 c 0
 45 1052 357 1366 741 1366 c 0
 1125 1366 1439 1052 1439 668 c 0
1353 668 m 0
 1353 1006 1079 1280 741 1280 c 0
 403 1280 131 1006 131 668 c 0
 131 330 403 58 741 58 c 0
 1079 58 1353 330 1353 668 c 0
EndSplineSet
EndChar

StartChar: dotlessi
Encoding: 305 305 279
Width: 590
VWidth: 1920
Flags: HMW
AnchorPoint: "top" 270 1050 basechar 0
LayerCount: 2
Fore
SplineSet
540 820 m 258
 540 230 l 258
 540 53 447 -30 300 -30 c 258
 290 -30 l 258
 143 -30 50 53 50 230 c 258
 50 820 l 258
 50 997 143 1080 290 1080 c 258
 300 1080 l 258
 447 1080 540 997 540 820 c 258
EndSplineSet
EndChar

StartChar: uni0237
Encoding: 567 567 291
Width: 590
VWidth: 1920
Flags: HMW
AnchorPoint: "top" 291 1050 basechar 0
LayerCount: 2
Fore
SplineSet
540 2 m 258
 540 -355.388671875 257.946289062 -382.411132812 1 -346.072265625 c 256
 -96.9423828125 -332.220703125 -170 -287.040039062 -170 -210 c 258
 -170 -200 l 258
 -170 -123.059570312 -127.002513022 -73.2267415465 -50.0000119725 -75.2153783005 c 256
 -9.888042186 -76.839181161 50 -55.2080078125 50 72 c 258
 50 820 l 258
 50 997 143 1080 290 1080 c 258
 300 1080 l 258
 447 1080 540 997 540 820 c 258
 540 2 l 258
EndSplineSet
EndChar

StartChar: kgreenlandic
Encoding: 312 312 298
Width: 1340
VWidth: 1920
Flags: HMW
LayerCount: 2
Fore
SplineSet
290 1080 m 262
 300 1080 l 262
 447 1080 540 997 540 820 c 262
 540 230 l 258
 540 63 447 -30 300 -30 c 258
 290 -30 l 258
 143 -30 50 63 50 230 c 258
 50 820 l 262
 50 997 143 1080 290 1080 c 262
270 463 m 257
 641 900 l 258
 744.803621528 1022.27003398 813 1080 941 1080 c 258
 945 1080 l 258
 1112 1080 1183.77701764 903.328334547 1083 800 c 258
 530 233 l 257
 270 463 l 257
480 653 m 257
 890 713 l 257
 1222 317 l 258
 1369.26975424 141.340895547 1252 -30 1075 -30 c 258
 1065 -30 l 258
 887 -30 791.315203904 63.6297635497 714 210 c 258
 480 653 l 257
EndSplineSet
EndChar

StartChar: grave
Encoding: 96 96 339
Width: 773
VWidth: 0
Flags: HMW
LayerCount: 2
Fore
SplineSet
636 1054 m 6
 626 1054 l 6
 539 1054 428.827586207 1121.06896552 314 1204 c 6
 278 1230 l 6
 129.252993233 1339.2066632 244 1430 401 1430 c 6
 411 1430 l 6
 568 1430 635.496826232 1389.53529554 663 1290 c 6
 684 1214 l 6
 714.070298363 1105.17415831 693 1054 636 1054 c 6
EndSplineSet
EndChar

StartChar: longs
Encoding: 383 383 352
Width: 690
VWidth: 1920
Flags: HMW
LayerCount: 2
Fore
SplineSet
50 1188 m 262
 50 1425.14550781 279.596679688 1481.34570312 598 1435.16601562 c 260
 676.223632812 1423.82128906 710 1397.046875 710 1310 c 262
 710 1300 l 262
 710 1213.15625 669.430664062 1189.40136719 594 1165.88964844 c 260
 557.2421875 1154.43164062 535 1133.49511719 535 1068 c 262
 535 180 l 262
 535 53 442 -30 315 -30 c 262
 270 -30 l 262
 143 -30 50 53 50 180 c 262
 50 1188 l 262
EndSplineSet
EndChar

StartChar: uni0259
Encoding: 601 601 359
Width: 1258
VWidth: 1920
Flags: HMW
LayerCount: 2
Fore
SplineSet
74 850.84765625 m 260
 147.330078125 975.126953125 325.868164062 1085 627 1085 c 260
 996 1085 1233 912 1233 602 c 262
 1233 447 l 262
 1233 147 996 -35 619 -35 c 260
 282 -35 85.5185546875 142.646484375 43 326 c 260
 36.041015625 356.008789062 33 393.3828125 33 407 c 260
 32.99609375 572 118 615 275 615 c 262
 959 615 l 261
 959 445 l 261
 499 445 l 261
 504 303 551 245 624 245 c 260
 691 245 743 297 743 417 c 262
 743 632 l 262
 743 782 696 805 619 805 c 260
 556.727539062 805 517.446289062 787.303710938 496.3515625 768 c 260
 445.557617188 721.518554688 381.955078125 662 255 662 c 262
 244 662 l 262
 111.9375 662 10.1904296875 742.703125 74 850.84765625 c 260
EndSplineSet
EndChar

StartChar: logicalnot
Encoding: 172 172 373
Width: 1150
VWidth: 2048
Flags: HMW
LayerCount: 2
Fore
SplineSet
50 655 m 2
 50 690 l 2
 50 797 133 850 240 850 c 2
 820 850 l 2
 1027 850 1080 797 1080 590 c 2
 1080 475 l 2
 1080 368 1027 285 920 285 c 2
 850 285 l 2
 743 285 690 368 690 475 c 2
 690 495 l 1
 240 495 l 2
 133 495 50 548 50 655 c 2
EndSplineSet
EndChar

StartChar: acute
Encoding: 180 180 374
Width: 773
Flags: HMW
LayerCount: 2
Fore
SplineSet
137 1054 m 2
 80 1054 58.9296875 1105.17382812 89 1214 c 2
 110 1290 l 2
 137.502929688 1389.53515625 205 1430 362 1430 c 2
 372 1430 l 2
 529 1430 643.747070312 1339.20703125 495 1230 c 2
 459 1204 l 2
 344.172851562 1121.06933594 234 1054 147 1054 c 2
 137 1054 l 2
EndSplineSet
EndChar

StartChar: degree
Encoding: 176 176 376
Width: 980
VWidth: 2048
Flags: HMW
LayerCount: 2
Fore
SplineSet
50 983 m 258
 50 1018 l 258
 50 1278 238 1435 485 1435 c 260
 732 1435 930 1278 930 1018 c 258
 930 983 l 258
 930 723 732 565 485 565 c 260
 238 565 50 723 50 983 c 258
405 983 m 258
 405 913 443 885 490 885 c 256
 537 885 575 913 575 983 c 258
 575 1018 l 258
 575 1088 537 1115 490 1115 c 256
 443 1115 405 1088 405 1018 c 258
 405 983 l 258
EndSplineSet
EndChar

StartChar: plusminus
Encoding: 177 177 377
Width: 1168
Flags: HMW
LayerCount: 2
Fore
SplineSet
75 260 m 14
 75 295 l 22
 75 402 158 455 265 455 c 14
 895 455 l 22
 1002 455 1085 402 1085 295 c 14
 1085 260 l 22
 1085 153 1002 100 895 100 c 14
 265 100 l 22
 158 100 75 153 75 260 c 14
75 1025 m 10
 75 1060 l 18
 75 1167 158 1220 265 1220 c 10
 895 1220 l 18
 1002 1220 1085 1167 1085 1060 c 10
 1085 1025 l 18
 1085 918 1002 865 895 865 c 10
 265 865 l 18
 158 865 75 918 75 1025 c 10
565 1520 m 10
 595 1520 l 18
 702 1520 755 1437 755 1330 c 10
 755 730 l 18
 755 623 702 540 595 540 c 10
 565 540 l 18
 458 540 405 623 405 730 c 10
 405 1330 l 18
 405 1437 458 1520 565 1520 c 10
EndSplineSet
EndChar

StartChar: ae
Encoding: 230 230 379
Width: 1958
VWidth: 1920
Flags: HMW
LayerCount: 2
Fore
SplineSet
516.040039062 320 m 256
 516.040039062 256.396484375 548.221679688 235 596.040039062 235 c 256
 680.040039062 235 734.040039062 292 734.040039062 438 c 257
 924.040039062 328 l 257
 924.040039062 125 763.040039062 -35 462.040039062 -35 c 256
 192.776367188 -35 26.0400390625 55.109375 26.0400390625 270 c 256
 26.0400390625 461.0078125 144.599609375 575.212890625 485.040039062 615 c 256
 669.09765625 636.510742188 734.040039062 675 734.040039062 718 c 257
 774.040039062 538 l 257
 774.040039062 475 706.123046875 453.532226562 642.040039062 440 c 256
 564.118164062 423.545898438 516.040039062 400.081054688 516.040039062 320 c 256
734.040039062 258 m 265
 734.040039062 738 l 258
 734.040039062 778 714.040039062 805 659.040039062 805 c 256
 612.293945312 805 591.375 786.749023438 574.17578125 762 c 256
 521.74568413 686.555078849 480.903320312 648 344.040039062 648 c 258
 334.040039062 648 l 258
 186.973632812 648 125.500385925 753.16126495 163.893554688 862 c 256
 205.846679688 980.930664062 378.421875 1085 624.040039062 1085 c 256
 924.040039062 1085 1064.04003906 961 1064.04003906 693 c 258
 1064.04003906 278 l 273
 734.040039062 258 l 265
1884 199.15234375 m 260
 1810.66992188 74.873046875 1662.13183594 -35 1381 -35 c 260
 1012 -35 855 138 855 448 c 262
 855 603 l 262
 855 903 1042 1085 1369 1085 c 260
 1686 1085 1872.48144531 907.353515625 1915 724 c 260
 1921.95898438 693.991210938 1925 656.6171875 1925 643 c 260
 1925.00390625 478 1840 435 1683 435 c 262
 999 435 l 261
 999 605 l 261
 1459 605 l 261
 1454 747 1407 805 1334 805 c 260
 1267 805 1215 753 1215 633 c 262
 1215 418 l 262
 1215 268 1262 245 1339 245 c 260
 1401.27246094 245 1440.55371094 262.696289062 1461.6484375 282 c 260
 1512.44238281 328.481445312 1576.04492188 388 1703 388 c 262
 1714 388 l 262
 1846.0625 388 1947.80957031 307.296875 1884 199.15234375 c 260
EndSplineSet
EndChar

StartChar: paragraph
Encoding: 182 182 380
Width: 1510
VWidth: 1920
Flags: HMW
LayerCount: 2
Fore
SplineSet
1325 1075 m 1
 1325 -150 l 2
 1325 -307 1272 -390 1165 -390 c 2
 1135 -390 l 2
 1028 -390 975 -306.959960938 975 -150 c 2
 975 1075 l 1
 895 1075 l 1
 895 -150 l 2
 895 -306.959960938 842 -390 735 -390 c 2
 715 -390 l 2
 608 -390 555 -307 555 -150 c 2
 555 400 l 1
 545 400 l 2
 288 400 50 548 50 868 c 2
 50 932 l 2
 50 1252 288.120117188 1400 545 1400 c 2
 1315 1400 l 2
 1442 1400 1505 1347 1505 1240 c 2
 1505 1235 l 2
 1505 1128 1422 1075 1335 1075 c 2
 1325 1075 l 1
EndSplineSet
EndChar

StartChar: guilsinglleft
Encoding: 8249 8249 381
Width: 630
Flags: HMW
LayerCount: 2
Fore
SplineSet
360 196 m 2
 180 349 l 2
 102.572675521 413.430595013 50 478 50 555 c 2
 50 565 l 2
 50 642 97.1912970812 698.006236708 180 761 c 2
 360 894 l 2
 463.905276342 970.774454186 500 887 500 780 c 2
 500 760 l 2
 500 653 479.001738393 605.080834273 380 560 c 2
 369.01953125 555 l 257
 380 548 l 2
 465.544350728 493.465856811 500 437 500 330 c 2
 500 310 l 2
 500 203 453.539181558 116.491695675 360 196 c 2
EndSplineSet
EndChar

StartChar: guilsinglright
Encoding: 8250 8250 382
Width: 630
Flags: HW
LayerCount: 2
Fore
SplineSet
270 904 m 2
 450 751 l 2
 527.427734375 686.569335938 580 622 580 545 c 2
 580 535 l 2
 580 458 532.80859375 401.994140625 450 339 c 2
 270 206 l 2
 166.094726562 129.225585938 130 213 130 320 c 2
 130 340 l 2
 130 447 150.998046875 494.918945312 250 540 c 2
 260.98046875 545 l 257
 250 552 l 2
 164.456054688 606.534179688 130 663 130 770 c 2
 130 790 l 2
 130 897 176.4609375 983.508789062 270 904 c 2
EndSplineSet
EndChar

StartChar: mu
Encoding: 181 181 385
Width: 1255
VWidth: 1920
Flags: HW
LayerCount: 2
Fore
SplineSet
535 820 m 262
 535 -130 l 262
 535 -307 442 -390 295 -390 c 262
 285 -390 l 262
 138 -390 45 -307 45 -130 c 262
 45 820 l 262
 45 997 138 1080 285 1080 c 262
 295 1080 l 262
 442 1080 535 997 535 820 c 262
975 -30 m 258
 955 -30 l 258
 808 -30 725 53 725 230 c 258
 725 363 l 257
 715 390 l 257
 715 820 l 258
 715 997 803 1080 950 1080 c 258
 960 1080 l 258
 1107 1080 1205 997 1205 820 c 258
 1205 230 l 258
 1205 53 1122 -30 975 -30 c 258
765 347 m 257
 765 107 697 -35 550 -35 c 256
 393 -35 345 77.0048828125 345 387 c 258
 345 820 l 258
 345 997 138 1080 285 1080 c 258
 295 1080 l 258
 442 1080 535 997 535 820 c 258
 535 437 l 258
 535 337 553 295 610 295 c 256
 667 295 715 367 715 577 c 257
 765 347 l 257
EndSplineSet
EndChar

StartChar: Eth
Encoding: 208 208 387
Width: 1510
VWidth: 1920
Flags: HW
LayerCount: 2
Fore
SplineSet
-30 695 m 10
 -30 730 l 18
 -30 837 53 890 160 890 c 10
 670 890 l 18
 777 890 860 837 860 730 c 10
 860 695 l 18
 860 588 777 535 670 535 c 10
 160 535 l 18
 53 535 -30 588 -30 695 c 10
EndSplineSet
Refer: 15 68 N 1 0 0 1 80 0 2
EndChar

StartChar: Dcroat
Encoding: 272 272 388
Width: 1510
VWidth: 1920
Flags: HW
LayerCount: 2
Fore
SplineSet
-30 695 m 14
 -30 730 l 22
 -30 837 53 890 160 890 c 14
 670 890 l 22
 777 890 860 837 860 730 c 14
 860 695 l 22
 860 588 777 535 670 535 c 14
 160 535 l 22
 53 535 -30 588 -30 695 c 14
EndSplineSet
Refer: 15 68 N 1 0 0 1 80 0 2
EndChar

StartChar: thorn
Encoding: 254 254 389
Width: 1315
VWidth: 1920
Flags: HW
LayerCount: 2
Fore
SplineSet
290 1480 m 258
 300 1480 l 258
 447 1480 540 1397 540 1220 c 258
 540 -130 l 258
 540 -307 447 -390 300 -390 c 258
 290 -390 l 258
 143 -390 50 -307 50 -130 c 258
 50 1220 l 258
 50 1397 143 1480 290 1480 c 258
480 633 m 257
 480 923 617 1085 874 1085 c 256
 1141 1085 1290 943 1290 603 c 258
 1290 447 l 258
 1290 107 1141 -35 874 -35 c 256
 617 -35 480 127 480 417 c 257
 540 487 l 257
 540 377 587 305 664 305 c 256
 751 305 800 357 800 467 c 258
 800 583 l 258
 800 693 751 745 664 745 c 256
 587 745 540 673 540 563 c 257
 480 633 l 257
EndSplineSet
EndChar

StartChar: Thorn
Encoding: 222 222 390
Width: 1330
VWidth: 1920
Flags: HW
LayerCount: 2
Fore
SplineSet
720 1160 m 2
 1106.87988281 1160 1275 1012 1275 742 c 2
 1275 678 l 2
 1275 408 1107 260 720 260 c 2
 560 260 l 1
 560 230 l 2
 560 63 467 -30 320 -30 c 2
 310 -30 l 2
 163 -30 70 63 70 230 c 2
 70 1170 l 2
 70 1347 163 1430 310 1430 c 2
 320 1430 l 2
 467 1430 560 1347 560 1170 c 2
 560 1160 l 1
 720 1160 l 2
560 510 m 1
 670 510 l 2
 787 510 825 558 825 648 c 2
 825 672 l 2
 825 762 787 810 670 810 c 2
 560 810 l 1
 560 510 l 1
EndSplineSet
EndChar

StartChar: divide
Encoding: 247 247 391
Width: 1380
VWidth: 2048
Flags: HW
LayerCount: 2
Fore
SplineSet
5 685 m 10
 5 700 l 18
 5 797 68 820 175 820 c 10
 1205 820 l 18
 1312 820 1375 797 1375 700 c 10
 1375 685 l 18
 1375 588 1312 565 1205 565 c 10
 175 565 l 18
 68 565 5 588 5 685 c 10
EndSplineSet
Refer: 1 46 N 1 0 0 1 320 920 2
Refer: 1 46 N 1 0 0 1 320 5 2
EndChar

StartChar: multiply
Encoding: 215 215 392
Width: 1060
VWidth: 1920
Flags: HW
LayerCount: 2
Fore
SplineSet
896 367 m 10
 875 346 l 18
 820 291 696 311 641 366 c 10
 183 824 l 18
 128 879 105.562162162 1003.17297297 163 1058 c 10
 185 1079 l 18
 242.437837838 1133.82702703 364.005589889 1114.11474799 419 1059 c 10
 876 601 l 18
 930.885240067 545.99466094 951 422 896 367 c 10
185 346 m 10
 163 367 l 18
 105.562162162 421.827027027 128 546 183 601 c 10
 641 1059 l 18
 696 1114 820 1134 875 1079 c 10
 896 1058 l 18
 951 1003 930.994410111 879.114747989 876 824 c 10
 419 366 l 18
 364.114759933 310.99466094 242.437837838 291.172972973 185 346 c 10
EndSplineSet
EndChar

StartChar: Oslash
Encoding: 216 216 393
Width: 1590
VWidth: 1920
Flags: HW
LayerCount: 2
Fore
SplineSet
1240.66992188 1473.26269531 m 2
 1249.33007812 1468.26269531 l 2
 1264.05273438 1459.76269531 1273.140625 1439.50390625 1254.640625 1407.4609375 c 2
 414.640625 -47.4609375 l 2
 396.140625 -79.50390625 374.052734375 -81.7626953125 359.330078125 -73.2626953125 c 2
 350.669921875 -68.2626953125 l 2
 335.947265625 -59.7626953125 326.859375 -39.50390625 345.359375 -7.4609375 c 2
 1185.359375 1447.4609375 l 2
 1203.859375 1479.50390625 1225.94726562 1481.76269531 1240.66992188 1473.26269531 c 2
EndSplineSet
Refer: 26 79 N 1 0 0 1 0 0 2
EndChar

StartChar: oslash
Encoding: 248 248 394
Width: 1280
VWidth: 1920
Flags: HW
LayerCount: 2
Fore
SplineSet
1010.66992188 1190.6796875 m 6
 1019.33007812 1185.6796875 l 6
 1034.05273438 1177.1796875 1043.125 1156.89355469 1024.640625 1124.87792969 c 6
 314.640625 -104.877929688 l 6
 296.140625 -136.920898438 274.052734375 -139.1796875 259.330078125 -130.6796875 c 6
 250.669921875 -125.6796875 l 6
 235.947265625 -117.1796875 226.859375 -96.9208984375 245.359375 -64.8779296875 c 6
 955.359375 1164.87792969 l 6
 973.84375 1196.89355469 995.947265625 1199.1796875 1010.66992188 1190.6796875 c 6
EndSplineSet
Refer: 52 111 N 1 0 0 1 0 0 2
EndChar

StartChar: germandbls
Encoding: 223 223 396
Width: 1560
VWidth: 1920
Flags: HW
LayerCount: 2
Fore
SplineSet
90 1088 m 2
 90 1432 347 1487 727 1487 c 0
 1140 1487 1312 1342 1312 1175 c 0
 1312 978 1172 935 1172 815 c 0
 1172 636 1532 663 1532 322 c 0
 1532 50 1253 -35 863 -35 c 0
 754 -35 673 16 673 125 c 2
 673 135 l 2
 673 244 754.000026675 294.914761015 863 295 c 0
 968.002113304 295.082112622 1032 309 1032 377 c 0
 1032 500 682 537 682 768 c 0
 682 940 822 978 822 1068 c 0
 822 1129 779 1160 707 1160 c 0
 635 1160 575 1131 575 1038 c 2
 575 210 l 2
 575 53 492 -30 335 -30 c 2
 330 -30 l 2
 173 -30 90 53 90 210 c 2
 90 1088 l 2
EndSplineSet
EndChar

StartChar: eth
Encoding: 240 240 397
Width: 1314
VWidth: 1920
Flags: HW
LayerCount: 2
Fore
SplineSet
290 1140 m 10
 288 1144 l 18
 269 1182 309.426757812 1211.35253906 373 1241 c 10
 899 1505 l 18
 954.359375 1530.81640625 998.995117188 1537.67480469 1018 1506 c 10
 1021 1501 l 18
 1040.7109375 1468.1484375 1001.21777344 1429.94628906 946 1404 c 10
 421 1139 l 18
 357.590820312 1109.20507812 309 1102 290 1140 c 10
654 785 m 260
 564 785 515 710 515 537 c 262
 515 497 l 262
 515 327 556 265 665 265 c 260
 782 265 804 342 804 472 c 262
 804 698 l 262
 804 953.786132812 587.684909044 1131.36202776 387 1257.11230469 c 4
 280.901756734 1323.5940523 253.980769231 1412.47115385 303 1486 c 6
 309 1495 l 6
 357.369157762 1567.55373664 476.507619181 1601.85878412 587 1540.09863281 c 4
 931.151872438 1347.73358867 1289 1018.63769531 1289 623 c 262
 1289 537 l 262
 1289 207 1112 -35 655 -35 c 260
 233 -35 25 179 25 457 c 262
 25 567 l 262
 25 841 177 1085 474 1085 c 260
 681 1085 844 856 844 662 c 261
 804 472 l 261
 804 602 l 262
 804 745 734 785 654 785 c 260
EndSplineSet
EndChar

StartChar: dcroat
Encoding: 273 273 398
Width: 1315
VWidth: 1920
Flags: HW
LayerCount: 2
Fore
SplineSet
560 1220 m 14
 560 1255 l 22
 560 1352 633 1380 740 1380 c 14
 1310 1380 l 22
 1417 1380 1490 1352 1490 1255 c 14
 1490 1220 l 22
 1490 1123 1417 1095 1310 1095 c 14
 740 1095 l 22
 633 1095 560 1123 560 1220 c 14
EndSplineSet
Refer: 41 100 N 1 0 0 1 0 0 2
EndChar

StartChar: Hbar
Encoding: 294 294 399
Width: 1420
VWidth: 1920
Flags: HW
LayerCount: 2
Fore
SplineSet
-60 1110 m 10
 -60 1125 l 18
 -60 1232 23 1285 130 1285 c 10
 1290 1285 l 18
 1397 1285 1480 1232 1480 1125 c 10
 1480 1110 l 18
 1480 1003 1397 950 1290 950 c 10
 130 950 l 18
 23 950 -60 1003 -60 1110 c 10
EndSplineSet
Refer: 19 72 N 1 0 0 1 0 0 2
EndChar

StartChar: hbar
Encoding: 295 295 400
Width: 1255
VWidth: 1920
Flags: HW
LayerCount: 2
Fore
SplineSet
-150 1220 m 14
 -150 1255 l 22
 -150 1352 -77 1380 30 1380 c 14
 600 1380 l 22
 707 1380 780 1352 780 1255 c 14
 780 1220 l 22
 780 1123 707 1095 600 1095 c 14
 30 1095 l 22
 -77 1095 -150 1123 -150 1220 c 14
EndSplineSet
Refer: 45 104 N 1 0 0 1 0 0 2
EndChar

StartChar: Lslash
Encoding: 321 321 405
Width: 1135
VWidth: 1920
Flags: HW
LayerCount: 2
Fore
SplineSet
754.807617188 1154.94238281 m 6
 762.467773438 1147.94238281 l 6
 775.221679688 1136.28808594 774.760742188 1110.04199219 738.778320312 1089.140625 c 6
 -30.2158203125 642.140625 l 6
 -51.2158203125 630.016601562 -84.6748046875 623.76171875 -97.5263671875 635.338867188 c 6
 -104.186523438 641.338867188 l 6
 -117.038085938 652.916015625 -122.916992188 678.619140625 -99.4970703125 692.140625 c 6
 689.497070312 1149.140625 l 6
 721.125 1167.40136719 742.053710938 1166.59667969 754.807617188 1154.94238281 c 6
EndSplineSet
Refer: 23 76 N 1 0 0 1 0 0 2
EndChar

StartChar: lslash
Encoding: 322 322 406
Width: 590
VWidth: 1920
Flags: HW
LayerCount: 2
Fore
SplineSet
734.807617188 1149.94238281 m 2
 742.467773438 1142.94238281 l 2
 755.221679688 1131.28808594 754.760742188 1105.04199219 718.778320312 1084.140625 c 2
 -50.2158203125 637.140625 l 2
 -71.2158203125 625.016601562 -104.674804688 618.76171875 -117.526367188 630.338867188 c 2
 -124.186523438 636.338867188 l 2
 -137.038085938 647.916015625 -142.916992188 673.619140625 -119.497070312 687.140625 c 2
 669.497070312 1144.140625 l 2
 701.125 1162.40136719 722.053710938 1161.59667969 734.807617188 1149.94238281 c 2
EndSplineSet
Refer: 49 108 N 1 0 0 1 0 0 2
EndChar

StartChar: eng
Encoding: 331 331 408
Width: 1255
VWidth: 1920
Flags: HW
LayerCount: 2
Fore
SplineSet
285 1080 m 262
 295 1080 l 262
 442 1080 530 997 530 820 c 262
 530 687 l 261
 540 660 l 261
 540 230 l 262
 540 53 447 -30 300 -30 c 262
 290 -30 l 262
 143 -30 50 53 50 230 c 262
 50 820 l 262
 50 997 138 1080 285 1080 c 262
1210 2 m 2
 1210 -355.388671875 927.946289062 -382.411132812 671 -346.072265625 c 0
 573.057617188 -332.220703125 500 -287.040039062 500 -210 c 2
 500 -200 l 2
 500 -123.059570312 542.997070312 -73.2265625 620 -75.2158203125 c 0
 660.112304688 -76.8388671875 720 -55.2080078125 720 72 c 2
 720 613 l 2
 720 713 702 755 645 755 c 0
 588 755 540 683 540 473 c 1
 490 703 l 1
 490 943 648 1085 865 1085 c 0
 1092 1085 1210 972.995117188 1210 663 c 2
 1210 2 l 2
EndSplineSet
EndChar

StartChar: Eng
Encoding: 330 330 409
Width: 1380
VWidth: 1920
Flags: HW
LayerCount: 2
Fore
SplineSet
1140 1430 m 2
 1150 1430 l 2
 1297 1430 1330 1347 1330 1190 c 2
 1330 2 l 2
 1330 -355.388671875 1047.94628906 -382.411132812 791 -346.072265625 c 0
 693.057617188 -332.220703125 620 -287.040039062 620 -210 c 2
 620 -200 l 2
 620 -123.059570312 662.997070312 -73.2265625 740 -75.2158203125 c 0
 780.112304688 -76.8388671875 840 -55.2080078125 840 72 c 2
 840 124.331753843 l 1
 420 910.434570312 l 1
 420 230 l 2
 420 63 387 -30 240 -30 c 2
 230 -30 l 2
 83 -30 50 63 50 230 c 2
 50 1150 l 2
 50 1327 153 1420 310 1420 c 2
 420 1420 l 2
 593 1420 693.878688711 1334.56183202 776 1160 c 2
 960 768.87890625 l 1
 960 1190 l 2
 960 1347 993 1430 1140 1430 c 2
EndSplineSet
EndChar

StartChar: oe
Encoding: 339 339 410
Width: 1998
VWidth: 1920
Flags: HW
LayerCount: 2
Fore
SplineSet
25 448 m 258
 25 603 l 258
 25 893 233 1085 590 1085 c 256
 967 1085 1105 893 1105 603 c 258
 1105 448 l 258
 1105 158 967 -35 590 -35 c 256
 233 -35 25 158 25 448 c 258
520 418 m 258
 520 298 553 245 640 245 c 256
 727 245 760 298 760 418 c 258
 760 633 l 258
 760 753 727 805 640 805 c 256
 553 805 520 753 520 633 c 258
 520 418 l 258
1924 199.15234375 m 256
 1850.66992188 74.873046875 1702.13183594 -35 1421 -35 c 256
 1052 -35 895 138 895 448 c 258
 895 603 l 258
 895 903 1082 1085 1409 1085 c 256
 1726 1085 1912.48144531 907.353515625 1955 724 c 256
 1961.95898438 693.991210938 1965 656.6171875 1965 643 c 256
 1965.00390625 478 1880 435 1723 435 c 258
 1039 435 l 257
 1039 605 l 257
 1499 605 l 257
 1494 747 1447 805 1374 805 c 256
 1307 805 1255 753 1255 633 c 258
 1255 418 l 258
 1255 268 1302 245 1379 245 c 256
 1441.27246094 245 1480.55371094 262.696289062 1501.6484375 282 c 256
 1552.44238281 328.481445312 1616.04492188 388 1743 388 c 258
 1754 388 l 258
 1886.0625 388 1987.80957031 307.296875 1924 199.15234375 c 256
EndSplineSet
EndChar

StartChar: OE
Encoding: 338 338 411
Width: 2110
VWidth: 1920
Flags: HW
LayerCount: 2
Fore
SplineSet
725 1400 m 258
 1350 1400 l 258
 1357 1400 1360 1397 1360 1390 c 258
 1360 10 l 258
 1360 3 1357 0 1350 0 c 258
 725 0 l 258
 311.000976562 0 50 231.205078125 50 617 c 258
 50 782 l 258
 50 1168.10839844 270.80078125 1400 725 1400 c 258
765 1050 m 258
 610.610351562 1050 550 960.212890625 550 792 c 258
 550 607 l 258
 550 439.125 610.99609375 350 765 350 c 258
 870 350 l 257
 870 1050 l 257
 765 1050 l 258
EndSplineSet
Refer: 16 69 N 1 0 0 1 800 0 2
EndChar

StartChar: Tbar
Encoding: 358 358 413
Width: 1350
VWidth: 1920
Flags: HW
LayerCount: 2
Fore
SplineSet
200 645 m 14
 200 650 l 22
 200 737 273 765 380 765 c 14
 970 765 l 22
 1077 765 1150 737 1150 650 c 14
 1150 645 l 22
 1150 558 1077 530 970 530 c 14
 380 530 l 22
 273 530 200 558 200 645 c 14
EndSplineSet
Refer: 31 84 N 1 0 0 1 0 0 2
EndChar

StartChar: tbar
Encoding: 359 359 414
Width: 815
VWidth: 1920
Flags: HW
LayerCount: 2
Fore
SplineSet
-15 575 m 10
 -15 580 l 18
 -15 667 58 695 165 695 c 10
 565 695 l 18
 672 695 745 667 745 580 c 10
 745 575 l 18
 745 488 672 460 565 460 c 10
 165 460 l 18
 58 460 -15 488 -15 575 c 10
EndSplineSet
Refer: 57 116 N 1 0 0 1 0 0 2
EndChar

StartChar: uni0394
Encoding: 916 916 430
Width: 1445
VWidth: 1920
Flags: HW
LayerCount: 2
Fore
SplineSet
170.7421875 0 m 2
 64.537109375 0 4.514244555 75.8849669531 45.7421875 195 c 2
 390.7421875 1190 l 2
 431.90728514 1308.72252798 530.342773438 1400 667.7421875 1400 c 2
 777.7421875 1400 l 2
 916.819335938 1400 1015.36812317 1306.77207268 1056.7421875 1190 c 2
 1405.7421875 205 l 2
 1445.56485657 92.772478086 1385.38085938 0 1242.7421875 0 c 6
 170.7421875 0 l 2
438.473436191 250 m 1
 895.21366023 250 l 1
 660.05078125 978.3828125 l 1
 438.473436191 250 l 1
EndSplineSet
EndChar

StartChar: uni03A9
Encoding: 937 937 431
Width: 1690
VWidth: 1920
Flags: HW
LayerCount: 2
Fore
SplineSet
1033 451 m 0
 1100.00829177 532.387276858 1140 608 1140 758 c 2
 1140 823 l 2
 1140 991 1039 1095 845 1095 c 0
 651 1095 550 991 550 823 c 2
 550 758 l 2
 550 607 592.342510739 531.458358361 660 450 c 0
 720.003908748 377.756410189 775 322 775 211 c 2
 775 210 l 2
 775 103 722 -1.67776611483e-14 585 0 c 2
 215 0 l 2
 108 0 25 53 25 160 c 2
 25 195 l 2
 25 302 108 355 215 355 c 2
 410 355 l 1
 208 462 50 643 50 848 c 2
 50 883 l 2
 50 1269 363 1435 845 1435 c 0
 1327 1435 1640 1269 1640 883 c 2
 1640 848 l 2
 1640 643 1479 462 1278 355 c 1
 1475 355 l 2
 1582 355 1665 302 1665 195 c 2
 1665 160 l 2
 1665 53 1582 -1.31037207509e-14 1475 0 c 2
 1105 0 l 2
 968 0 915 103 915 210 c 2
 915 211 l 2
 915 322 971.301532836 376.061957314 1033 451 c 0
EndSplineSet
EndChar

StartChar: pi
Encoding: 960 960 432
Width: 1515
VWidth: 1920
Flags: HW
LayerCount: 2
Fore
SplineSet
668 990 m 2
 668 210 l 2
 668 53 585 -30 428 -30 c 2
 418 -30 l 2
 261 -30 178 53 178 210 c 2
 178 990 l 2
 178 997 181 1000 188 1000 c 2
 658 1000 l 2
 665 1000 668 997 668 990 c 2
1540 190 m 262
 1540 180 l 262
 1540 82.9619140625 1486.65917969 1.9736328125 1330 -8.30859375 c 260
 988.971679688 -30.69140625 815 44.3720703125 815 352 c 262
 815 750 l 262
 815 927 908 1020 1055 1020 c 262
 1060 1020 l 262
 1207 1020 1300 927 1300 750 c 262
 1300 422 l 262
 1300 314.506835938 1379.95898438 325.1953125 1411 325.901367188 c 260
 1486.98339844 327.62890625 1540 286.951171875 1540 190 c 262
-20 855 m 10
 -20 890 l 18
 -20 997 63 1050 170 1050 c 10
 1320 1050 l 18
 1427 1050 1510 997 1510 890 c 10
 1510 855 l 18
 1510 748 1427 695 1320 695 c 10
 170 695 l 18
 63 695 -20 748 -20 855 c 10
EndSplineSet
EndChar

StartChar: minute
Encoding: 8242 8242 433
Width: 570
VWidth: 1920
Flags: HW
LayerCount: 2
Fore
SplineSet
137 910 m 2
 126 910 l 2
 69 910 49.6249383933 964.061113849 53 1040 c 2
 65 1310 l 2
 69.910072965 1416.86629394 185 1450 292 1450 c 2
 312 1450 l 2
 469 1450 535.770805563 1361.87671336 460 1260 c 2
 296 1040 l 2
 244.135784105 970.426051849 194 910 137 910 c 2
EndSplineSet
EndChar

StartChar: Euro
Encoding: 8364 8364 435
Width: 1555
VWidth: 1920
Flags: HW
LayerCount: 2
Fore
SplineSet
-40 555 m 10
 -40 560 l 18
 -40 637 13 670 120 670 c 10
 840 670 l 18
 947 670 1000 637 1000 560 c 10
 1000 555 l 18
 1000 478 947 445 840 445 c 10
 120 445 l 18
 13 445 -40 478 -40 555 c 10
-40 825 m 10
 -40 830 l 18
 -40 907 13 940 120 940 c 10
 840 940 l 18
 947 940 1000 907 1000 830 c 10
 1000 825 l 18
 1000 748 947 715 840 715 c 10
 120 715 l 18
 13 715 -40 748 -40 825 c 10
1456 328 m 256
 1410.07910156 207.243164062 1252 -35 815 -35 c 256
 328 -35 120 238 120 618 c 258
 120 783 l 258
 120 1163 328 1435 815 1435 c 256
 1292 1435 1403.99804688 1193.56835938 1425 1133 c 256
 1450.77441406 1058.66796875 1387 993 1260 993 c 258
 1251 993 l 258
 1124 993 1087.63378906 1015.03417969 1054 1053 c 256
 1035.22851562 1074.18945312 982 1095 875 1095 c 256
 698 1095 620 983 620 793 c 258
 620 608 l 258
 620 418 678 305 875 305 c 256
 982 305 1060.64550781 343.221679688 1090 393 c 256
 1131.18457031 462.838867188 1153 488 1280 488 c 258
 1290 488 l 258
 1417 488 1494.07910156 428.133789062 1456 328 c 256
EndSplineSet
EndChar

StartChar: uni2116
Encoding: 8470 8470 436
Width: 2180
VWidth: 1920
Flags: HW
LayerCount: 2
Fore
SplineSet
1420 125 m 10
 1420 130 l 18
 1420 227 1493 255 1600 255 c 10
 1950 255 l 18
 2057 255 2130 227 2130 130 c 10
 2130 125 l 18
 2130 28 2057 0 1950 0 c 10
 1600 0 l 18
 1493 0 1420 28 1420 125 c 10
EndSplineSet
Refer: 132 8304 N 1 0 0 1 1370 -295 2
Refer: 25 78 N 1 0 0 1 0 0 2
EndChar

StartChar: trademark
Encoding: 8482 8482 437
Width: 1924
VWidth: 1920
Flags: HW
LayerCount: 2
Fore
SplineSet
167 1400 m 258
 677 1400 l 258
 783.200195312 1400 827 1362.20019531 827 1298 c 258
 827 1292 l 258
 827 1227.79980469 783.200195312 1190 677 1190 c 258
 569 1190 l 257
 569 698 l 258
 569 591.799804688 513.200195312 542 425 542 c 258
 419 542 l 258
 330.799804688 542 275 591.799804688 275 698 c 258
 275 1190 l 257
 167 1190 l 258
 60.7998046875 1190 17 1227.79980469 17 1292 c 258
 17 1298 l 258
 17 1362.20019531 60.7998046875 1400 167 1400 c 258
1067 1057.59960938 m 257
 1067 673.599609375 l 258
 1067 585.399414062 1023.20019531 541.599609375 965 541.599609375 c 258
 959 541.599609375 l 258
 900.799804688 541.599609375 857 585.399414062 857 673.599609375 c 258
 857 1249.59960938 l 258
 857 1349.79980469 918.799804688 1405.59960938 1043 1405.59960938 c 258
 1055 1405.59960938 l 258
 1185.20019531 1405.59960938 1245.96289062 1356.55371094 1279.40039062 1255.59960938 c 258
 1373 973 l 257
 1474.40039062 1243.59960938 l 258
 1517.43847656 1358.45410156 1584.79980469 1408.59960938 1685 1408.59960938 c 258
 1721 1408.59960938 l 258
 1833.20019531 1408.59960938 1889 1349.79980469 1889 1255.59960938 c 258
 1889 697.599609375 l 258
 1889 597.399414062 1839.20019531 541.599609375 1751 541.599609375 c 258
 1745 541.599609375 l 258
 1656.79980469 541.599609375 1607 597.399414062 1607 697.599609375 c 258
 1607 1057.59960938 l 257
 1471.40039062 685.599609375 l 258
 1442.83984375 607.248046875 1414.40039062 565 1344.20019531 565 c 258
 1343 565 l 258
 1274.59960938 565 1238.16308594 607.934570312 1208.59960938 685.599609375 c 258
 1067 1057.59960938 l 257
EndSplineSet
EndChar

StartChar: partialdiff
Encoding: 8706 8706 438
Width: 1314
VWidth: 1920
Flags: HW
LayerCount: 2
Fore
SplineSet
654 585 m 260
 574 585 515 550 515 467 c 262
 515 427 l 262
 515 347 576 315 665 315 c 260
 742 315 804 352 804 452 c 262
 804 698 l 262
 804 953.786132812 569.730305156 1078.25143585 367 1170.11230469 c 4
 281.353371018 1208.92038395 235.213867188 1317.42773438 279 1405 c 6
 284 1415 l 6
 327.8828125 1502.76660156 434.040039062 1530.08496094 517 1495.09863281 c 4
 935.146484375 1318.75585938 1289 1028.63769531 1289 623 c 262
 1289 537 l 262
 1289 207 1112 -35 655 -35 c 260
 263 -35 25 89 25 357 c 262
 25 467 l 262
 25 731 177 885 534 885 c 260
 771 885 864 756 864 562 c 261
 804 462 l 261
 804 482 l 262
 804 555 724 585 654 585 c 260
EndSplineSet
EndChar

StartChar: summation
Encoding: 8721 8721 439
Width: 1550
VWidth: 1920
Flags: HW
LayerCount: 2
Fore
SplineSet
1129.44628906 295 m 2
 911.928710938 -10 l 1
 1288 -10 l 2
 1445 -10 1518 -63 1518 -170 c 2
 1518 -200 l 2
 1518 -307 1445 -360 1288 -360 c 2
 278 -360 l 6
 121 -360 149.666540586 -248.435940485 205 -170 c 6
 691.767759262 520 l 1
 205 1210 l 6
 149.666540586 1288.43594048 121 1400 278 1400 c 6
 1288 1400 l 2
 1445 1400 1518 1347 1518 1240 c 2
 1518 1210 l 2
 1518 1103 1445 1050 1288 1050 c 2
 911.928710938 1050 l 1
 1129.44628906 745 l 2
 1238.8102679 591.651411649 1238.86029813 448.418740005 1129.44628906 295 c 2
EndSplineSet
EndChar

StartChar: minus
Encoding: 8722 8722 440
Width: 1170
Flags: HW
LayerCount: 2
Fore
SplineSet
100 485 m 10
 100 520 l 18
 100 627 183 680 290 680 c 10
 880 680 l 18
 987 680 1070 627 1070 520 c 10
 1070 485 l 18
 1070 378 987 325 880 325 c 10
 290 325 l 18
 183 325 100 378 100 485 c 10
EndSplineSet
EndChar

StartChar: integral
Encoding: 8747 8747 441
Width: 775
VWidth: 1920
Flags: HW
LayerCount: 2
Fore
SplineSet
615 2 m 6
 615 -355.388671875 336.946289062 -382.411132812 80 -346.072265625 c 0
 -17.9423828125 -332.220703125 -91 -287.040039062 -91 -210 c 2
 -91 -200 l 2
 -91 -123.059570312 -48.0029296875 -73.2265625 29 -75.2158203125 c 0
 69.1123046875 -76.8388671875 128.886014421 -55.2079056749 129 72 c 2
 130 1188 l 2
 130.212495804 1425.1453174 359.596679688 1481.34570312 678 1435.16601562 c 0
 756.223632812 1423.82128906 790 1397.046875 790 1310 c 2
 790 1300 l 2
 790 1213.15625 749.430664062 1189.40136719 674 1165.88964844 c 0
 637.2421875 1154.43164062 615 1133.49511719 615 1068 c 2
 615 2 l 6
EndSplineSet
EndChar

StartChar: radical
Encoding: 8730 8730 443
Width: 1305
VWidth: 1920
Flags: HMW
LayerCount: 2
Fore
SplineSet
230 1050 m 6
 357 1050 418.771646427 1029.99703177 462 920 c 6
 588.581054688 597.907226562 l 5
 777 1430 l 6
 800.047310922 1531.78117086 846 1620 1003 1620 c 6
 1008 1620 l 6
 1165 1620 1217.73788147 1526.76763498 1186 1430 c 6
 732.395507812 46.9765625 l 6
 703.448242188 -41.5537109375 621.689304998 -68.1667672187 578.395507812 6.9765625 c 6
 179.110351562 700 l 5
 168 700 l 6
 61 700 -2 753 -2 860 c 6
 -2 880 l 6
 -2 987 91 1050 218 1050 c 6
 230 1050 l 6
EndSplineSet
EndChar

StartChar: infinity
Encoding: 8734 8734 444
Width: 1432
Flags: HMW
LayerCount: 2
Fore
SplineSet
398 311 m 4
 188 311 50 481 50 675 c 0
 50 869 188 1035 398 1035 c 4
 612 1035 674 935 718 835 c 1
 762 935 812 1035 1036 1035 c 4
 1246 1035 1382 869 1382 675 c 0
 1382 481 1246 311 1036 311 c 4
 812 311 742 401 718 511 c 1
 672 401 612 311 398 311 c 4
450 567 m 0
 518 567 578 601 632 675 c 1
 582 747 518 781 450 781 c 0
 370 781 328 745 328 675 c 0
 328 607 370 567 450 567 c 0
984 567 m 4
 1064 567 1104 607 1104 675 c 4
 1104 745 1064 781 984 781 c 4
 926 781 852 747 802 675 c 1
 832 603 926 567 984 567 c 4
EndSplineSet
EndChar

StartChar: product
Encoding: 8719 8719 445
Width: 1420
VWidth: 1920
Flags: HW
LayerCount: 2
Fore
SplineSet
1090 1400 m 2
 1257 1400 1350 1307 1350 1140 c 2
 1350 210 l 2
 1350 53 1297 -30 1140 -30 c 2
 1070 -30 l 2
 913 -30 860 53 860 210 c 2
 860 1050 l 257
 560 1050 l 257
 560 210 l 2
 560 53 507 -30 350 -30 c 2
 280 -30 l 2
 123 -30 70 53 70 210 c 2
 70 1140 l 18
 70 1310 163 1400 330 1400 c 10
 1090 1400 l 2
EndSplineSet
EndChar

StartChar: uni2219
Encoding: 8729 8729 446
Width: 548
Flags: HW
LayerCount: 2
Fore
SplineSet
50 675 m 4
 50 807 142 900 274 900 c 4
 406 900 498 807 498 675 c 4
 498 543 414 450 282 450 c 4
 150 450 50 543 50 675 c 4
EndSplineSet
EndChar

StartChar: approxequal
Encoding: 8776 8776 447
Width: 1180
VWidth: 1920
Flags: HW
LayerCount: 2
Fore
SplineSet
462 624 m 256
 409.913085938 624 377.637562948 596.821896649 360.083984375 567 c 0
 334.269922282 523.144310482 316.9140625 488 240 488 c 2
 230 488 l 2
 152.911132812 488 102.295898438 531.993164062 110.088867188 607 c 0
 122.490234375 726.361328125 231.4453125 889 432 889 c 256
 561 889 637 767 719 767 c 256
 790.872070312 767 815.083181608 804.771373508 830.895507812 833 c 0
 851.602539062 869.966796875 884.106445312 903 951 903 c 2
 960 903 l 2
 1037.109375 903 1084.68196934 850.038941381 1069.890625 773 c 0
 1047.66471524 657.239017113 969.28125 502 749 502 c 256
 620 502 564 624 462 624 c 256
462 234 m 260
 409.913085938 234 377.637695312 206.822265625 360.083984375 177 c 4
 334.26953125 133.14453125 316.9140625 98 240 98 c 6
 230 98 l 6
 152.911132812 98 102.295898438 141.993164062 110.088867188 217 c 4
 122.490234375 336.361328125 231.4453125 499 432 499 c 260
 561 499 637 377 719 377 c 260
 790.872070312 377 815.083007812 414.771484375 830.895507812 443 c 4
 851.602539062 479.966796875 884.106445312 513 951 513 c 6
 960 513 l 6
 1037.109375 513 1084.68164062 460.0390625 1069.890625 383 c 4
 1047.66503906 267.239257812 969.28125 112 749 112 c 260
 620 112 564 234 462 234 c 260
EndSplineSet
EndChar

StartChar: notequal
Encoding: 8800 8800 448
Width: 1180
VWidth: 1920
Flags: HW
LayerCount: 2
Fore
SplineSet
1038 950 m 2
 1040 948 l 2
 1055 933 1045 899 1020 874 c 2
 216 70 l 2
 191 45 162 30 142 50 c 2
 140 52 l 2
 120 72 135 101 160 126 c 2
 964 930 l 2
 989 955 1023 965 1038 950 c 2
EndSplineSet
Refer: 83 61 N 1 0 0 1 0 0 2
EndChar

StartChar: lessequal
Encoding: 8804 8804 449
Width: 1010
VWidth: 1920
Flags: HW
LayerCount: 2
Fore
SplineSet
30 150 m 14
 30 155 l 22
 30 262 113 305 220 305 c 14
 740 305 l 22
 847 305 930 262 930 155 c 14
 930 150 l 22
 930 43 847 0 740 0 c 14
 220 0 l 22
 113 0 30 43 30 150 c 14
EndSplineSet
Refer: 84 60 N 1 0 0 1 0 230 2
EndChar

StartChar: greaterequal
Encoding: 8805 8805 450
Width: 1010
VWidth: 1920
Flags: HW
LayerCount: 2
Fore
SplineSet
80 150 m 10
 80 155 l 18
 80 262 163 305 270 305 c 10
 790 305 l 18
 897 305 980 262 980 155 c 10
 980 150 l 18
 980 43 897 0 790 0 c 10
 270 0 l 18
 163 0 80 43 80 150 c 10
EndSplineSet
Refer: 85 62 N 1 0 0 1 0 230 2
EndChar

StartChar: lozenge
Encoding: 9674 9674 451
Width: 1150
Flags: HW
LayerCount: 2
Fore
SplineSet
431 220 m 2
 181 522 l 2
 94.046037351 627.04038688 89.9554311797 796.388300168 181 902 c 2
 431 1192 l 2
 536.956198574 1314.90919035 639.262814284 1325.11408787 743 1192 c 2
 969 902 l 2
 1049.96799849 798.103010785 1046.09579908 625.021820008 969 522 c 2
 743 220 l 2
 650.116978158 95.8819796627 526.402422102 104.753874101 431 220 c 2
581 454 m 1
 713 712 l 1
 581 970 l 1
 437 712 l 1
 581 454 l 1
EndSplineSet
EndChar

StartChar: uniF8EA
Encoding: 63722 63722 452
Width: 1212
VWidth: 1920
Flags: HW
LayerCount: 2
Fore
SplineSet
129 1400 m 258
 435 1400 l 258
 499 1400 525 1378 525 1339 c 258
 525 1335 l 258
 525 1296 499 1274 435 1274 c 258
 371 1274 l 257
 371 979 l 258
 371 915 337 885 284 885 c 258
 281 885 l 258
 228 885 194 915 194 979 c 258
 194 1274 l 257
 129 1274 l 258
 65 1274 39 1296 39 1335 c 258
 39 1339 l 258
 39 1378 65 1400 129 1400 c 258
669 1195 m 257
 669 964 l 258
 669 911 643 885 608 885 c 258
 605 885 l 258
 570 885 543 911 543 964 c 258
 543 1310 l 258
 543 1370 580 1403 655 1403 c 258
 662 1403 l 258
 740 1403 777 1374 797 1313 c 258
 853 1144 l 257
 914 1306 l 258
 940 1375 980 1405 1040 1405 c 258
 1062 1405 l 258
 1129 1405 1163 1370 1163 1313 c 258
 1163 979 l 258
 1163 919 1133 885 1080 885 c 258
 1076 885 l 258
 1023 885 993 919 993 979 c 258
 993 1195 l 257
 912 971 l 258
 895 924 878 899 836 899 c 258
 835 899 l 258
 794 899 772 924 754 971 c 258
 669 1195 l 257
EndSplineSet
EndChar

StartChar: uniF8E8
Encoding: 63720 63720 453
Width: 936
Flags: HW
LayerCount: 2
Fore
SplineSet
420 1150 m 261
 420 1038 l 261
 456 1038 l 262
 502 1038 512 1061 512 1093 c 262
 512 1094 l 262
 512 1123 502 1150 456 1150 c 262
 420 1150 l 261
492 1276 m 262
 638 1276 692 1208 692 1125 c 262
 692 1117 l 262
 692 1031 610 980 492 980 c 261
 492 1002 l 261
 620 1002 695 991 695 905 c 262
 695 901 l 262
 695 882 700 865 704 854 c 260
 707 844 712 828 712 809 c 262
 712 807 l 262
 712 776 693 761 640 761 c 262
 629 761 l 262
 574 761 536 771 522 821 c 260
 517 840 512 859 512 890 c 262
 512 905 l 262
 512 934 501 948 463 948 c 262
 420 948 l 261
 420 858 l 262
 420 794 390 761 334 761 c 262
 330 761 l 262
 274 761 244 794 244 858 c 262
 244 1164 l 262
 244 1238 281 1276 355 1276 c 262
 492 1276 l 262
886 1016 m 4
 886 786 697 599 467 599 c 4
 237 599 50 786 50 1016 c 4
 50 1246 237 1435 467 1435 c 4
 697 1435 886 1246 886 1016 c 4
835 1016 m 4
 835 1219 670 1384 467 1384 c 4
 264 1384 101 1219 101 1016 c 4
 101 813 264 650 467 650 c 4
 670 650 835 813 835 1016 c 4
EndSplineSet
EndChar

StartChar: uniF8E9
Encoding: 63721 63721 454
Width: 936
Flags: HW
LayerCount: 2
Fore
SplineSet
702.599609375 919.799804688 m 260
 684.599609375 835.799804688 616.200195312 753 473.400390625 753 c 260
 298.200195312 753 223.200195312 851.400390625 223.200195312 988.200195312 c 262
 223.200195312 1047.59960938 l 262
 223.200195312 1184.40039062 298.200195312 1282.20019531 473.400390625 1282.20019531 c 260
 616.200195312 1282.20019531 664.200195312 1210.79980469 688.799804688 1148.40039062 c 260
 708.599609375 1098 679.200195312 1069.20019531 644.400390625 1069.20019531 c 262
 626.400390625 1069.20019531 l 262
 595.200195312 1069.20019531 577.200195312 1089.59960938 568.200195312 1112.40039062 c 260
 556.799804688 1140.59960938 529.799804688 1159.79980469 491.400390625 1159.79980469 c 260
 438.599609375 1159.79980469 403.200195312 1126.79980469 403.200195312 1051.20019531 c 262
 403.200195312 984.599609375 l 262
 403.200195312 905.400390625 435 875.400390625 495 875.400390625 c 260
 544.200195312 875.400390625 560.400390625 889.200195312 572.400390625 930.599609375 c 260
 579.599609375 954 602.400390625 991.799804688 640.799804688 991.799804688 c 262
 651.599609375 991.799804688 l 262
 697.200195312 991.799804688 711 958.200195312 702.599609375 919.799804688 c 260
886.200195312 1016.40039062 m 4
 886.200195312 786 697.799804688 598.799804688 467.400390625 598.799804688 c 4
 237 598.799804688 49.7998046875 786 49.7998046875 1016.40039062 c 4
 49.7998046875 1246.79980469 237 1435.20019531 467.400390625 1435.20019531 c 4
 697.799804688 1435.20019531 886.200195312 1246.79980469 886.200195312 1016.40039062 c 4
834.599609375 1016.40039062 m 4
 834.599609375 1219.20019531 670.200195312 1383.59960938 467.400390625 1383.59960938 c 4
 264.599609375 1383.59960938 101.400390625 1219.20019531 101.400390625 1016.40039062 c 4
 101.400390625 813.599609375 264.599609375 650.400390625 467.400390625 650.400390625 c 4
 670.200195312 650.400390625 834.599609375 813.599609375 834.599609375 1016.40039062 c 4
EndSplineSet
EndChar

StartChar: uni1E9E
Encoding: 7838 7838 457
Width: 1527
VWidth: 1920
Flags: HW
LayerCount: 2
Fore
SplineSet
70 1005 m 2
 70 1289 357 1434 747 1434 c 0
 1028.00683594 1434 1210.45563903 1308.37163645 1289 1236.51074219 c 4
 1378.61605708 1154.52026034 1371.16491673 1001.26120191 1290.59960938 914 c 6
 1162.265625 775 l 1
 1281.52636719 685.846679688 1512 568.829101562 1512 328.020507812 c 0
 1512 54.259765625 1318.4609375 -35 999.372070312 -35 c 0
 901.129882812 -35 812.291232012 -22.8944793934 767.315429688 -11.466796875 c 0
 683.228515625 9.8984375 593 76 593 185 c 2
 593 195 l 2
 593 305.908203125 665.678710938 349.6953125 764.728515625 321.918945312 c 0
 825.508382088 304.874551396 864.987304688 297 926.9453125 297 c 0
 992.14453125 297 1022 323.416015625 1022 370.912109375 c 0
 1022 447.498046875 895.342869701 535.484849766 742 620.3671875 c 0
 629.727550391 682.515156978 674.283704 751.715699213 734.34765625 837 c 2
 881.541992188 1046 l 1
 858.818359375 1067.953125 802.23046875 1092 744 1092 c 0
 575 1092 555 1038 555 935 c 2
 555 260 l 2
 555 53 482 -30 325 -30 c 2
 300 -30 l 2
 143 -30 70 53 70 260 c 2
 70 1005 l 2
EndSplineSet
EndChar
